<?xml version="1.0" encoding="utf-8"?>
<!-- Generator: Adobe Illustrator 19.1.0, SVG Export Plug-In . SVG Version: 6.00 Build 0)  -->
<svg version="1.1" id="Layer_1" xmlns="http://www.w3.org/2000/svg" xmlns:xlink="http://www.w3.org/1999/xlink" x="0px" y="0px"
	 width="205px" height="62px" viewBox="0 0 205 62" style="enable-background:new 0 0 205 62;" xml:space="preserve">
<style type="text/css">
	.st0{fill:#9ECA13;}
</style>
<g>
	<g>
		<path class="st0" d="M182.9,22.1h11c-0.1-0.8-0.6-2.9-2.4-5c-1.8-2.1-2.6-3.5-2.6-6c0-2.4,0.8-3.9,2.6-6c1.8-2.1,2.3-4.2,2.4-5
			h-11V22.1z"/>
		<path d="M198.7,22.1h6V0.2h-6c-0.1,0.8-0.6,3-2.6,5.4c-1.7,2-2.5,3.4-2.5,5.6c0,2.2,0.8,3.6,2.5,5.6
			C198.1,19.1,198.6,21.4,198.7,22.1"/>
		<path d="M11.3,40c-1.6,0-3-0.3-4.4-0.9c-1.3-0.6-2.5-1.4-3.5-2.4c-1-1-1.7-2.2-2.3-3.5c-0.5-1.4-0.8-2.8-0.8-4.3v-0.1
			c0-1.5,0.3-3,0.8-4.3c0.6-1.3,1.3-2.5,2.3-3.5c1-1,2.1-1.8,3.5-2.4c1.4-0.6,2.9-0.9,4.5-0.9c1,0,1.9,0.1,2.7,0.2
			c0.8,0.2,1.6,0.4,2.3,0.7c0.7,0.3,1.3,0.6,1.9,1c0.6,0.4,1.1,0.9,1.6,1.4l-3,3.5c-0.8-0.8-1.7-1.4-2.6-1.8
			c-0.9-0.4-1.8-0.6-2.9-0.6c-0.9,0-1.7,0.2-2.5,0.5c-0.8,0.3-1.4,0.8-2,1.4c-0.6,0.6-1,1.3-1.3,2.1c-0.3,0.8-0.5,1.7-0.5,2.6v0.1
			c0,0.9,0.2,1.8,0.5,2.6C6,32.3,6.4,33,6.9,33.6c0.5,0.6,1.2,1.1,2,1.5c0.8,0.4,1.6,0.5,2.5,0.5c1.2,0,2.3-0.2,3.1-0.7
			c0.8-0.5,1.7-1.1,2.5-1.8l3,3c-0.6,0.6-1.1,1.1-1.7,1.6c-0.6,0.5-1.2,0.9-1.9,1.2c-0.7,0.3-1.5,0.6-2.3,0.8
			C13.2,39.9,12.3,40,11.3,40"/>
		<path d="M32.7,35.6c0.9,0,1.8-0.2,2.6-0.5c0.8-0.4,1.5-0.8,2-1.5c0.6-0.6,1-1.3,1.3-2.1c0.3-0.8,0.5-1.7,0.5-2.6v-0.1
			c0-0.9-0.2-1.8-0.5-2.6c-0.3-0.8-0.8-1.5-1.3-2.2c-0.6-0.6-1.3-1.1-2.1-1.5c-0.8-0.4-1.7-0.5-2.6-0.5c-1,0-1.8,0.2-2.6,0.5
			c-0.8,0.3-1.5,0.8-2,1.4c-0.6,0.6-1,1.3-1.3,2.1c-0.3,0.8-0.5,1.7-0.5,2.6v0.1c0,0.9,0.2,1.8,0.5,2.6c0.3,0.8,0.8,1.5,1.3,2.2
			c0.6,0.6,1.3,1.1,2,1.5C30.9,35.4,31.8,35.6,32.7,35.6 M32.7,40c-1.7,0-3.2-0.3-4.6-0.9c-1.4-0.6-2.6-1.4-3.6-2.4
			c-1-1-1.8-2.2-2.4-3.5c-0.6-1.3-0.8-2.8-0.8-4.3v-0.1c0-1.5,0.3-3,0.9-4.3c0.6-1.3,1.4-2.5,2.4-3.5c1-1,2.2-1.8,3.6-2.4
			c1.4-0.6,2.9-0.9,4.6-0.9c1.7,0,3.2,0.3,4.6,0.9c1.4,0.6,2.6,1.4,3.6,2.4c1,1,1.8,2.2,2.4,3.5c0.6,1.3,0.8,2.8,0.8,4.3v0.1
			c0,1.5-0.3,3-0.9,4.3c-0.6,1.3-1.4,2.5-2.4,3.5c-1,1-2.2,1.8-3.6,2.4C35.8,39.7,34.3,40,32.7,40"/>
	</g>
	<polygon points="46.7,18 51.8,18 57.4,27.1 63.1,18 68.1,18 68.1,39.6 63.5,39.6 63.5,25.5 57.5,34.7 57.4,34.7 51.4,25.6 
		51.4,39.6 46.7,39.6 	"/>
	<g>
		<path d="M80.7,39.9c-2.9,0-5.1-0.8-6.8-2.4c-1.7-1.6-2.5-4-2.5-7.2V18h4.7v12.2c0,1.8,0.4,3.1,1.2,4c0.8,0.9,1.9,1.3,3.4,1.3
			c1.5,0,2.6-0.4,3.4-1.3c0.8-0.9,1.2-2.2,1.2-3.9V18h4.7v12.2c0,1.6-0.2,3.1-0.7,4.3c-0.4,1.2-1.1,2.2-1.9,3
			c-0.8,0.8-1.8,1.4-3,1.8C83.4,39.7,82.1,39.9,80.7,39.9"/>
	</g>
	<polygon points="93.3,18 97.7,18 107.7,31.3 107.7,18 112.4,18 112.4,39.6 108.4,39.6 98,25.9 98,39.6 93.3,39.6 	"/>
	<polygon points="116,18 132.1,18 132.1,22.2 120.6,22.2 120.6,26.6 130.7,26.6 130.7,30.8 120.6,30.8 120.6,35.4 132.2,35.4 
		132.2,39.6 116,39.6 	"/>
	<polygon points="134.9,18 139.6,18 139.6,35.3 151.4,35.3 151.4,39.6 134.9,39.6 	"/>
	<polygon points="150.5,18 155.2,18 155.2,35.3 166.9,35.3 166.9,39.6 150.5,39.6 	"/>
	<g>
		<path d="M177,35.6c0.9,0,1.8-0.2,2.6-0.5c0.8-0.4,1.5-0.8,2-1.5c0.6-0.6,1-1.3,1.3-2.1c0.3-0.8,0.5-1.7,0.5-2.6v-0.1
			c0-0.9-0.2-1.8-0.5-2.6c-0.3-0.8-0.8-1.5-1.3-2.2c-0.6-0.6-1.3-1.1-2.1-1.5c-0.8-0.4-1.7-0.5-2.6-0.5c-1,0-1.8,0.2-2.6,0.5
			c-0.8,0.3-1.5,0.8-2,1.4c-0.6,0.6-1,1.3-1.3,2.1c-0.3,0.8-0.5,1.7-0.5,2.6v0.1c0,0.9,0.2,1.8,0.5,2.6c0.3,0.8,0.8,1.5,1.3,2.2
			c0.6,0.6,1.3,1.1,2.1,1.5C175.2,35.4,176.1,35.6,177,35.6 M177,40c-1.7,0-3.2-0.3-4.6-0.9c-1.4-0.6-2.6-1.4-3.6-2.4
			c-1-1-1.8-2.2-2.4-3.5c-0.6-1.3-0.8-2.8-0.8-4.3v-0.1c0-1.5,0.3-3,0.9-4.3c0.6-1.3,1.4-2.5,2.4-3.5c1-1,2.2-1.8,3.6-2.4
			c1.4-0.6,2.9-0.9,4.6-0.9c1.7,0,3.2,0.3,4.6,0.9c1.4,0.6,2.6,1.4,3.6,2.4c1,1,1.8,2.2,2.4,3.5c0.6,1.3,0.8,2.8,0.8,4.3v0.1
			c0,1.5-0.3,3-0.9,4.3c-0.6,1.3-1.4,2.5-2.4,3.5c-1,1-2.2,1.8-3.6,2.4C180.1,39.7,178.6,40,177,40"/>
	</g>
	<path class="st0" d="M12.5,55.5l-1.9-4.7l-1.9,4.7H12.5z M9.2,46.9h2.9l6.2,14.6H15l-1.3-3.3H7.6l-1.3,3.3H3L9.2,46.9z"/>
	<g>
		<path class="st0" d="M25.2,61.8c-1.9,0-3.5-0.5-4.6-1.6c-1.1-1.1-1.7-2.7-1.7-4.8V47h3.2v8.2c0,1.2,0.3,2.1,0.8,2.7
			c0.5,0.6,1.3,0.9,2.3,0.9c1,0,1.7-0.3,2.3-0.9c0.5-0.6,0.8-1.5,0.8-2.6V47h3.2v8.2c0,1.1-0.1,2.1-0.4,2.9c-0.3,0.8-0.7,1.5-1.3,2
			c-0.5,0.5-1.2,1-2,1.2C27,61.6,26.1,61.8,25.2,61.8"/>
	</g>
	<polygon class="st0" points="36.8,50 32.4,50 32.4,47 44.3,47 44.3,50 39.9,50 39.9,61.6 36.8,61.6 	"/>
	<g>
		<path class="st0" d="M52.4,58.9c0.6,0,1.2-0.1,1.7-0.4c0.5-0.2,1-0.6,1.4-1c0.4-0.4,0.7-0.9,0.9-1.4c0.2-0.5,0.3-1.1,0.3-1.8v0
			c0-0.6-0.1-1.2-0.3-1.8c-0.2-0.6-0.5-1-0.9-1.5c-0.4-0.4-0.9-0.7-1.4-1c-0.5-0.2-1.1-0.4-1.8-0.4c-0.6,0-1.2,0.1-1.8,0.4
			c-0.5,0.2-1,0.6-1.4,1c-0.4,0.4-0.7,0.9-0.9,1.4c-0.2,0.5-0.3,1.1-0.3,1.8v0c0,0.6,0.1,1.2,0.3,1.8c0.2,0.6,0.5,1,0.9,1.5
			c0.4,0.4,0.9,0.7,1.4,1C51.2,58.7,51.8,58.9,52.4,58.9 M52.4,61.8c-1.1,0-2.1-0.2-3.1-0.6c-0.9-0.4-1.7-0.9-2.4-1.6
			c-0.7-0.7-1.2-1.5-1.6-2.4c-0.4-0.9-0.6-1.9-0.6-2.9v0c0-1,0.2-2,0.6-2.9c0.4-0.9,0.9-1.7,1.6-2.4c0.7-0.7,1.5-1.2,2.4-1.6
			c0.9-0.4,2-0.6,3.1-0.6c1.1,0,2.1,0.2,3.1,0.6c0.9,0.4,1.7,0.9,2.4,1.6c0.7,0.7,1.2,1.5,1.6,2.4c0.4,0.9,0.6,1.9,0.6,2.9v0
			c0,1-0.2,2-0.6,2.9c-0.4,0.9-0.9,1.7-1.6,2.4c-0.7,0.7-1.5,1.2-2.4,1.6C54.5,61.6,53.5,61.8,52.4,61.8"/>
	</g>
	<polygon class="st0" points="61.6,47 65,47 68.8,53.2 72.6,47 76,47 76,61.6 72.8,61.6 72.8,52.1 68.8,58.3 68.7,58.3 64.7,52.1 
		64.7,61.6 61.6,61.6 	"/>
	<path class="st0" d="M86.4,55.5l-1.9-4.7l-1.9,4.7H86.4z M83,46.9H86l6.2,14.6h-3.3l-1.3-3.3h-6.1l-1.3,3.3h-3.2L83,46.9z"/>
	<polygon class="st0" points="96.4,50 92,50 92,47 103.9,47 103.9,50 99.5,50 99.5,61.6 96.4,61.6 	"/>
	<rect x="105.2" y="47" class="st0" width="3.2" height="14.5"/>
	<g>
		<path class="st0" d="M117.6,58.9c0.6,0,1.2-0.1,1.7-0.4c0.5-0.2,1-0.6,1.4-1c0.4-0.4,0.7-0.9,0.9-1.4c0.2-0.5,0.3-1.1,0.3-1.8v0
			c0-0.6-0.1-1.2-0.3-1.8c-0.2-0.6-0.5-1-0.9-1.5c-0.4-0.4-0.9-0.7-1.4-1c-0.5-0.2-1.1-0.4-1.7-0.4c-0.6,0-1.2,0.1-1.8,0.4
			c-0.5,0.2-1,0.6-1.4,1c-0.4,0.4-0.7,0.9-0.9,1.4c-0.2,0.5-0.3,1.1-0.3,1.8v0c0,0.6,0.1,1.2,0.3,1.8c0.2,0.6,0.5,1,0.9,1.5
			c0.4,0.4,0.9,0.7,1.4,1C116.4,58.7,117,58.9,117.6,58.9 M117.6,61.8c-1.1,0-2.1-0.2-3.1-0.6c-0.9-0.4-1.7-0.9-2.4-1.6
			c-0.7-0.7-1.2-1.5-1.6-2.4c-0.4-0.9-0.6-1.9-0.6-2.9v0c0-1,0.2-2,0.6-2.9c0.4-0.9,0.9-1.7,1.6-2.4c0.7-0.7,1.5-1.2,2.4-1.6
			c0.9-0.4,2-0.6,3.1-0.6c1.1,0,2.1,0.2,3.1,0.6c0.9,0.4,1.7,0.9,2.4,1.6c0.7,0.7,1.2,1.5,1.6,2.4c0.4,0.9,0.6,1.9,0.6,2.9v0
			c0,1-0.2,2-0.6,2.9c-0.4,0.9-0.9,1.7-1.6,2.4c-0.7,0.7-1.5,1.2-2.4,1.6C119.7,61.6,118.7,61.8,117.6,61.8"/>
	</g>
	<polygon class="st0" points="126.8,47 129.7,47 136.4,56 136.4,47 139.6,47 139.6,61.6 136.9,61.6 129.9,52.3 129.9,61.6 
		126.8,61.6 	"/>
</g>
</svg>
