<?xml version="1.0" encoding="utf-8"?>
<!-- Generator: Adobe Illustrator 19.1.0, SVG Export Plug-In . SVG Version: 6.00 Build 0)  -->
<svg version="1.1" id="Layer_1" xmlns="http://www.w3.org/2000/svg" xmlns:xlink="http://www.w3.org/1999/xlink" x="0px" y="0px"
	 width="205px" height="62px" viewBox="-49 -28 205 62" style="enable-background:new -49 -28 205 62;" xml:space="preserve">
<style type="text/css">
	.st0{fill:#FFFFFF;}
</style>
<g>
	<g>
		<path class="st0" d="M133.9-5.9h11c-0.1-0.8-0.6-2.9-2.4-5c-1.8-2.1-2.6-3.5-2.6-6c0-2.4,0.8-3.9,2.6-6c1.8-2.1,2.3-4.2,2.4-5h-11
			V-5.9z"/>
		<path d="M149.7-5.9h6v-21.9h-6c-0.1,0.8-0.6,3-2.6,5.4c-1.7,2-2.5,3.4-2.5,5.6c0,2.2,0.8,3.6,2.5,5.6
			C149.1-8.9,149.6-6.6,149.7-5.9"/>
		<path d="M-37.7,12c-1.6,0-3-0.3-4.4-0.9c-1.3-0.6-2.5-1.4-3.5-2.4c-1-1-1.7-2.2-2.3-3.5c-0.5-1.4-0.8-2.8-0.8-4.3V0.8
			c0-1.5,0.3-3,0.8-4.3c0.6-1.3,1.3-2.5,2.3-3.5c1-1,2.1-1.8,3.5-2.4c1.4-0.6,2.9-0.9,4.5-0.9c1,0,1.9,0.1,2.7,0.2
			c0.8,0.2,1.6,0.4,2.3,0.7c0.7,0.3,1.3,0.6,1.9,1c0.6,0.4,1.1,0.9,1.6,1.4l-3,3.5c-0.8-0.8-1.7-1.4-2.6-1.8
			C-35.5-5.8-36.5-6-37.6-6c-0.9,0-1.7,0.2-2.5,0.5c-0.8,0.3-1.4,0.8-2,1.4c-0.6,0.6-1,1.3-1.3,2.1c-0.3,0.8-0.5,1.7-0.5,2.6v0.1
			c0,0.9,0.2,1.8,0.5,2.6c0.3,0.8,0.7,1.5,1.3,2.2c0.5,0.6,1.2,1.1,2,1.5c0.8,0.4,1.6,0.5,2.5,0.5c1.2,0,2.3-0.2,3.1-0.7
			c0.8-0.5,1.7-1.1,2.5-1.8l3,3c-0.6,0.6-1.1,1.1-1.7,1.6c-0.6,0.5-1.2,0.9-1.9,1.2c-0.7,0.3-1.5,0.6-2.3,0.8
			C-35.8,11.9-36.7,12-37.7,12"/>
		<path d="M-16.3,7.6c0.9,0,1.8-0.2,2.6-0.5c0.8-0.4,1.5-0.8,2-1.5c0.6-0.6,1-1.3,1.3-2.1c0.3-0.8,0.5-1.7,0.5-2.6V0.8
			c0-0.9-0.2-1.8-0.5-2.6c-0.3-0.8-0.8-1.5-1.3-2.2c-0.6-0.6-1.3-1.1-2.1-1.5C-14.5-5.8-15.4-6-16.3-6c-1,0-1.8,0.2-2.6,0.5
			c-0.8,0.3-1.5,0.8-2,1.4c-0.6,0.6-1,1.3-1.3,2.1c-0.3,0.8-0.5,1.7-0.5,2.6v0.1c0,0.9,0.2,1.8,0.5,2.6c0.3,0.8,0.8,1.5,1.3,2.2
			c0.6,0.6,1.3,1.1,2,1.5C-18.1,7.4-17.2,7.6-16.3,7.6 M-16.3,12c-1.7,0-3.2-0.3-4.6-0.9c-1.4-0.6-2.6-1.4-3.6-2.4
			c-1-1-1.8-2.2-2.4-3.5c-0.6-1.3-0.8-2.8-0.8-4.3V0.8c0-1.5,0.3-3,0.9-4.3c0.6-1.3,1.4-2.5,2.4-3.5c1-1,2.2-1.8,3.6-2.4
			c1.4-0.6,2.9-0.9,4.6-0.9c1.7,0,3.2,0.3,4.6,0.9c1.4,0.6,2.6,1.4,3.6,2.4c1,1,1.8,2.2,2.4,3.5c0.6,1.3,0.8,2.8,0.8,4.3v0.1
			c0,1.5-0.3,3-0.9,4.3c-0.6,1.3-1.4,2.5-2.4,3.5c-1,1-2.2,1.8-3.6,2.4C-13.2,11.7-14.7,12-16.3,12"/>
	</g>
	<polygon points="-2.3,-10 2.8,-10 8.4,-0.9 14.1,-10 19.1,-10 19.1,11.6 14.5,11.6 14.5,-2.5 8.5,6.7 8.4,6.7 2.4,-2.4 2.4,11.6 
		-2.3,11.6 	"/>
	<g>
		<path d="M31.7,11.9c-2.9,0-5.1-0.8-6.8-2.4c-1.7-1.6-2.5-4-2.5-7.2V-10h4.7V2.2c0,1.8,0.4,3.1,1.2,4c0.8,0.9,1.9,1.3,3.4,1.3
			c1.5,0,2.6-0.4,3.4-1.3c0.8-0.9,1.2-2.2,1.2-3.9V-10h4.7V2.2c0,1.6-0.2,3.1-0.7,4.3c-0.4,1.2-1.1,2.2-1.9,3
			c-0.8,0.8-1.8,1.4-3,1.8C34.4,11.7,33.1,11.9,31.7,11.9"/>
	</g>
	<polygon points="44.3,-10 48.7,-10 58.7,3.3 58.7,-10 63.4,-10 63.4,11.6 59.4,11.6 49,-2.1 49,11.6 44.3,11.6 	"/>
	<polygon points="67,-10 83.1,-10 83.1,-5.8 71.6,-5.8 71.6,-1.4 81.7,-1.4 81.7,2.8 71.6,2.8 71.6,7.4 83.2,7.4 83.2,11.6 67,11.6 
			"/>
	<polygon points="85.9,-10 90.6,-10 90.6,7.3 102.4,7.3 102.4,11.6 85.9,11.6 	"/>
	<polygon points="101.5,-10 106.2,-10 106.2,7.3 117.9,7.3 117.9,11.6 101.5,11.6 	"/>
	<g>
		<path d="M128,7.6c0.9,0,1.8-0.2,2.6-0.5c0.8-0.4,1.5-0.8,2-1.5c0.6-0.6,1-1.3,1.3-2.1c0.3-0.8,0.5-1.7,0.5-2.6V0.8
			c0-0.9-0.2-1.8-0.5-2.6c-0.3-0.8-0.8-1.5-1.3-2.2c-0.6-0.6-1.3-1.1-2.1-1.5C129.8-5.8,128.9-6,128-6c-1,0-1.8,0.2-2.6,0.5
			c-0.8,0.3-1.5,0.8-2,1.4c-0.6,0.6-1,1.3-1.3,2.1c-0.3,0.8-0.5,1.7-0.5,2.6v0.1c0,0.9,0.2,1.8,0.5,2.6c0.3,0.8,0.8,1.5,1.3,2.2
			c0.6,0.6,1.3,1.1,2.1,1.5C126.2,7.4,127.1,7.6,128,7.6 M128,12c-1.7,0-3.2-0.3-4.6-0.9c-1.4-0.6-2.6-1.4-3.6-2.4
			c-1-1-1.8-2.2-2.4-3.5c-0.6-1.3-0.8-2.8-0.8-4.3V0.8c0-1.5,0.3-3,0.9-4.3c0.6-1.3,1.4-2.5,2.4-3.5c1-1,2.2-1.8,3.6-2.4
			c1.4-0.6,2.9-0.9,4.6-0.9c1.7,0,3.2,0.3,4.6,0.9c1.4,0.6,2.6,1.4,3.6,2.4c1,1,1.8,2.2,2.4,3.5c0.6,1.3,0.8,2.8,0.8,4.3v0.1
			c0,1.5-0.3,3-0.9,4.3c-0.6,1.3-1.4,2.5-2.4,3.5c-1,1-2.2,1.8-3.6,2.4C131.1,11.7,129.6,12,128,12"/>
	</g>
	<path class="st0" d="M-36.5,27.5l-1.9-4.7l-1.9,4.7H-36.5z M-39.8,18.9h2.9l6.2,14.6H-34l-1.3-3.3h-6.1l-1.3,3.3H-46L-39.8,18.9z"
		/>
	<g>
		<path class="st0" d="M-23.8,33.8c-1.9,0-3.5-0.5-4.6-1.6c-1.1-1.1-1.7-2.7-1.7-4.8V19h3.2v8.2c0,1.2,0.3,2.1,0.8,2.7
			c0.5,0.6,1.3,0.9,2.3,0.9c1,0,1.7-0.3,2.3-0.9c0.5-0.6,0.8-1.5,0.8-2.6V19h3.2v8.2c0,1.1-0.1,2.1-0.4,2.9c-0.3,0.8-0.7,1.5-1.3,2
			c-0.5,0.5-1.2,1-2,1.2C-22,33.6-22.9,33.8-23.8,33.8"/>
	</g>
	<polygon class="st0" points="-12.2,22 -16.6,22 -16.6,19 -4.7,19 -4.7,22 -9.1,22 -9.1,33.6 -12.2,33.6 	"/>
	<g>
		<path class="st0" d="M3.4,30.9c0.6,0,1.2-0.1,1.7-0.4c0.5-0.2,1-0.6,1.4-1c0.4-0.4,0.7-0.9,0.9-1.4c0.2-0.5,0.3-1.1,0.3-1.8v0
			c0-0.6-0.1-1.2-0.3-1.8c-0.2-0.6-0.5-1-0.9-1.5c-0.4-0.4-0.9-0.7-1.4-1c-0.5-0.2-1.1-0.4-1.8-0.4c-0.6,0-1.2,0.1-1.8,0.4
			c-0.5,0.2-1,0.6-1.4,1c-0.4,0.4-0.7,0.9-0.9,1.4c-0.2,0.5-0.3,1.1-0.3,1.8v0c0,0.6,0.1,1.2,0.3,1.8c0.2,0.6,0.5,1,0.9,1.5
			c0.4,0.4,0.9,0.7,1.4,1C2.2,30.7,2.8,30.9,3.4,30.9 M3.4,33.8c-1.1,0-2.1-0.2-3.1-0.6c-0.9-0.4-1.7-0.9-2.4-1.6
			c-0.7-0.7-1.2-1.5-1.6-2.4c-0.4-0.9-0.6-1.9-0.6-2.9v0c0-1,0.2-2,0.6-2.9c0.4-0.9,0.9-1.7,1.6-2.4c0.7-0.7,1.5-1.2,2.4-1.6
			c0.9-0.4,2-0.6,3.1-0.6c1.1,0,2.1,0.2,3.1,0.6c0.9,0.4,1.7,0.9,2.4,1.6c0.7,0.7,1.2,1.5,1.6,2.4c0.4,0.9,0.6,1.9,0.6,2.9v0
			c0,1-0.2,2-0.6,2.9c-0.4,0.9-0.9,1.7-1.6,2.4c-0.7,0.7-1.5,1.2-2.4,1.6C5.5,33.6,4.5,33.8,3.4,33.8"/>
	</g>
	<polygon class="st0" points="12.6,19 16,19 19.8,25.2 23.6,19 27,19 27,33.6 23.8,33.6 23.8,24.1 19.8,30.3 19.7,30.3 15.7,24.1 
		15.7,33.6 12.6,33.6 	"/>
	<path class="st0" d="M37.4,27.5l-1.9-4.7l-1.9,4.7H37.4z M34,18.9H37l6.2,14.6h-3.3l-1.3-3.3h-6.1l-1.3,3.3h-3.2L34,18.9z"/>
	<polygon class="st0" points="47.4,22 43,22 43,19 54.9,19 54.9,22 50.5,22 50.5,33.6 47.4,33.6 	"/>
	<rect x="56.2" y="19" class="st0" width="3.2" height="14.5"/>
	<g>
		<path class="st0" d="M68.6,30.9c0.6,0,1.2-0.1,1.7-0.4c0.5-0.2,1-0.6,1.4-1c0.4-0.4,0.7-0.9,0.9-1.4c0.2-0.5,0.3-1.1,0.3-1.8v0
			c0-0.6-0.1-1.2-0.3-1.8c-0.2-0.6-0.5-1-0.9-1.5c-0.4-0.4-0.9-0.7-1.4-1c-0.5-0.2-1.1-0.4-1.7-0.4c-0.6,0-1.2,0.1-1.8,0.4
			c-0.5,0.2-1,0.6-1.4,1c-0.4,0.4-0.7,0.9-0.9,1.4c-0.2,0.5-0.3,1.1-0.3,1.8v0c0,0.6,0.1,1.2,0.3,1.8c0.2,0.6,0.5,1,0.9,1.5
			c0.4,0.4,0.9,0.7,1.4,1C67.4,30.7,68,30.9,68.6,30.9 M68.6,33.8c-1.1,0-2.1-0.2-3.1-0.6c-0.9-0.4-1.7-0.9-2.4-1.6
			c-0.7-0.7-1.2-1.5-1.6-2.4c-0.4-0.9-0.6-1.9-0.6-2.9v0c0-1,0.2-2,0.6-2.9c0.4-0.9,0.9-1.7,1.6-2.4c0.7-0.7,1.5-1.2,2.4-1.6
			c0.9-0.4,2-0.6,3.1-0.6c1.1,0,2.1,0.2,3.1,0.6c0.9,0.4,1.7,0.9,2.4,1.6c0.7,0.7,1.2,1.5,1.6,2.4c0.4,0.9,0.6,1.9,0.6,2.9v0
			c0,1-0.2,2-0.6,2.9c-0.4,0.9-0.9,1.7-1.6,2.4c-0.7,0.7-1.5,1.2-2.4,1.6C70.7,33.6,69.7,33.8,68.6,33.8"/>
	</g>
	<polygon class="st0" points="77.8,19 80.7,19 87.4,28 87.4,19 90.6,19 90.6,33.6 87.9,33.6 80.9,24.3 80.9,33.6 77.8,33.6 	"/>
</g>
</svg>
