<?xml version="1.0" encoding="utf-8"?>
<!-- Generator: Adobe Illustrator 19.1.0, SVG Export Plug-In . SVG Version: 6.00 Build 0)  -->
<svg version="1.1" id="Layer_1" xmlns="http://www.w3.org/2000/svg" xmlns:xlink="http://www.w3.org/1999/xlink" x="0px" y="0px"
	 width="305px" height="70px" viewBox="0 0 305 70" style="enable-background:new 0 0 305 70;" xml:space="preserve">
<g>
	<g>
		<path d="M115.3,4.3c-0.6,3.5-2.9,5.3-7.3,5.4l-0.1,0V11h0.3c3,0,5.7-0.4,7.7-2.2V35h2V4h-2.6L115.3,4.3z"/>
		<path d="M135,3.2c-6.4,0-10,5.9-10,16.1c0,10.3,3.6,16.2,10,16.2c6.4,0,10-5.9,10-16.2C145,9.1,141.4,3.2,135,3.2z M143.1,19.3
			c0,9.4-2.8,14.3-8,14.3c-5.2,0-8.1-5.1-8.1-14.3C127,10.1,129.8,5,135,5C140.3,5,143.1,10,143.1,19.3z"/>
		<path d="M158.5,3.2c-6.4,0-10,5.9-10,16.1c0,10.3,3.6,16.2,10,16.2c6.4,0,10-5.9,10-16.2C168.6,9.1,164.9,3.2,158.5,3.2z
			 M166.6,19.3c0,9.4-2.8,14.3-8,14.3c-5.2,0-8.1-5.1-8.1-14.3c0-9.2,2.9-14.3,8.1-14.3C163.8,5,166.6,10,166.6,19.3z"/>
		<path d="M185.2,9.3c0-3.9-3.1-7-7-7s-7,3.1-7,7c0,3.9,3.1,7,7,7C182.1,16.3,185.2,13.2,185.2,9.3z M183.4,9.3
			c0,2.8-2.3,5.1-5.2,5.1c-2.8,0-5.1-2.3-5.1-5.1c0-2.9,2.3-5.1,5.1-5.1C181.1,4.2,183.4,6.5,183.4,9.3z"/>
		<polygon points="193.6,2 175.7,35 177.8,35 195.7,2 		"/>
		<path d="M193.3,21.3c-3.9,0-7,3.1-7,7c0,3.9,3.2,7,7,7c3.9,0,7-3.1,7-7C200.2,24.4,197.2,21.3,193.3,21.3z M198.4,28.3
			c0,2.8-2.3,5.1-5.1,5.1c-2.9,0-5.2-2.3-5.2-5.1c0-2.9,2.3-5.1,5.2-5.1C196.1,23.1,198.4,25.4,198.4,28.3z"/>
	</g>
	<g>
		<path d="M1.3,44.5h13.7v18.8H14v-18H2.2v18H1.3V44.5z"/>
		<path d="M15.2,63.6h-1.4v-18H2.4v18H1V44.2h14.2V63.6z M14.3,63.1h0.4V44.7H1.5v18.3h0.4V45h12.4V63.1z"/>
		<path d="M30.9,49.5c0,1.5-0.5,2.8-1.4,3.7c-1.2,1.2-3,1.4-5.4,1.4h-4.2v8.7H19V44.5h5.1C28.7,44.5,30.9,46,30.9,49.5z M19.9,45.3
			v8.5h3.6c1.8,0,3.3,0,4.4-0.5c1.3-0.6,2.1-2.1,2.1-4c0-1.6-0.6-2.7-1.9-3.4c-1.1-0.6-2.6-0.7-4.6-0.7H19.9z"/>
		<path d="M20.1,63.6h-1.4V44.2h5.4c4.7,0,7,1.7,7,5.2c0,1.6-0.5,3-1.5,3.9c-1.3,1.3-2.9,1.5-5.6,1.5h-3.9V63.6z M19.3,63.1h0.4
			v-8.7h4.4c2.6,0,4.1-0.2,5.3-1.4c0.9-0.9,1.3-2.1,1.3-3.6c0-3.2-2.1-4.7-6.5-4.7h-4.9V63.1z M23.5,54.1h-3.8v-9h3.8
			c2,0,3.6,0.1,4.7,0.7c1.3,0.7,2,2,2,3.6c0,2-0.9,3.6-2.3,4.2C26.8,54.1,25.3,54.1,23.5,54.1z M20.1,53.6h3.3c1.8,0,3.2,0,4.3-0.5
			c1.2-0.5,2-2,2-3.7c0-1.5-0.6-2.6-1.8-3.2c-1.1-0.6-2.5-0.6-4.5-0.6h-3.3V53.6z"/>
		<path d="M41.6,44.1c5.2,0,8.3,3.7,8.3,9.8c0,6.1-3.2,9.8-8.3,9.8c-5.2,0-8.3-3.7-8.3-9.8C33.2,47.8,36.4,44.1,41.6,44.1z
			 M41.6,62.9c4.6,0,7.4-3.4,7.4-9s-2.8-9-7.4-9c-4.6,0-7.4,3.4-7.4,9S37,62.9,41.6,62.9z"/>
		<path d="M41.6,64c-5.3,0-8.6-3.9-8.6-10.1c0-6.2,3.3-10.1,8.6-10.1c5.3,0,8.6,3.9,8.6,10.1C50.1,60.1,46.9,64,41.6,64z M41.6,44.3
			c-5,0-8.1,3.6-8.1,9.6c0,6,3,9.6,8.1,9.6c5.1,0,8.1-3.6,8.1-9.6C49.6,47.9,46.6,44.3,41.6,44.3z M41.6,63.2
			c-4.8,0-7.7-3.5-7.7-9.3c0-5.8,2.9-9.3,7.7-9.3c4.7,0,7.7,3.6,7.7,9.3C49.2,59.6,46.3,63.2,41.6,63.2z M41.6,45.1
			c-4.5,0-7.2,3.3-7.2,8.8c0,5.5,2.7,8.8,7.2,8.8c4.5,0,7.2-3.3,7.2-8.8C48.7,48.4,46.1,45.1,41.6,45.1z"/>
		<path d="M65.9,63.3V46L54.1,63.3h-0.9V44.5h0.9v17.3l11.8-17.3h0.9v18.8H65.9z"/>
		<path d="M67,63.6h-1.4V46.8L54.2,63.6h-1.3V44.2h1.4V61l11.4-16.8H67V63.6z M66.1,63.1h0.4V44.7H66L53.8,62.6V44.7h-0.4v18.3h0.5
			l12.2-17.9V63.1z"/>
		<path d="M75,53.2h1.1c4.1,0,5.7-1.9,5.7-4.2c0-2.7-2.5-4.1-5.2-4.1c-3.1,0-5.5,2-5.7,4.7h-0.8c0.2-3.1,2.8-5.5,6.4-5.5
			c3.8,0,6.1,1.7,6.1,4.9c0,2.1-1.4,4.2-3.9,4.5c2.9,0.4,4.7,2.4,4.7,4.9c0,3.9-3.1,5.4-6.7,5.4c-4.1,0-6.9-2.3-7.1-6.2h0.9
			c0.2,3.3,2.7,5.4,6.1,5.4c3,0,5.9-1.1,5.9-4.6c0-2.8-2.4-4.5-6.5-4.5h-1V53.2z"/>
		<path d="M76.8,64c-4.3,0-7.1-2.5-7.3-6.4l0-0.3h1.4l0,0.2c0.2,3.1,2.5,5.1,5.8,5.1c2.1,0,5.7-0.6,5.7-4.3c0-2.6-2.3-4.2-6.2-4.2
			h-1.3v-1.2h1.3c3.5,0,5.5-1.4,5.5-4c0-2.7-2.5-3.8-5-3.8c-3,0-5.3,1.9-5.4,4.5l0,0.2h-1.3l0-0.3c0.2-3.3,3-5.8,6.7-5.8
			c4,0,6.4,1.9,6.4,5.2c0,1.7-0.9,3.7-3,4.4c2.3,0.7,3.8,2.5,3.8,4.9C83.7,61.9,81.2,64,76.8,64z M69.9,57.8
			c0.3,3.6,2.8,5.7,6.8,5.7c1.9,0,6.5-0.5,6.5-5.1c0-2.4-1.7-4.3-4.4-4.6l-2-0.3l2-0.2c2.5-0.3,3.7-2.4,3.7-4.2c0-3-2.1-4.7-5.9-4.7
			c-3.3,0-5.9,2.1-6.2,5h0.3c0.3-2.7,2.8-4.7,5.9-4.7c2.7,0,5.5,1.3,5.5,4.3c0,1.3-0.6,4.5-6,4.5h-0.8v0.2h0.8
			c4.2,0,6.7,1.8,6.7,4.7c0,3.1-2.3,4.8-6.2,4.8c-3.5,0-6-2.1-6.3-5.4H69.9z"/>
		<path d="M86.6,44.5h5.1c2.1,0,3.7,0.1,4.9,0.8c1.3,0.8,2,2.1,2,3.8c0,2-1.1,3.7-3.6,4.3c3.1,0.3,4.6,2.1,4.6,4.8
			c0,1.8-0.8,3.3-2.1,4.1c-1.3,0.8-2.9,0.9-5.1,0.9h-5.7V44.5z M91.8,53.2c3.9,0,5.9-1.2,5.9-4.1c0-3-2-3.8-5.9-3.8h-4.3v7.9H91.8z
			 M92.1,62.5c1.8,0,3.1,0,4.2-0.5c1.4-0.6,2.3-2,2.3-3.9c0-3.1-2.1-4.3-6.5-4.3h-4.7v8.6H92.1z"/>
		<path d="M92.3,63.6h-6V44.2h5.4c2.2,0,3.8,0.1,5,0.9c1.4,0.8,2.1,2.3,2.1,4c0,2-1,3.5-2.8,4.2c2.4,0.6,3.7,2.3,3.7,4.9
			c0,1.8-0.8,3.5-2.2,4.3C96.3,63.4,94.6,63.6,92.3,63.6z M86.8,63.1h5.5c2.3,0,3.8-0.1,5-0.9c1.3-0.8,2-2.2,2-3.9
			c0-2.7-1.5-4.4-4.4-4.6l-1.6-0.1l1.6-0.4c2.2-0.5,3.4-2,3.4-4.1c0-1.6-0.7-2.9-1.9-3.6c-1.1-0.7-2.6-0.8-4.7-0.8h-4.9V63.1z
			 M92.1,62.8h-4.9v-9.1h4.9c4.7,0,6.7,1.4,6.7,4.5c0,2-0.9,3.5-2.5,4.1C95.3,62.7,93.9,62.8,92.1,62.8z M87.7,62.3h4.4
			c1.8,0,3.1,0,4.1-0.4c1.4-0.6,2.1-1.9,2.1-3.7c0-2.8-1.9-4-6.2-4h-4.4V62.3z M91.8,53.4h-4.6V45h4.6c3.7,0,6.2,0.7,6.2,4.1
			C98,52.1,96,53.4,91.8,53.4z M87.7,52.9h4.1c3.9,0,5.6-1.2,5.6-3.8c0-2.6-1.5-3.6-5.7-3.6h-4.1V52.9z"/>
		<path d="M110.2,44.1c5.2,0,8.3,3.7,8.3,9.8c0,6.1-3.2,9.8-8.3,9.8c-5.2,0-8.3-3.7-8.3-9.8C101.9,47.8,105.1,44.1,110.2,44.1z
			 M110.2,62.9c4.6,0,7.4-3.4,7.4-9s-2.8-9-7.4-9c-4.6,0-7.4,3.4-7.4,9S105.6,62.9,110.2,62.9z"/>
		<path d="M110.2,64c-5.3,0-8.6-3.9-8.6-10.1c0-6.2,3.3-10.1,8.6-10.1c5.3,0,8.6,3.9,8.6,10.1C118.8,60.1,115.5,64,110.2,64z
			 M110.2,44.3c-5,0-8.1,3.6-8.1,9.6c0,6,3,9.6,8.1,9.6c5.1,0,8.1-3.6,8.1-9.6C118.3,47.9,115.3,44.3,110.2,44.3z M110.2,63.2
			c-4.8,0-7.7-3.5-7.7-9.3c0-5.8,2.9-9.3,7.7-9.3c4.7,0,7.7,3.6,7.7,9.3C117.9,59.6,115,63.2,110.2,63.2z M110.2,45.1
			c-4.5,0-7.2,3.3-7.2,8.8c0,5.5,2.7,8.8,7.2,8.8c4.5,0,7.2-3.3,7.2-8.8C117.4,48.4,114.7,45.1,110.2,45.1z"/>
		<path d="M121,62.5c1.4-1.8,2-3.9,2-9.4v-8.6h11.6v18h1.8v5.4h-0.8v-4.6h-15.3v4.6h-0.9v-5.4H121z M123.9,45.3v8.9
			c0,3.7-0.7,6.8-1.9,8.3h11.8V45.3H123.9z"/>
		<path d="M136.7,68.1h-1.3v-4.6h-14.8v4.6h-1.4v-5.9h1.6c1.2-1.7,1.9-3.7,1.9-9.1v-8.8h12.1v18h1.8V68.1z M135.9,67.6h0.3v-4.9
			h-1.8v-18h-11.1v8.3c0,5.7-0.7,7.8-2.1,9.6l-0.1,0.1h-1.3v4.9h0.4v-4.6h15.8V67.6z M134,62.8h-12.5l0.3-0.4
			c1.1-1.4,1.8-4.4,1.8-8.1V45H134V62.8z M122.5,62.3h11V45.5h-9.4v8.7C124.2,57.7,123.5,60.7,122.5,62.3z"/>
		<path d="M145.8,63.7c-4.9,0-7.8-3.6-7.8-9.8c0-6.3,3.1-9.9,8-9.9c3.8,0,6.7,2.4,7.1,5.9h-0.9c-0.5-3.2-2.8-5.1-6.3-5.1
			c-4.1,0-6.9,3.3-6.9,9.1c0,5.7,2.7,9,6.8,9c3.8,0,6.3-2.2,6.6-5.9h0.9C152.9,61.1,150,63.7,145.8,63.7z"/>
		<path d="M145.8,64c-5.1,0-8.1-3.7-8.1-10c0-6.3,3.1-10.1,8.2-10.1c3.9,0,6.9,2.5,7.3,6.1l0,0.3H152l0-0.2
			c-0.5-3.1-2.7-4.9-6.1-4.9c-4.1,0-6.7,3.4-6.7,8.8c0,5.5,2.4,8.7,6.5,8.7c3.7,0,6.1-2.2,6.3-5.6l0-0.2h1.4l0,0.3
			C153.1,61.3,150.2,64,145.8,64z M146,44.3c-4.8,0-7.7,3.6-7.7,9.6c0,6,2.8,9.5,7.6,9.5c4,0,6.7-2.3,7-6.1h-0.4
			c-0.3,3.6-2.9,5.9-6.8,5.9c-4.3,0-7-3.5-7-9.2c0-5.7,2.8-9.3,7.2-9.3c3.5,0,5.9,1.8,6.6,5.1h0.4C152.3,46.5,149.6,44.3,146,44.3z"
			/>
		<path d="M160.2,45.3h-6v-0.8h12.7v0.8h-5.9v18h-0.9V45.3z"/>
		<path d="M161.3,63.6h-1.4v-18h-6v-1.3h13.2v1.3h-5.9V63.6z M160.4,63.1h0.4v-18h5.9v-0.3h-12.2v0.3h6V63.1z"/>
		<path d="M169.5,44.5h5.1c2.1,0,3.7,0.1,4.9,0.8c1.3,0.8,2,2.1,2,3.8c0,2-1.1,3.7-3.6,4.3c3.1,0.3,4.6,2.1,4.6,4.8
			c0,1.8-0.8,3.3-2.1,4.1c-1.3,0.8-2.9,0.9-5.1,0.9h-5.7V44.5z M174.8,53.2c3.9,0,5.9-1.2,5.9-4.1c0-3-2-3.8-5.9-3.8h-4.3v7.9H174.8
			z M175,62.5c1.8,0,3.1,0,4.2-0.5c1.5-0.6,2.3-2,2.3-3.9c0-3.1-2.1-4.3-6.5-4.3h-4.7v8.6H175z"/>
		<path d="M175.2,63.6h-6V44.2h5.4c2.2,0,3.8,0.1,5,0.9c1.4,0.8,2.1,2.3,2.1,4c0,2-1,3.5-2.8,4.2c2.4,0.6,3.7,2.3,3.7,4.9
			c0,1.8-0.8,3.5-2.2,4.3C179.2,63.4,177.6,63.6,175.2,63.6z M169.7,63.1h5.5c2.3,0,3.8-0.1,5-0.9c1.3-0.8,2-2.2,2-3.9
			c0-2.7-1.5-4.4-4.4-4.6l-1.6-0.1l1.6-0.4c2.2-0.5,3.4-2,3.4-4.1c0-1.6-0.7-2.9-1.9-3.6c-1.1-0.7-2.6-0.8-4.7-0.8h-4.9V63.1z
			 M175,62.8h-4.9v-9.1h4.9c4.7,0,6.7,1.4,6.7,4.5c0,2-0.9,3.5-2.5,4.1C178.2,62.7,176.9,62.8,175,62.8z M170.6,62.3h4.4
			c1.8,0,3.1,0,4.1-0.4c1.4-0.6,2.1-1.9,2.1-3.7c0-2.8-1.9-4-6.2-4h-4.4V62.3z M174.8,53.4h-4.6V45h4.6c3.7,0,6.2,0.7,6.2,4.1
			C180.9,52.1,178.9,53.4,174.8,53.4z M170.6,52.9h4.1c3.9,0,5.6-1.2,5.6-3.8c0-2.6-1.5-3.6-5.7-3.6h-4.1V52.9z"/>
		<path d="M193.2,44.1c5.2,0,8.3,3.7,8.3,9.8c0,6.1-3.2,9.8-8.3,9.8c-5.2,0-8.3-3.7-8.3-9.8C184.9,47.8,188,44.1,193.2,44.1z
			 M193.2,62.9c4.6,0,7.4-3.4,7.4-9s-2.8-9-7.4-9c-4.6,0-7.4,3.4-7.4,9S188.6,62.9,193.2,62.9z"/>
		<path d="M193.2,64c-5.3,0-8.6-3.9-8.6-10.1c0-6.2,3.3-10.1,8.6-10.1c5.3,0,8.6,3.9,8.6,10.1C201.8,60.1,198.5,64,193.2,64z
			 M193.2,44.3c-5,0-8.1,3.6-8.1,9.6c0,6,3,9.6,8.1,9.6c5.1,0,8.1-3.6,8.1-9.6C201.3,47.9,198.2,44.3,193.2,44.3z M193.2,63.2
			c-4.8,0-7.7-3.5-7.7-9.3c0-5.8,2.9-9.3,7.7-9.3c4.7,0,7.7,3.6,7.7,9.3C200.8,59.6,197.9,63.2,193.2,63.2z M193.2,45.1
			c-4.5,0-7.2,3.3-7.2,8.8c0,5.5,2.7,8.8,7.2,8.8c4.5,0,7.2-3.3,7.2-8.8C200.3,48.4,197.7,45.1,193.2,45.1z"/>
		<path d="M224.6,63.3V46l-11.8,17.3h-0.9V44.5h0.9v17.3l11.8-17.3h0.9v18.8H224.6z"/>
		<path d="M225.8,63.6h-1.4V46.8l-11.4,16.7h-1.3V44.2h1.4V61l11.4-16.8h1.3V63.6z M224.9,63.1h0.4V44.7h-0.5l-12.2,17.9V44.7h-0.4
			v18.3h0.5l12.2-17.9V63.1z"/>
		<path d="M234,45.3h-6v-0.8h12.7v0.8h-5.9v18H234V45.3z"/>
		<path d="M235.2,63.6h-1.4v-18h-6v-1.3H241v1.3h-5.9V63.6z M234.3,63.1h0.4v-18h5.9v-0.3h-12.2v0.3h6V63.1z"/>
		<path d="M246.5,44.5h1l7.1,18.8h-0.9l-2.4-6.4h-8.8l-2.5,6.4h-0.9L246.5,44.5z M251,56.1l-4-10.6l-4.1,10.6H251z"/>
		<path d="M255,63.6h-1.4l-2.4-6.4h-8.4l-2.5,6.4h-1.4l0.1-0.3l7.3-19h1.3l0.1,0.2L255,63.6z M253.9,63.1h0.3l-7-18.3h-0.6
			l-7.1,18.3h0.3l2.5-6.4h9.1L253.9,63.1z M251.4,56.4h-8.9l4.5-11.5L251.4,56.4z M243.2,55.9h7.4l-3.7-9.6L243.2,55.9z"/>
		<path d="M256.8,62.4c2.3,0,2.7-4.8,2.7-9.3v-8.6h11.8v18.8h-0.9v-18h-10.1v8.9c0,3.8-0.5,9.1-3.5,9.1c-0.5,0-0.8-0.1-1.1-0.1v-0.9
			C256.1,62.4,256.3,62.4,256.8,62.4z"/>
		<path d="M271.6,63.6h-1.4v-18h-9.6v8.7c0,4.3-0.7,9.3-3.8,9.3c-0.3,0-0.6,0-0.8,0c-0.1,0-0.2,0-0.3,0l-0.2,0v-1.4l0.3,0
			c0.1,0,0.3,0,0.4,0c0.2,0,0.4,0.1,0.7,0.1c2.2,0,2.4-5.2,2.4-9.1v-8.9h12.3V63.6z M270.7,63.1h0.4V44.7h-11.3v8.4
			c0,4.7-0.3,9.6-2.9,9.6c-0.3,0-0.6,0-0.8-0.1c0,0-0.1,0-0.1,0V63c0,0,0.1,0,0.1,0c0.2,0,0.5,0,0.8,0c2.8,0,3.3-5.5,3.3-8.8V45
			h10.6V63.1z"/>
		<path d="M288.1,63.3V46l-11.8,17.3h-0.9V44.5h0.9v17.3L288,44.5h0.9v18.8H288.1z"/>
		<path d="M289.2,63.6h-1.4V46.8l-11.4,16.7h-1.3V44.2h1.4V61l11.4-16.8h1.3V63.6z M288.3,63.1h0.4V44.7h-0.5L276,62.6V44.7h-0.4
			v18.3h0.5l12.2-17.9V63.1z"/>
		<path d="M303.7,44.5v18.8h-0.9v-8.7h-5.6l-4.5,8.7h-1l4.6-8.8c-2.7-0.4-4.5-1.8-4.5-5c0-3.4,2.2-5,6.8-5H303.7z M298.6,45.3
			c-3.3,0-5.9,0.7-5.9,4.1c0,3.6,2.3,4.5,5.4,4.5h4.7v-8.5H298.6z"/>
		<path d="M304,63.6h-1.4v-8.7h-5.2l-4.5,8.7h-1.6l4.7-8.9c-2.9-0.6-4.4-2.3-4.4-5.2c0-3.5,2.3-5.2,7-5.2h5.4V63.6z M303.1,63.1h0.4
			V44.7h-4.9c-4.4,0-6.5,1.5-6.5,4.7c0,2.8,1.4,4.3,4.3,4.8l0.3,0.1l-4.6,8.7h0.5l4.5-8.7h6V63.1z M303.1,54.1h-5
			c-2.6,0-5.6-0.5-5.6-4.7c0-3.8,3.3-4.3,6.2-4.3h4.4V54.1z M298.6,45.5c-4,0-5.7,1.1-5.7,3.8c0,2.9,1.5,4.2,5.1,4.2h4.5v-8H298.6z"
			/>
	</g>
</g>
</svg>
