<?xml version="1.0" encoding="utf-8"?>
<!-- Generator: Adobe Illustrator 19.1.0, SVG Export Plug-In . SVG Version: 6.00 Build 0)  -->
<svg version="1.1" id="Layer_1" xmlns="http://www.w3.org/2000/svg" xmlns:xlink="http://www.w3.org/1999/xlink" x="0px" y="0px"
	 width="128px" height="25px" viewBox="0 0 128 25" style="enable-background:new 0 0 128 25;" xml:space="preserve">
<g>
	<g>
		<path d="M20.9,18.9H0.8V1h0.9v17.2h8.8V1h0.8v17.2h8.8V1h0.9V18.9z"/>
		<path d="M21.1,19.1H0.6V0.8h1.3v17.2h8.4V0.8h1.2v17.2h8.4V0.8h1.3V19.1z M1,18.7h19.7V1.2h-0.5v17.2h-9.2V1.2h-0.4v17.2H1.5V1.2
			H1V18.7z"/>
	</g>
	<g>
		<path d="M26.6,12.2c0,3.4-0.2,6.9-2.6,6.8h-0.8v-0.7h0.6c1.8,0,1.9-3,1.9-6.1V6h8.5v12.9h-0.8V6.7h-6.9V12.2z"/>
		<path d="M24.1,19.2C24.1,19.2,24.1,19.2,24.1,19.2h-1v-1.1h0.8c1.6,0,1.7-3.1,1.7-5.9V5.8h8.9v13.3h-1.2V6.9h-6.5v5.3
			c0,2.6-0.1,5.3-1.3,6.4C25.2,19,24.7,19.2,24.1,19.2z M23.5,18.8H24c0,0,0,0,0,0c0.5,0,0.9-0.2,1.2-0.5c1.1-1,1.2-3.7,1.2-6.2V6.5
			h7.3v12.2h0.4V6.2H26v6.1c0,3.2-0.2,6.3-2.1,6.3h-0.4V18.8z"/>
	</g>
	<g>
		<path d="M37.5,9.6c0.1-2.4,1.9-3.9,4.9-3.9c1.8,0,3.1,0.5,3.8,1.5c0.5,0.8,0.6,1.6,0.6,2.7v6.3c0,1.6,0,2,1.1,2h0.5v0.7h-0.7
			c-1.3,0-1.7-0.6-1.7-2.2c-1,1.6-2.9,2.5-5.2,2.5c-2.3,0-3.8-1.5-3.8-3.6c0-2.4,1.7-3.4,5.2-3.9c2.6-0.4,3.9-0.2,3.9-1.5V9.1
			c0-1.8-1.2-2.7-3.5-2.7c-2.6,0-4.1,1.2-4.3,3.2H37.5z M42.7,12.3c-3.3,0.4-4.9,1.1-4.9,3.2c0,1.9,1.2,3,3.3,3
			c1.5,0,2.8-0.5,3.7-1.3c1.1-1,1.3-2,1.3-3.8v-1.9C45.7,12,44.6,12,42.7,12.3z"/>
		<path d="M40.8,19.4c-2.4,0-4-1.5-4-3.8c0-2.8,2.1-3.6,5.3-4.1c0.5-0.1,0.9-0.1,1.3-0.2c1.8-0.2,2.4-0.3,2.4-1.1V9.1
			c0-2.1-1.8-2.5-3.3-2.5c-2.5,0-3.9,1.1-4.1,3l0,0.2h-1.1l0-0.2c0.1-2.5,2.1-4.1,5.1-4.1c1.9,0,3.2,0.6,3.9,1.6
			C47,7.9,47,8.8,47,9.8v6.3c0,1.7,0.1,1.8,0.9,1.8h0.7v1.1h-0.9c-1.2,0-1.8-0.5-1.9-1.8C44.7,18.6,42.9,19.4,40.8,19.4z M42.5,6.2
			c2.4,0,3.7,1,3.7,2.9v1.1c0,1.2-1,1.3-2.7,1.5c-0.4,0-0.8,0.1-1.3,0.2c-3.6,0.5-5,1.5-5,3.7c0,2.1,1.5,3.4,3.6,3.4
			c2.2,0,4-0.9,5-2.4l0.4-0.6v0.7c0,1.5,0.4,2,1.5,2h0.5v-0.3h-0.3c-1.3,0-1.3-0.8-1.3-2.2V9.8c0-1,0-1.8-0.5-2.5
			c-0.6-0.9-1.9-1.4-3.6-1.4c-2.7,0-4.5,1.3-4.7,3.5h0.3C38.3,7.3,39.9,6.2,42.5,6.2z M41,18.6c-2.2,0-3.5-1.2-3.5-3.2
			c0-2.3,1.9-3,5.1-3.4h0l0.6-0.1c1.4-0.2,2.3-0.3,2.6-0.6l0.4-0.5v2.5c0,1.8-0.2,2.9-1.4,3.9C43.9,18.2,42.5,18.6,41,18.6z
			 M42.7,12.5c-3.5,0.4-4.7,1.2-4.7,3c0,1.8,1.1,2.8,3.1,2.8c1.3,0,2.6-0.4,3.6-1.2c1-0.9,1.2-1.9,1.2-3.6v-1.5
			c-0.5,0.2-1.3,0.3-2.5,0.5L42.7,12.5z"/>
	</g>
	<g>
		<path d="M50.6,5.9h8.8v0.7h-8v12.2h-0.8V5.9z"/>
		<path d="M51.6,19.1h-1.2V5.7h9.2v1.1h-8V19.1z M50.8,18.7h0.4V6.4h8V6.1h-8.4V18.7z"/>
	</g>
	<g>
		<path d="M60.8,12.2c0-3.1,0.3-5.5,1.4-7.2c0.9-1.4,2.5-2.3,4.4-2.6c2.3-0.4,3.5-0.2,3.8-1.4h0.7c-0.4,1.6-1.3,1.5-4.4,2
			c-3.4,0.5-4.8,2.7-5.2,6.6h0.2c0.2-0.5,0.5-1.1,0.8-1.5c1.1-1.3,2.8-1.9,4.1-1.9c3.3,0,5.5,2.3,5.5,6.2c0,4.2-2.2,6.8-5.7,6.8
			C63.4,19.2,60.8,17,60.8,12.2z M71.4,12.4c0-3.5-2-5.5-4.7-5.5c-2.3,0-5.1,1.5-5.1,5.5c0,4.2,2.3,6,4.9,6
			C69.4,18.5,71.4,16.3,71.4,12.4z"/>
		<path d="M66.5,19.4c-2.8,0-5.9-1.9-5.9-7.2c0-3.6,0.4-5.8,1.4-7.4c0.9-1.4,2.4-2.3,4.5-2.7C67.2,2,67.7,2,68.1,1.9
			c1.4-0.2,1.9-0.3,2.1-1l0-0.2h1.1L71.3,1c-0.4,1.5-1.3,1.7-3.6,2c-0.3,0-0.6,0.1-1,0.1c-3,0.4-4.5,2.2-4.9,5.8
			C62,8.6,62.2,8.3,62.4,8c1.2-1.4,3-1.9,4.3-1.9c3.5,0,5.7,2.5,5.7,6.4C72.4,16.7,70.1,19.4,66.5,19.4z M70.6,1.2
			c-0.3,0.9-1.1,1-2.4,1.1c-0.5,0.1-1,0.1-1.6,0.2c-2,0.4-3.4,1.2-4.3,2.5C61.4,6.5,61,8.7,61,12.2c0,3.3,1.4,6.8,5.5,6.8
			c3.4,0,5.5-2.5,5.5-6.6c0-3.7-2-6-5.3-6c-1.2,0-2.9,0.5-4,1.8c-0.3,0.4-0.6,0.9-0.8,1.4l0,0.1c0.9-2.1,2.8-3.1,4.8-3.1
			c2.9,0,4.9,2.3,4.9,5.7c0,3.8-2,6.2-5.1,6.2c-2.5,0-5.1-1.6-5.1-6.2c0-1,0.2-1.9,0.5-2.7h-0.6l0-0.2c0.4-4.2,2-6.3,5.3-6.8
			c0.4-0.1,0.7-0.1,1-0.1c2.2-0.3,2.9-0.4,3.2-1.4H70.6z M66.7,7.1c-2.4,0-4.9,1.7-4.9,5.3c0,4.3,2.4,5.8,4.7,5.8
			c2.9,0,4.7-2.2,4.7-5.8C71.2,9.2,69.4,7.1,66.7,7.1z"/>
	</g>
	<g>
		<path d="M74.5,9.6c0.1-2.4,1.9-3.9,4.9-3.9c1.8,0,3.1,0.5,3.8,1.5c0.5,0.8,0.6,1.6,0.6,2.7v6.3c0,1.6,0,2,1.1,2h0.5v0.7h-0.7
			c-1.3,0-1.7-0.6-1.7-2.2c-1,1.6-2.9,2.5-5.2,2.5c-2.3,0-3.8-1.5-3.8-3.6c0-2.4,1.7-3.4,5.2-3.9c2.6-0.4,3.9-0.2,3.9-1.5V9.1
			c0-1.8-1.2-2.7-3.5-2.7c-2.6,0-4.1,1.2-4.3,3.2H74.5z M79.7,12.3c-3.3,0.4-4.9,1.1-4.9,3.2c0,1.9,1.2,3,3.3,3
			c1.5,0,2.8-0.5,3.7-1.3c1.1-1,1.3-2,1.3-3.8v-1.9C82.6,12,81.5,12,79.7,12.3z"/>
		<path d="M77.8,19.4c-2.4,0-4-1.5-4-3.8c0-2.8,2.1-3.6,5.3-4.1c0.5-0.1,0.9-0.1,1.3-0.2c1.8-0.2,2.4-0.3,2.4-1.1V9.1
			c0-2.1-1.8-2.5-3.3-2.5c-2.5,0-3.9,1.1-4.1,3l0,0.2h-1.1l0-0.2c0.1-2.5,2.1-4.1,5.1-4.1c1.9,0,3.2,0.6,3.9,1.6
			C83.9,7.9,84,8.8,84,9.8v6.3c0,1.7,0.1,1.8,0.9,1.8h0.7v1.1h-0.9c-1.2,0-1.8-0.5-1.9-1.8C81.7,18.6,79.9,19.4,77.8,19.4z
			 M79.5,6.2c2.4,0,3.7,1,3.7,2.9v1.1c0,1.2-1,1.3-2.7,1.5c-0.4,0-0.8,0.1-1.3,0.2c-3.6,0.5-5,1.5-5,3.7c0,2.1,1.5,3.4,3.6,3.4
			c2.2,0,4-0.9,5-2.4l0.4-0.6v0.7c0,1.5,0.4,2,1.5,2h0.5v-0.3h-0.3c-1.3,0-1.3-0.8-1.3-2.2V9.8c0-1,0-1.8-0.5-2.5
			c-0.6-0.9-1.9-1.4-3.6-1.4c-2.7,0-4.5,1.3-4.7,3.5h0.3C75.3,7.3,76.9,6.2,79.5,6.2z M78,18.6c-2.2,0-3.5-1.2-3.5-3.2
			c0-2.3,1.9-3,5.1-3.4h0l0.6-0.1c1.4-0.2,2.3-0.3,2.6-0.6l0.4-0.5v2.5c0,1.8-0.2,2.9-1.4,3.9C80.8,18.2,79.5,18.6,78,18.6z
			 M79.7,12.5c-3.5,0.4-4.7,1.2-4.7,3c0,1.8,1.1,2.8,3.1,2.8c1.3,0,2.6-0.4,3.6-1.2c1-0.9,1.2-1.9,1.2-3.6v-1.5
			c-0.5,0.2-1.3,0.3-2.5,0.5L79.7,12.5z"/>
	</g>
	<g>
		<path d="M87.6,24h-0.9v-0.7h0.9c0.8,0,1.3-0.5,1.7-1.5l1.1-2.8l-4.8-13h0.8l4.5,12l4.5-12h0.8l-5.6,14.9C89.7,23,89,24,87.6,24z"
			/>
		<path d="M87.6,24.2h-1.1v-1.1h1.1c0.7,0,1.1-0.4,1.5-1.4l1.1-2.8L85.3,5.7h1.2l4.3,11.6l4.3-11.6h1.3L96.3,6l-5.6,14.9
			C89.9,23.1,89.2,24.2,87.6,24.2z M86.9,23.8h0.7c1.2,0,1.8-0.8,2.7-3.1l5.5-14.6h-0.4l-4.6,12.4L86.2,6.1h-0.3L90.6,19l-1.1,2.9
			c-0.3,0.8-0.8,1.7-1.9,1.7h-0.7V23.8z"/>
	</g>
	<g>
		<path d="M104.8,17.6l5.7-11.7h0.8v12.9h-0.8V7.4l-5.3,11h-0.8l-5.3-11v11.5h-0.8V5.9h0.8L104.8,17.6z"/>
		<path d="M111.5,19.1h-1.2V8.3l-5,10.4h-1l-0.1-0.1L99.3,8.3v10.8h-1.2V5.7h1.1l5.6,11.4l5.5-11.4h1.1V19.1z M110.7,18.7h0.4V6.1
			h-0.5L104.8,18L99,6.1h-0.5v12.5h0.4V6.5l5.6,11.7h0.5l5.6-11.7V18.7z"/>
	</g>
	<g>
		<path d="M123.5,15.3c0,2.2-1.7,3.6-4,3.6h-4.9V5.9h0.8v5.8h3.2C122.1,11.7,123.5,12.8,123.5,15.3z M115.4,18.2h3.8
			c2.1,0,3.5-1,3.5-2.9c0-2-1.4-2.8-4.3-2.8h-3V18.2z M126.4,5.9h0.8v12.9h-0.8V5.9z"/>
		<path d="M127.4,19.1h-1.2V5.7h1.2V19.1z M126.6,18.7h0.4V6.1h-0.4V18.7z M119.5,19.1h-5.1V5.7h1.2v5.8h3c3.6,0,5.2,1.2,5.2,3.7
			C123.7,17.5,122,19.1,119.5,19.1z M114.8,18.7h4.7c2.3,0,3.8-1.4,3.8-3.4c0-2.3-1.4-3.3-4.8-3.3h-3.4V6.1h-0.4V18.7z M119.3,18.4
			h-4v-6.1h3.2c3.2,0,4.5,0.9,4.5,3C122.9,17.2,121.5,18.4,119.3,18.4z M115.6,18h3.6c2.1,0,3.3-1,3.3-2.7c0-1.9-1.2-2.6-4.1-2.6
			h-2.8V18z"/>
	</g>
</g>
</svg>
