<?xml version="1.0" encoding="utf-8"?>
<!-- Generator: Adobe Illustrator 19.1.0, SVG Export Plug-In . SVG Version: 6.00 Build 0)  -->
<svg version="1.1" id="Layer_1" xmlns="http://www.w3.org/2000/svg" xmlns:xlink="http://www.w3.org/1999/xlink" x="0px" y="0px"
	 width="235px" height="52px" viewBox="0 0 235 52" style="enable-background:new 0 0 235 52;" xml:space="preserve">
<g>
	<g>
		<path d="M7.6,1h0.9L15.4,19h-0.8l-2.3-6.1H3.9L1.5,19H0.7L7.6,1z M11.9,12.1L8.1,2L4.2,12.1H11.9z"/>
		<path d="M15.7,19.2h-1.2L12.1,13H4l-2.3,6.1H0.4L7.5,0.8h1.2l0,0.1L15.7,19.2z M14.7,18.8h0.4L8.4,1.2H7.8L1,18.8h0.4l2.3-6.1h8.6
			L14.7,18.8z M12.2,12.3H3.9L8.1,1.5L12.2,12.3z M4.5,11.9h7.2L8.1,2.6L4.5,11.9z"/>
	</g>
	<g>
		<path d="M20.8,6C23.2,6,25,7,25,9.2c0,1.4-0.8,2.7-3,3c2.1,0.2,3.6,1.5,3.6,3.2c0,2.2-1.7,3.6-4,3.6h-5.2V6H20.8z M17.2,11.8h3.2
			c2.1,0,3.8-0.7,3.8-2.6c0-1.4-1.2-2.4-3.7-2.4h-3.3V11.8z M21.3,18.2c2.4,0,3.5-1,3.5-2.9c0-2-2.6-2.9-4.5-2.9h-3.2v5.8H21.3z"/>
		<path d="M21.6,19.2h-5.4V5.8h4.6c2.8,0,4.3,1.2,4.3,3.4c0,0.9-0.3,2.3-2.2,3c1.8,0.5,2.9,1.7,2.9,3.3
			C25.8,17.6,24.1,19.2,21.6,19.2z M16.6,18.8h5c2.3,0,3.8-1.4,3.8-3.4c0-1.6-1.4-2.8-3.5-3l-1.6-0.2l1.6-0.2
			c2.3-0.3,2.8-1.7,2.8-2.8c0-2.6-2.5-3-3.9-3h-4.2V18.8z M21.3,18.4H17v-6.2h3.4c1.8,0,4.7,0.8,4.7,3.1
			C25,17.4,23.8,18.4,21.3,18.4z M17.4,18h3.9c2.2,0,3.3-0.9,3.3-2.7c0-1.9-2.6-2.7-4.3-2.7h-3V18z M20.3,12H17V6.5h3.5
			c2.4,0,3.9,1,3.9,2.6C24.3,11,22.9,12,20.3,12z M17.4,11.6h3c1.3,0,3.6-0.3,3.6-2.4c0-1.4-1.3-2.2-3.5-2.2h-3.1V11.6z"/>
	</g>
	<g>
		<path d="M31.6,19V6.7h-5.3V6h11.4v0.7h-5.3V19H31.6z"/>
		<path d="M32.6,19.2h-1.2V6.9h-5.3V5.8h11.8v1.1h-5.3V19.2z M31.8,18.8h0.4V6.5h5.3V6.2h-11v0.3h5.3V18.8z"/>
	</g>
	<g>
		<path d="M44.3,5.7c3.5,0,5.7,2.5,5.7,6.8c0,4.2-2.2,6.8-5.7,6.8s-5.7-2.5-5.7-6.8C38.7,8.3,40.9,5.7,44.3,5.7z M44.3,18.6
			c3,0,4.9-2.2,4.9-6.1c0-3.8-1.9-6.1-4.9-6.1c-3,0-4.9,2.2-4.9,6.1C39.5,16.3,41.4,18.6,44.3,18.6z"/>
		<path d="M44.3,19.5c-3.6,0-5.9-2.7-5.9-7c0-4.3,2.2-7,5.9-7c3.6,0,5.9,2.7,5.9,7C50.2,16.8,48,19.5,44.3,19.5z M44.3,5.9
			c-3.4,0-5.5,2.5-5.5,6.6c0,4.1,2.1,6.6,5.5,6.6c3.4,0,5.5-2.5,5.5-6.6C49.8,8.4,47.7,5.9,44.3,5.9z M44.3,18.8
			c-3.1,0-5.1-2.4-5.1-6.3c0-3.9,1.9-6.3,5.1-6.3c3.1,0,5.1,2.4,5.1,6.3C49.4,16.4,47.5,18.8,44.3,18.8z M44.3,6.6
			c-2.9,0-4.7,2.2-4.7,5.9c0,3.7,1.7,5.9,4.7,5.9c2.9,0,4.7-2.2,4.7-5.9C49,8.9,47.2,6.6,44.3,6.6z"/>
	</g>
	<g>
		<path d="M59.1,17.7L64.8,6h0.8V19h-0.8V7.5l-5.3,11h-0.8l-5.3-11V19h-0.8V6h0.8L59.1,17.7z"/>
		<path d="M65.8,19.2h-1.2V8.3l-5,10.4h-1l-5-10.4v10.8h-1.2V5.8h1.1l5.6,11.4l5.5-11.4h1.1V19.2z M65,18.8h0.4V6.2h-0.5l-5.8,11.9
			L53.3,6.2h-0.5v12.5h0.4V6.6l5.6,11.7h0.5L65,6.6V18.8z"/>
	</g>
	<g>
		<path d="M68.5,9.7c0.1-2.4,1.9-3.9,4.9-3.9c1.8,0,3.1,0.5,3.8,1.5c0.5,0.8,0.6,1.6,0.6,2.7v6.3c0,1.6,0,2,1.1,2h0.5V19h-0.7
			c-1.3,0-1.7-0.6-1.7-2.2c-1,1.6-2.9,2.5-5.2,2.5c-2.3,0-3.8-1.5-3.8-3.6c0-2.4,1.7-3.4,5.2-3.9c2.6-0.4,3.9-0.2,3.9-1.5V9.2
			c0-1.8-1.2-2.7-3.5-2.7c-2.6,0-4.1,1.2-4.3,3.2H68.5z M73.6,12.4c-3.3,0.4-4.9,1.1-4.9,3.2c0,1.9,1.2,3,3.3,3
			c1.5,0,2.8-0.5,3.7-1.3c1.1-1,1.3-2,1.3-3.8v-1.9C76.6,12.1,75.5,12.1,73.6,12.4z"/>
		<path d="M71.7,19.5c-2.4,0-4-1.5-4-3.8c0-2.8,2.1-3.6,5.3-4.1c0.5-0.1,0.9-0.1,1.3-0.2c1.8-0.2,2.4-0.3,2.4-1.1V9.2
			c0-2.1-1.8-2.5-3.3-2.5c-2.5,0-3.9,1.1-4.1,3l0,0.2h-1.1l0-0.2c0.1-2.5,2.1-4.1,5.1-4.1c1.9,0,3.2,0.6,3.9,1.6
			c0.6,0.8,0.6,1.7,0.6,2.8v6.3c0,1.7,0.1,1.8,0.9,1.8h0.7v1.1h-0.9c-1.2,0-1.8-0.5-1.9-1.8C75.7,18.7,73.9,19.5,71.7,19.5z
			 M73.5,6.3c2.4,0,3.7,1,3.7,2.9v1.1c0,1.2-1,1.3-2.7,1.5c-0.4,0-0.8,0.1-1.3,0.2c-3.6,0.5-5,1.5-5,3.7c0,2.1,1.5,3.4,3.6,3.4
			c2.2,0,4-0.9,5-2.4l0.4-0.6v0.7c0,1.5,0.4,2,1.5,2h0.5v-0.3h-0.3c-1.3,0-1.3-0.8-1.3-2.2V9.9c0-1,0-1.8-0.5-2.5
			c-0.6-0.9-1.9-1.4-3.6-1.4c-2.7,0-4.5,1.3-4.7,3.5H69C69.2,7.4,70.8,6.3,73.5,6.3z M72,18.7c-2.2,0-3.5-1.2-3.5-3.2
			c0-2.3,1.9-3,5.1-3.4l0,0l0.6-0.1c1.4-0.2,2.3-0.3,2.6-0.6l0.4-0.5v2.5c0,1.8-0.2,2.9-1.4,3.9C74.8,18.2,73.4,18.7,72,18.7z
			 M73.6,12.5c-3.5,0.4-4.7,1.2-4.7,3c0,1.8,1.1,2.8,3.1,2.8c1.3,0,2.6-0.4,3.6-1.2c1-0.9,1.2-1.9,1.2-3.6V12
			c-0.5,0.2-1.3,0.3-2.5,0.5L73.6,12.5z"/>
	</g>
	<g>
		<path d="M84.8,19V6.7h-5.3V6h11.4v0.7h-5.3V19H84.8z"/>
		<path d="M85.8,19.2h-1.2V6.9h-5.3V5.8h11.8v1.1h-5.3V19.2z M85,18.8h0.4V6.5h5.3V6.2h-11v0.3H85V18.8z"/>
	</g>
	<g>
		<path d="M92.5,6h0.8v11.7L101.7,6h0.8V19h-0.8V7.3L93.3,19h-0.8V6z"/>
		<path d="M102.7,19.2h-1.2V7.9l-8.1,11.2h-1.1V5.8h1.2v11.2l8.1-11.2h1.1V19.2z M101.9,18.8h0.4V6.2h-0.5l-8.7,12.1V6.2h-0.4v12.5
			h0.5l8.7-12V18.8z"/>
	</g>
	<g>
		<path d="M105.6,6h0.8v7.4l7.5-7.4h1l-4.8,4.7l5.5,8.2h-1l-5.1-7.6l-3.1,3.1V19h-0.8V6z"/>
		<path d="M116,19.2h-1.5l-5-7.5l-2.9,2.9v4.7h-1.2V5.8h1.2V13l7.2-7.2h1.6l-5,4.9L116,19.2z M114.7,18.8h0.5l-5.4-8.1l4.6-4.5H114
			l-7.8,7.7V6.2h-0.4v12.5h0.4v-4.4l3.4-3.3L114.7,18.8z"/>
	</g>
	<g>
		<path d="M116.5,9.7c0.1-2.4,1.9-3.9,4.9-3.9c1.8,0,3.1,0.5,3.8,1.5c0.5,0.8,0.6,1.6,0.6,2.7v6.3c0,1.6,0,2,1.1,2h0.5V19h-0.7
			c-1.3,0-1.7-0.6-1.7-2.2c-1,1.6-2.9,2.5-5.2,2.5c-2.3,0-3.8-1.5-3.8-3.6c0-2.4,1.7-3.4,5.2-3.9c2.6-0.4,3.9-0.2,3.9-1.5V9.2
			c0-1.8-1.2-2.7-3.5-2.7c-2.6,0-4.1,1.2-4.3,3.2H116.5z M121.6,12.4c-3.3,0.4-4.9,1.1-4.9,3.2c0,1.9,1.2,3,3.3,3
			c1.5,0,2.8-0.5,3.7-1.3c1.1-1,1.3-2,1.3-3.8v-1.9C124.6,12.1,123.5,12.1,121.6,12.4z"/>
		<path d="M119.8,19.5c-2.4,0-4-1.5-4-3.8c0-2.8,2.1-3.6,5.3-4.1c0.5-0.1,0.9-0.1,1.3-0.2c1.8-0.2,2.4-0.3,2.4-1.1V9.2
			c0-2.1-1.8-2.5-3.3-2.5c-2.5,0-3.9,1.1-4.1,3l0,0.2h-1.1l0-0.2c0.1-2.5,2.1-4.1,5.1-4.1c1.9,0,3.2,0.6,3.9,1.6
			c0.6,0.8,0.6,1.7,0.6,2.8v6.3c0,1.7,0.1,1.8,0.9,1.8h0.7v1.1h-0.9c-1.2,0-1.8-0.5-1.9-1.8C123.7,18.7,121.9,19.5,119.8,19.5z
			 M121.5,6.3c2.4,0,3.7,1,3.7,2.9v1.1c0,1.2-1,1.3-2.7,1.5c-0.4,0-0.8,0.1-1.3,0.2c-3.6,0.5-5,1.5-5,3.7c0,2.1,1.5,3.4,3.6,3.4
			c2.2,0,4-0.9,5-2.4l0.4-0.6v0.7c0,1.5,0.3,2,1.5,2h0.5v-0.3h-0.3c-1.3,0-1.3-0.8-1.3-2.2V9.9c0-1,0-1.8-0.5-2.5
			c-0.6-0.9-1.9-1.4-3.6-1.4c-2.7,0-4.5,1.3-4.7,3.5h0.3C117.3,7.4,118.9,6.3,121.5,6.3z M120,18.7c-2.2,0-3.5-1.2-3.5-3.2
			c0-2.3,1.9-3,5.1-3.4l0,0l0.6-0.1c1.4-0.2,2.3-0.3,2.6-0.6l0.4-0.5v2.5c0,1.8-0.2,2.9-1.4,3.9C122.8,18.2,121.4,18.7,120,18.7z
			 M121.7,12.5c-3.5,0.4-4.7,1.2-4.7,3c0,1.8,1.1,2.8,3.1,2.8c1.3,0,2.7-0.4,3.6-1.2c1-0.9,1.2-1.9,1.2-3.6V12
			c-0.5,0.2-1.3,0.3-2.5,0.5L121.7,12.5z"/>
	</g>
	<g>
		<path d="M2.4,45.1C3.4,43.7,4,41.7,4,38.6v-5.7h8.3v12.2h1.4v4h-0.8v-3.3H2v3.3H1.2v-4H2.4z M4.8,33.6v5.1c0,3.2-0.6,5.2-1.6,6.5
			h8.3V33.6H4.8z"/>
		<path d="M2.2,49.4H1v-4.4h1.2c1-1.4,1.5-3.5,1.5-6.3v-5.9h8.7v12.2h1.4v4.4h-1.2V46H2.2V49.4z M1.4,49h0.4v-3.3H13v3.3h0.4v-3.6
			H12V33.1H4.2v5.5c0,3-0.5,5.1-1.7,6.6l-0.1,0.1h-1V49z M11.6,45.3H2.8L3,45c1-1.3,1.6-3.4,1.6-6.4v-5.3h7.1V45.3z M3.6,44.9h7.7
			V33.8H5v4.9C5,41.4,4.5,43.6,3.6,44.9z"/>
	</g>
	<g>
		<path d="M17.2,39.2c0,3.4-0.2,6.9-2.6,6.8h-0.8v-0.7h0.6c1.8,0,1.9-3,1.9-6.1v-6.3h8.5v12.9h-0.8V33.6h-6.9V39.2z"/>
		<path d="M14.6,46.2C14.6,46.2,14.6,46.2,14.6,46.2h-1v-1.1h0.8c1.6,0,1.7-3.1,1.7-5.9v-6.5h8.9V46h-1.2V33.8h-6.5v5.3
			c0,2.6-0.1,5.3-1.3,6.4C15.7,46,15.2,46.2,14.6,46.2z M14,45.8h0.6c0.5,0,0.9-0.1,1.2-0.5c1.1-1,1.2-3.7,1.2-6.2v-5.7h7.3v12.2
			h0.4V33.1h-8.1v6.1c0,3.2-0.2,6.3-2.1,6.3H14V45.8z"/>
	</g>
	<g>
		<path d="M31.6,40l-3.9,5.8h-0.9l3.9-5.9c-2.6-0.3-3.7-1.7-3.7-3.5c0-2.6,2-3.5,4.3-3.5H36v12.9h-0.8V40H31.6z M35.2,33.6h-3.9
			c-2.1,0-3.5,0.9-3.5,2.8c0,1.7,1.4,2.9,4.4,2.9h2.9V33.6z"/>
		<path d="M36.2,46H35v-5.8h-3.3L27.8,46h-1.4l4-6c-2.2-0.3-3.6-1.7-3.6-3.7c0-2.4,1.6-3.7,4.5-3.7h4.8V46z M35.4,45.6h0.4V33.1
			h-4.4c-1.5,0-4.1,0.4-4.1,3.3c0,1.9,1.3,3.1,3.5,3.3l0.3,0l-3.9,5.9h0.4l3.9-5.8h3.9V45.6z M35.4,39.5h-3.1
			c-2.9,0-4.6-1.2-4.6-3.1c0-1.9,1.3-3,3.7-3h4.1V39.5z M31.3,33.8c-1.2,0-3.3,0.3-3.3,2.6c0,1.7,1.5,2.7,4.2,2.7H35v-5.3H31.3z"/>
	</g>
	<g>
		<path d="M45.3,32.9h0.8v3c0.8-2.1,2.5-3.3,4.9-3.3c3.5,0,5.7,2.5,5.7,6.8c0,4.2-2.2,6.8-5.7,6.8c-2.4,0-4.1-1.1-4.9-3.2v8h-0.8
			V32.9z M51,45.4c3,0,4.9-2.2,4.9-6.1c0-3.8-1.9-6.1-4.9-6.1s-4.9,2.2-4.9,6.1C46.1,43.2,48,45.4,51,45.4z"/>
		<path d="M46.3,51.2h-1.2V32.7h1.2V35c0.9-1.7,2.5-2.6,4.7-2.6c3.6,0,5.9,2.7,5.9,7c0,4.3-2.3,7-5.9,7c-2.1,0-3.7-0.9-4.7-2.5V51.2
			z M45.5,50.8h0.4v-8.8l0.4,1c0.8,2,2.4,3,4.7,3c3.4,0,5.5-2.5,5.5-6.6c0-4.1-2.1-6.6-5.5-6.6c-2.3,0-3.9,1.1-4.7,3.1l-0.4,1v-3.8
			h-0.4V50.8z M51,45.6c-3.1,0-5.1-2.4-5.1-6.3c0-3.9,1.9-6.3,5.1-6.3c3.1,0,5.1,2.4,5.1,6.3C56.1,43.2,54.1,45.6,51,45.6z M51,33.5
			c-2.9,0-4.7,2.2-4.7,5.9c0,3.7,1.7,5.9,4.7,5.9c2.9,0,4.7-2.2,4.7-5.9C55.7,35.8,53.9,33.5,51,33.5z"/>
	</g>
	<g>
		<path d="M59,36.5c0.1-2.4,1.9-3.9,4.9-3.9c1.8,0,3.1,0.5,3.8,1.5c0.5,0.8,0.6,1.6,0.6,2.7v6.3c0,1.6,0,2,1.1,2h0.5v0.7h-0.7
			c-1.3,0-1.7-0.6-1.7-2.2c-1,1.6-2.9,2.5-5.2,2.5c-2.3,0-3.8-1.5-3.8-3.6c0-2.4,1.7-3.4,5.2-3.9c2.6-0.4,3.9-0.2,3.9-1.5v-1.1
			c0-1.8-1.2-2.7-3.5-2.7c-2.6,0-4.1,1.2-4.3,3.2H59z M64.2,39.2c-3.3,0.4-4.9,1.1-4.9,3.2c0,1.9,1.2,3,3.3,3c1.5,0,2.8-0.5,3.7-1.3
			c1.1-1,1.3-2,1.3-3.8v-1.9C67.2,38.9,66,39,64.2,39.2z"/>
		<path d="M62.3,46.4c-2.4,0-4-1.5-4-3.8c0-2.8,2.1-3.6,5.3-4.1c0.5-0.1,0.9-0.1,1.3-0.2c1.8-0.2,2.4-0.3,2.4-1.1v-1.1
			c0-2.1-1.8-2.5-3.3-2.5c-2.5,0-3.9,1.1-4.1,3l0,0.2h-1.1l0-0.2c0.1-2.5,2.1-4.1,5.1-4.1c1.9,0,3.2,0.6,3.9,1.6
			c0.6,0.8,0.6,1.7,0.6,2.8v6.3c0,1.7,0.1,1.8,0.9,1.8h0.7V46h-0.9c-1.2,0-1.8-0.5-1.9-1.8C66.2,45.6,64.4,46.4,62.3,46.4z M64,33.1
			c2.4,0,3.7,1,3.7,2.9v1.1c0,1.2-1,1.3-2.7,1.5c-0.4,0-0.8,0.1-1.3,0.2c-3.6,0.5-5,1.5-5,3.7c0,2.1,1.5,3.4,3.6,3.4
			c2.2,0,4-0.9,5-2.4l0.4-0.6v0.7c0,1.5,0.4,2,1.5,2h0.5v-0.3h-0.3c-1.3,0-1.3-0.8-1.3-2.2v-6.3c0-1,0-1.8-0.5-2.5
			c-0.6-0.9-1.9-1.4-3.6-1.4c-2.7,0-4.5,1.3-4.7,3.5h0.3C59.8,34.3,61.4,33.1,64,33.1z M62.5,45.6c-2.2,0-3.5-1.2-3.5-3.2
			c0-2.3,1.9-3,5.1-3.4h0l0.6-0.1c1.4-0.2,2.3-0.3,2.6-0.6l0.4-0.5v2.5c0,1.8-0.2,2.9-1.4,3.9C65.4,45.1,64,45.6,62.5,45.6z
			 M64.2,39.4c-3.5,0.4-4.7,1.2-4.7,3c0,1.8,1.1,2.8,3.1,2.8c1.3,0,2.6-0.4,3.6-1.2c1-0.9,1.2-1.9,1.2-3.6v-1.5
			c-0.5,0.2-1.3,0.3-2.5,0.5L64.2,39.4z"/>
	</g>
	<g>
		<path d="M76.7,46.2c-3.4,0-5.6-2.5-5.6-6.8c0-4.2,2.2-6.8,5.7-6.8c2.7,0,4.6,1.5,4.9,4.1h-0.8c-0.3-2.1-1.9-3.4-4.1-3.4
			c-3,0-4.9,2.2-4.9,6.1c0,3.8,1.9,6.1,4.9,6.1c2.2,0,4-1.5,4.3-3.8h0.7C81.5,44.4,79.5,46.2,76.7,46.2z"/>
		<path d="M76.7,46.4c-3.5,0-5.8-2.7-5.8-7c0-4.3,2.2-7,5.9-7c2.8,0,4.7,1.6,5.1,4.2l0,0.2h-1.2l0-0.2c-0.3-2-1.8-3.2-3.9-3.2
			c-2.9,0-4.7,2.2-4.7,5.9c0,3.7,1.7,5.9,4.7,5.9c2.2,0,3.8-1.5,4.1-3.6l0-0.2H82l0,0.2C81.7,44.6,79.6,46.4,76.7,46.4z M76.7,32.8
			c-3.4,0-5.5,2.5-5.5,6.6s2.1,6.6,5.4,6.6c2.7,0,4.5-1.6,4.9-4.1h-0.3c-0.4,2.3-2.1,3.8-4.5,3.8c-3.1,0-5.1-2.4-5.1-6.3
			c0-3.9,1.9-6.3,5.1-6.3c2.2,0,3.9,1.3,4.3,3.4h0.4C81,34.2,79.3,32.8,76.7,32.8z"/>
	</g>
	<g>
		<path d="M84.4,32.9H94v12.9h-0.8V33.6h-8v12.2h-0.8V32.9z"/>
		<path d="M94.2,46H93V33.8h-7.6V46h-1.2V32.7h10V46z M93.4,45.6h0.4V33.1h-9.2v12.5H85V33.4h8.4V45.6z"/>
	</g>
	<g>
		<path d="M96.8,36.5c0.1-2.4,1.9-3.9,4.9-3.9c1.8,0,3.1,0.5,3.8,1.5c0.5,0.8,0.6,1.6,0.6,2.7v6.3c0,1.6,0,2,1.1,2h0.5v0.7H107
			c-1.3,0-1.7-0.6-1.7-2.2c-1,1.6-2.9,2.5-5.2,2.5c-2.3,0-3.8-1.5-3.8-3.6c0-2.4,1.7-3.4,5.2-3.9c2.6-0.4,3.9-0.2,3.9-1.5v-1.1
			c0-1.8-1.2-2.7-3.5-2.7c-2.6,0-4.1,1.2-4.3,3.2H96.8z M102,39.2c-3.3,0.4-4.9,1.1-4.9,3.2c0,1.9,1.2,3,3.3,3
			c1.5,0,2.8-0.5,3.7-1.3c1.1-1,1.3-2,1.3-3.8v-1.9C105,38.9,103.8,39,102,39.2z"/>
		<path d="M100.1,46.4c-2.4,0-4-1.5-4-3.8c0-2.8,2.1-3.6,5.3-4.1c0.5-0.1,0.9-0.1,1.3-0.2c1.8-0.2,2.4-0.3,2.4-1.1v-1.1
			c0-2.1-1.8-2.5-3.3-2.5c-2.5,0-3.9,1.1-4.1,3l0,0.2h-1.1l0-0.2c0.1-2.5,2.1-4.1,5.1-4.1c1.9,0,3.2,0.6,3.9,1.6
			c0.6,0.8,0.6,1.7,0.6,2.8v6.3c0,1.7,0.1,1.8,0.9,1.8h0.7V46H107c-1.2,0-1.8-0.5-1.9-1.8C104,45.6,102.2,46.4,100.1,46.4z
			 M101.8,33.1c2.4,0,3.7,1,3.7,2.9v1.1c0,1.2-1,1.3-2.7,1.5c-0.4,0-0.8,0.1-1.3,0.2c-3.6,0.5-5,1.5-5,3.7c0,2.1,1.5,3.4,3.6,3.4
			c2.2,0,4-0.9,5-2.4l0.4-0.6v0.7c0,1.5,0.4,2,1.5,2h0.5v-0.3h-0.3c-1.3,0-1.3-0.8-1.3-2.2v-6.3c0-1,0-1.8-0.5-2.5
			c-0.6-0.9-1.9-1.4-3.6-1.4c-2.7,0-4.5,1.3-4.7,3.5h0.3C97.6,34.3,99.2,33.1,101.8,33.1z M100.3,45.6c-2.2,0-3.5-1.2-3.5-3.2
			c0-2.3,1.9-3,5.1-3.4h0l0.6-0.1c1.4-0.2,2.3-0.3,2.6-0.6l0.4-0.5v2.5c0,1.8-0.2,2.9-1.4,3.9C103.2,45.1,101.8,45.6,100.3,45.6z
			 M102,39.4c-3.5,0.4-4.7,1.2-4.7,3c0,1.8,1.1,2.8,3.1,2.8c1.3,0,2.6-0.4,3.6-1.2c1-0.9,1.2-1.9,1.2-3.6v-1.5
			c-0.5,0.2-1.3,0.3-2.5,0.5L102,39.4z"/>
	</g>
	<g>
		<path d="M125.1,32.9v13h-15.6v-13h0.8v12.2h6.6V32.9h0.8v12.2h6.6V32.9H125.1z"/>
		<path d="M125.3,46h-16V32.7h1.2v12.2h6.2V32.7h1.2v12.2h6.2V32.7h1.2V46z M109.7,45.6h15.2V33.1h-0.4v12.2h-7V33.1h-0.4v12.2h-7
			V33.1h-0.4V45.6z"/>
	</g>
	<g>
		<path d="M128.3,32.9h0.8v5.9h8v-5.9h0.8v12.9h-0.8v-6.4h-8v6.4h-0.8V32.9z"/>
		<path d="M138.1,46h-1.2v-6.4h-7.6V46h-1.2V32.7h1.2v5.9h7.6v-5.9h1.2V46z M137.3,45.6h0.4V33.1h-0.4V39h-8.4v-5.9h-0.4v12.5h0.4
			v-6.4h8.4V45.6z"/>
	</g>
	<g>
		<path d="M149.8,42.2c0,2.2-1.7,3.6-4,3.6h-4.9V32.9h0.8v5.8h3.2C148.3,38.7,149.8,39.8,149.8,42.2z M141.6,45.1h3.8
			c2.1,0,3.5-1,3.5-2.9c0-2-1.4-2.8-4.3-2.8h-3V45.1z M152.6,32.9h0.8v12.9h-0.8V32.9z"/>
		<path d="M153.6,46h-1.2V32.7h1.2V46z M152.8,45.6h0.4V33.1h-0.4V45.6z M145.8,46h-5.1V32.7h1.2v5.8h3c3.6,0,5.2,1.2,5.2,3.7
			C150,44.5,148.2,46,145.8,46z M141,45.6h4.7c2.3,0,3.8-1.4,3.8-3.4c0-2.3-1.4-3.3-4.8-3.3h-3.4v-5.8H141V45.6z M145.5,45.3h-4
			v-6.1h3.2c3.2,0,4.5,0.9,4.5,3C149.1,44.1,147.7,45.3,145.5,45.3z M141.8,44.9h3.6c2.1,0,3.3-1,3.3-2.7c0-1.9-1.2-2.6-4.1-2.6
			h-2.8V44.9z"/>
	</g>
	<g>
		<path d="M154.6,45.8l4.7-6.7l-4.5-6.3h0.9l4.1,5.6l4-5.6h0.9l-4.5,6.3l4.8,6.7h-0.9l-4.3-6.1l-4.3,6.1H154.6z"/>
		<path d="M165.5,46h-1.4L164,46l-4.2-5.8l-4.2,5.9h-1.4l4.9-6.9l-4.7-6.5h1.4l0.1,0.1l3.9,5.4l3.9-5.5h1.4l-4.6,6.5L165.5,46z
			 M164.3,45.6h0.4l-4.6-6.5l4.3-6.1h-0.4l-4.1,5.8l-4.2-5.8h-0.4l4.4,6.1l-0.1,0.1l-4.5,6.4h0.4l4.4-6.2L164.3,45.6z"/>
	</g>
	<g>
		<path d="M176.8,32.9c2.4,0,4.1,1,4.1,3.2c0,1.4-0.8,2.7-3,3c2.1,0.2,3.6,1.5,3.6,3.2c0,2.2-1.7,3.6-4,3.6h-5.2V32.9H176.8z
			 M173.2,38.7h3.2c2.1,0,3.8-0.7,3.8-2.6c0-1.4-1.2-2.4-3.7-2.4h-3.3V38.7z M177.3,45.1c2.4,0,3.5-1,3.5-2.9c0-2-2.6-2.9-4.5-2.9
			h-3.2v5.8H177.3z"/>
		<path d="M177.7,46h-5.4V32.7h4.6c2.8,0,4.3,1.2,4.3,3.4c0,0.9-0.3,2.3-2.2,3c1.8,0.5,2.9,1.7,2.9,3.3
			C181.8,44.5,180.1,46,177.7,46z M172.6,45.6h5c2.3,0,3.8-1.4,3.8-3.4c0-1.6-1.4-2.8-3.5-3l-1.6-0.2l1.6-0.2
			c2.3-0.3,2.8-1.7,2.8-2.8c0-2.6-2.5-3-3.9-3h-4.2V45.6z M177.3,45.3H173v-6.2h3.4c1.8,0,4.7,0.8,4.7,3.1
			C181,44.3,179.8,45.3,177.3,45.3z M173.4,44.9h3.9c2.2,0,3.3-0.9,3.3-2.7c0-1.9-2.6-2.7-4.3-2.7h-3V44.9z M176.4,38.9H173v-5.5
			h3.5c2.4,0,3.9,1,3.9,2.6C180.4,37.8,178.9,38.9,176.4,38.9z M173.4,38.5h3c1.3,0,3.6-0.3,3.6-2.4c0-1.4-1.3-2.2-3.5-2.2h-3.1
			V38.5z"/>
	</g>
	<g>
		<path d="M189,32.6c3.5,0,5.7,2.5,5.7,6.8c0,4.2-2.2,6.8-5.7,6.8c-3.5,0-5.7-2.5-5.7-6.8C183.3,35.1,185.5,32.6,189,32.6z
			 M189,45.4c3,0,4.9-2.2,4.9-6.1c0-3.8-1.9-6.1-4.9-6.1c-3,0-4.9,2.2-4.9,6.1C184.1,43.2,186,45.4,189,45.4z"/>
		<path d="M189,46.4c-3.6,0-5.9-2.7-5.9-7c0-4.3,2.2-7,5.9-7c3.6,0,5.9,2.7,5.9,7C194.9,43.7,192.6,46.4,189,46.4z M189,32.8
			c-3.4,0-5.5,2.5-5.5,6.6s2.1,6.6,5.5,6.6c3.4,0,5.5-2.5,5.5-6.6S192.4,32.8,189,32.8z M189,45.6c-3.1,0-5.1-2.4-5.1-6.3
			c0-3.9,1.9-6.3,5.1-6.3c3.1,0,5.1,2.4,5.1,6.3C194.1,43.2,192.1,45.6,189,45.6z M189,33.5c-2.9,0-4.7,2.2-4.7,5.9
			c0,3.7,1.7,5.9,4.7,5.9c2.9,0,4.7-2.2,4.7-5.9C193.7,35.8,191.9,33.5,189,33.5z"/>
	</g>
	<g>
		<path d="M197.3,32.9h0.8v3c0.8-2.1,2.5-3.3,4.9-3.3c3.5,0,5.7,2.5,5.7,6.8c0,4.2-2.2,6.8-5.7,6.8c-2.4,0-4.1-1.1-4.9-3.2v8h-0.8
			V32.9z M202.9,45.4c3,0,4.9-2.2,4.9-6.1c0-3.8-1.9-6.1-4.9-6.1s-4.9,2.2-4.9,6.1C198.1,43.2,200,45.4,202.9,45.4z"/>
		<path d="M198.3,51.2h-1.2V32.7h1.2V35c0.9-1.7,2.5-2.6,4.7-2.6c3.6,0,5.9,2.7,5.9,7c0,4.3-2.3,7-5.9,7c-2.1,0-3.7-0.9-4.7-2.5
			V51.2z M197.5,50.8h0.4v-8.8l0.4,1c0.8,2,2.4,3,4.7,3c3.4,0,5.5-2.5,5.5-6.6c0-4.1-2.1-6.6-5.5-6.6c-2.3,0-3.9,1.1-4.7,3.1l-0.4,1
			v-3.8h-0.4V50.8z M202.9,45.6c-3.1,0-5.1-2.4-5.1-6.3c0-3.9,1.9-6.3,5.1-6.3c3.1,0,5.1,2.4,5.1,6.3
			C208.1,43.2,206.1,45.6,202.9,45.6z M202.9,33.5c-2.9,0-4.7,2.2-4.7,5.9c0,3.7,1.7,5.9,4.7,5.9c2.9,0,4.7-2.2,4.7-5.9
			C207.7,35.8,205.8,33.5,202.9,33.5z"/>
	</g>
	<g>
		<path d="M216.3,32.6c3.5,0,5.7,2.5,5.7,6.8c0,4.2-2.2,6.8-5.7,6.8s-5.7-2.5-5.7-6.8C210.7,35.1,212.9,32.6,216.3,32.6z
			 M216.3,45.4c3,0,4.9-2.2,4.9-6.1c0-3.8-1.9-6.1-4.9-6.1c-3,0-4.9,2.2-4.9,6.1C211.4,43.2,213.4,45.4,216.3,45.4z"/>
		<path d="M216.3,46.4c-3.6,0-5.9-2.7-5.9-7c0-4.3,2.2-7,5.9-7c3.6,0,5.9,2.7,5.9,7C222.2,43.7,220,46.4,216.3,46.4z M216.3,32.8
			c-3.4,0-5.5,2.5-5.5,6.6s2.1,6.6,5.5,6.6c3.4,0,5.5-2.5,5.5-6.6S219.7,32.8,216.3,32.8z M216.3,45.6c-3.1,0-5.1-2.4-5.1-6.3
			c0-3.9,1.9-6.3,5.1-6.3c3.1,0,5.1,2.4,5.1,6.3C221.4,43.2,219.5,45.6,216.3,45.6z M216.3,33.5c-2.9,0-4.7,2.2-4.7,5.9
			c0,3.7,1.7,5.9,4.7,5.9c2.9,0,4.7-2.2,4.7-5.9C221,35.8,219.2,33.5,216.3,33.5z"/>
	</g>
	<g>
		<path d="M228.3,45.8V33.6H223v-0.7h11.4v0.7h-5.3v12.2H228.3z"/>
		<path d="M229.3,46h-1.2V33.8h-5.3v-1.1h11.8v1.1h-5.3V46z M228.5,45.6h0.4V33.4h5.3v-0.3h-11v0.3h5.3V45.6z"/>
	</g>
</g>
</svg>
