<?xml version="1.0" encoding="utf-8"?>
<!-- Generator: Adobe Illustrator 19.1.0, SVG Export Plug-In . SVG Version: 6.00 Build 0)  -->
<svg version="1.1" id="Layer_1" xmlns="http://www.w3.org/2000/svg" xmlns:xlink="http://www.w3.org/1999/xlink" x="0px" y="0px"
	 width="141px" height="43px" viewBox="0 0 141 43" style="enable-background:new 0 0 141 43;" xml:space="preserve">
<style type="text/css">
	.st0{fill:#9ECA13;}
</style>
<g>
	<g>
		<path class="st0" d="M125.6,15.4h7.6c-0.1-0.5-0.4-2-1.7-3.4c-1.2-1.4-1.8-2.4-1.8-4.1c0-1.7,0.6-2.6,1.8-4.1
			c1.2-1.5,1.6-2.9,1.7-3.4h-7.6V15.4z"/>
		<path d="M136.4,15.4h4.1v-15h-4.1c-0.1,0.5-0.4,2.1-1.8,3.7c-1.2,1.4-1.7,2.3-1.7,3.8c0,1.5,0.6,2.5,1.7,3.8
			C136,13.4,136.3,14.9,136.4,15.4"/>
		<path d="M8,27.6c-1.1,0-2.1-0.2-3-0.6c-0.9-0.4-1.7-0.9-2.4-1.6C2,24.8,1.4,23.9,1.1,23c-0.4-0.9-0.6-1.9-0.6-3v0
			c0-1.1,0.2-2,0.6-3c0.4-0.9,0.9-1.7,1.6-2.4C3.3,13.9,4.1,13.4,5,13c0.9-0.4,2-0.6,3.1-0.6c0.7,0,1.3,0.1,1.9,0.2
			c0.6,0.1,1.1,0.3,1.5,0.5c0.5,0.2,0.9,0.4,1.3,0.7c0.4,0.3,0.8,0.6,1.1,0.9L11.9,17c-0.6-0.5-1.2-0.9-1.7-1.2
			c-0.6-0.3-1.3-0.4-2-0.4c-0.6,0-1.2,0.1-1.7,0.4c-0.5,0.2-1,0.6-1.4,1c-0.4,0.4-0.7,0.9-0.9,1.5C4,18.7,3.9,19.3,3.9,20v0
			c0,0.6,0.1,1.2,0.3,1.8c0.2,0.6,0.5,1.1,0.9,1.5c0.4,0.4,0.8,0.8,1.3,1c0.5,0.2,1.1,0.4,1.7,0.4c0.8,0,1.5-0.2,2.1-0.5
			c0.6-0.3,1.2-0.7,1.7-1.3L14,25c-0.4,0.4-0.8,0.8-1.2,1.1c-0.4,0.3-0.8,0.6-1.3,0.8c-0.5,0.2-1,0.4-1.6,0.5
			C9.4,27.6,8.7,27.6,8,27.6"/>
		<path d="M22.7,24.6c0.6,0,1.2-0.1,1.8-0.4c0.5-0.2,1-0.6,1.4-1c0.4-0.4,0.7-0.9,0.9-1.5c0.2-0.6,0.3-1.1,0.3-1.8v0
			c0-0.6-0.1-1.2-0.3-1.8c-0.2-0.6-0.5-1.1-0.9-1.5c-0.4-0.4-0.9-0.8-1.4-1c-0.5-0.2-1.1-0.4-1.8-0.4c-0.7,0-1.3,0.1-1.8,0.4
			c-0.5,0.2-1,0.6-1.4,1c-0.4,0.4-0.7,0.9-0.9,1.5c-0.2,0.6-0.3,1.2-0.3,1.8v0c0,0.6,0.1,1.2,0.3,1.8c0.2,0.6,0.5,1.1,0.9,1.5
			c0.4,0.4,0.9,0.8,1.4,1C21.5,24.5,22.1,24.6,22.7,24.6 M22.7,27.6c-1.1,0-2.2-0.2-3.1-0.6c-1-0.4-1.8-0.9-2.5-1.6
			c-0.7-0.7-1.2-1.5-1.6-2.4c-0.4-0.9-0.6-1.9-0.6-3v0c0-1.1,0.2-2,0.6-3c0.4-0.9,0.9-1.7,1.6-2.4c0.7-0.7,1.5-1.2,2.5-1.6
			c1-0.4,2-0.6,3.1-0.6c1.1,0,2.2,0.2,3.1,0.6c1,0.4,1.8,0.9,2.5,1.6c0.7,0.7,1.2,1.5,1.6,2.4c0.4,0.9,0.6,1.9,0.6,3v0
			c0,1.1-0.2,2-0.6,3c-0.4,0.9-0.9,1.7-1.6,2.4c-0.7,0.7-1.5,1.2-2.5,1.6C24.9,27.4,23.8,27.6,22.7,27.6"/>
	</g>
	<polygon points="32.3,12.6 35.8,12.6 39.6,18.9 43.5,12.6 47,12.6 47,27.4 43.8,27.4 43.8,17.7 39.7,24.1 39.6,24.1 35.5,17.8 
		35.5,27.4 32.3,27.4 	"/>
	<g>
		<path d="M55.6,27.6c-2,0-3.5-0.6-4.7-1.6c-1.1-1.1-1.7-2.7-1.7-4.9v-8.4h3.2V21c0,1.2,0.3,2.1,0.8,2.7c0.6,0.6,1.3,0.9,2.3,0.9
			c1,0,1.8-0.3,2.3-0.9c0.6-0.6,0.8-1.5,0.8-2.7v-8.5H62v8.3c0,1.1-0.2,2.1-0.5,2.9c-0.3,0.8-0.7,1.5-1.3,2.1c-0.6,0.6-1.2,1-2,1.2
			C57.4,27.5,56.5,27.6,55.6,27.6"/>
	</g>
	<polygon points="64.2,12.6 67.2,12.6 74.1,21.7 74.1,12.6 77.3,12.6 77.3,27.4 74.5,27.4 67.4,18 67.4,27.4 64.2,27.4 	"/>
	<polygon points="79.7,12.6 90.8,12.6 90.8,15.5 82.9,15.5 82.9,18.5 89.8,18.5 89.8,21.4 82.9,21.4 82.9,24.5 90.9,24.5 90.9,27.4 
		79.7,27.4 	"/>
	<polygon points="92.7,12.6 95.9,12.6 95.9,24.5 104,24.5 104,27.4 92.7,27.4 	"/>
	<polygon points="103.4,12.6 106.6,12.6 106.6,24.5 114.6,24.5 114.6,27.4 103.4,27.4 	"/>
	<g>
		<path d="M121.5,24.6c0.6,0,1.2-0.1,1.8-0.4c0.5-0.2,1-0.6,1.4-1c0.4-0.4,0.7-0.9,0.9-1.5c0.2-0.6,0.3-1.1,0.3-1.8v0
			c0-0.6-0.1-1.2-0.3-1.8c-0.2-0.6-0.5-1.1-0.9-1.5c-0.4-0.4-0.9-0.8-1.4-1c-0.5-0.2-1.1-0.4-1.8-0.4c-0.7,0-1.3,0.1-1.8,0.4
			c-0.5,0.2-1,0.6-1.4,1c-0.4,0.4-0.7,0.9-0.9,1.5c-0.2,0.6-0.3,1.2-0.3,1.8v0c0,0.6,0.1,1.2,0.3,1.8c0.2,0.6,0.5,1.1,0.9,1.5
			c0.4,0.4,0.9,0.8,1.4,1C120.3,24.5,120.9,24.6,121.5,24.6 M121.5,27.6c-1.1,0-2.2-0.2-3.1-0.6c-0.9-0.4-1.8-0.9-2.5-1.6
			c-0.7-0.7-1.2-1.5-1.6-2.4c-0.4-0.9-0.6-1.9-0.6-3v0c0-1.1,0.2-2,0.6-3c0.4-0.9,0.9-1.7,1.6-2.4c0.7-0.7,1.5-1.2,2.5-1.6
			c1-0.4,2-0.6,3.1-0.6c1.1,0,2.2,0.2,3.1,0.6c0.9,0.4,1.8,0.9,2.5,1.6c0.7,0.7,1.2,1.5,1.6,2.4c0.4,0.9,0.6,1.9,0.6,3v0
			c0,1.1-0.2,2-0.6,3c-0.4,0.9-0.9,1.7-1.6,2.4c-0.7,0.7-1.5,1.2-2.5,1.6C123.7,27.4,122.6,27.6,121.5,27.6"/>
	</g>
	<path class="st0" d="M8.9,38.3L7.6,35l-1.3,3.2H8.9z M6.6,32.4h2l4.2,10h-2.3l-0.9-2.2H5.5l-0.9,2.2H2.4L6.6,32.4z"/>
	<g>
		<path class="st0" d="M17.6,42.6c-1.3,0-2.4-0.4-3.1-1.1c-0.8-0.7-1.1-1.8-1.1-3.3v-5.7h2.2v5.6c0,0.8,0.2,1.4,0.6,1.8
			c0.4,0.4,0.9,0.6,1.6,0.6c0.7,0,1.2-0.2,1.6-0.6c0.4-0.4,0.6-1,0.6-1.8v-5.7h2.2v5.6c0,0.8-0.1,1.4-0.3,2c-0.2,0.6-0.5,1-0.9,1.4
			c-0.4,0.4-0.8,0.7-1.4,0.8C18.8,42.5,18.2,42.6,17.6,42.6"/>
	</g>
	<polygon class="st0" points="25.5,34.5 22.5,34.5 22.5,32.5 30.7,32.5 30.7,34.5 27.7,34.5 27.7,42.4 25.5,42.4 	"/>
	<g>
		<path class="st0" d="M36.2,40.6c0.4,0,0.8-0.1,1.2-0.2c0.4-0.2,0.7-0.4,0.9-0.7c0.3-0.3,0.5-0.6,0.6-1c0.1-0.4,0.2-0.8,0.2-1.2v0
			c0-0.4-0.1-0.8-0.2-1.2c-0.1-0.4-0.4-0.7-0.6-1c-0.3-0.3-0.6-0.5-1-0.7c-0.4-0.2-0.8-0.2-1.2-0.2c-0.4,0-0.8,0.1-1.2,0.2
			c-0.4,0.2-0.7,0.4-0.9,0.7c-0.3,0.3-0.5,0.6-0.6,1c-0.1,0.4-0.2,0.8-0.2,1.2v0c0,0.4,0.1,0.8,0.2,1.2c0.1,0.4,0.4,0.7,0.6,1
			c0.3,0.3,0.6,0.5,0.9,0.7C35.4,40.5,35.8,40.6,36.2,40.6 M36.2,42.6c-0.8,0-1.5-0.1-2.1-0.4c-0.6-0.3-1.2-0.6-1.7-1.1
			c-0.5-0.5-0.8-1-1.1-1.6c-0.3-0.6-0.4-1.3-0.4-2v0c0-0.7,0.1-1.4,0.4-2c0.3-0.6,0.6-1.2,1.1-1.6c0.5-0.5,1-0.8,1.7-1.1
			c0.6-0.3,1.3-0.4,2.1-0.4c0.8,0,1.5,0.1,2.1,0.4c0.6,0.3,1.2,0.6,1.7,1.1c0.5,0.5,0.8,1,1.1,1.6c0.3,0.6,0.4,1.3,0.4,2v0
			c0,0.7-0.1,1.4-0.4,2c-0.3,0.6-0.6,1.2-1.1,1.6c-0.5,0.5-1,0.8-1.7,1.1C37.7,42.5,37,42.6,36.2,42.6"/>
	</g>
	<polygon class="st0" points="42.5,32.5 44.8,32.5 47.4,36.7 50,32.5 52.3,32.5 52.3,42.4 50.2,42.4 50.2,35.9 47.4,40.2 47.4,40.2 
		44.6,36 44.6,42.4 42.5,42.4 	"/>
	<path class="st0" d="M59.5,38.3L58.1,35l-1.3,3.2H59.5z M57.2,32.4h2l4.2,10h-2.3l-0.9-2.2h-4.2l-0.9,2.2h-2.2L57.2,32.4z"/>
	<polygon class="st0" points="66.3,34.5 63.3,34.5 63.3,32.5 71.5,32.5 71.5,34.5 68.5,34.5 68.5,42.4 66.3,42.4 	"/>
	<rect x="72.3" y="32.5" class="st0" width="2.2" height="9.9"/>
	<g>
		<path class="st0" d="M80.9,40.6c0.4,0,0.8-0.1,1.2-0.2c0.4-0.2,0.7-0.4,0.9-0.7c0.3-0.3,0.5-0.6,0.6-1c0.1-0.4,0.2-0.8,0.2-1.2v0
			c0-0.4-0.1-0.8-0.2-1.2c-0.1-0.4-0.4-0.7-0.6-1c-0.3-0.3-0.6-0.5-1-0.7c-0.4-0.2-0.8-0.2-1.2-0.2c-0.4,0-0.8,0.1-1.2,0.2
			c-0.4,0.2-0.7,0.4-0.9,0.7c-0.3,0.3-0.5,0.6-0.6,1c-0.1,0.4-0.2,0.8-0.2,1.2v0c0,0.4,0.1,0.8,0.2,1.2c0.1,0.4,0.4,0.7,0.6,1
			c0.3,0.3,0.6,0.5,0.9,0.7C80,40.5,80.4,40.6,80.9,40.6 M80.8,42.6c-0.8,0-1.5-0.1-2.1-0.4c-0.6-0.3-1.2-0.6-1.7-1.1
			c-0.5-0.5-0.8-1-1.1-1.6c-0.3-0.6-0.4-1.3-0.4-2v0c0-0.7,0.1-1.4,0.4-2c0.3-0.6,0.6-1.2,1.1-1.6c0.5-0.5,1-0.8,1.7-1.1
			c0.6-0.3,1.3-0.4,2.1-0.4c0.8,0,1.5,0.1,2.1,0.4c0.6,0.3,1.2,0.6,1.7,1.1c0.5,0.5,0.8,1,1.1,1.6c0.3,0.6,0.4,1.3,0.4,2v0
			c0,0.7-0.1,1.4-0.4,2c-0.3,0.6-0.6,1.2-1.1,1.6c-0.5,0.5-1,0.8-1.7,1.1C82.3,42.5,81.6,42.6,80.8,42.6"/>
	</g>
	<polygon class="st0" points="87.1,32.5 89.1,32.5 93.7,38.6 93.7,32.5 95.9,32.5 95.9,42.4 94,42.4 89.3,36.1 89.3,42.4 87.1,42.4 
			"/>
</g>
</svg>
