<?xml version="1.0" encoding="utf-8"?>
<!-- Generator: Adobe Illustrator 19.1.0, SVG Export Plug-In . SVG Version: 6.00 Build 0)  -->
<svg version="1.1" id="Layer_1" xmlns="http://www.w3.org/2000/svg" xmlns:xlink="http://www.w3.org/1999/xlink" x="0px" y="0px"
	 width="141px" height="91px" viewBox="-48 -9 141 91" style="enable-background:new -48 -9 141 91;" xml:space="preserve">
<g>
	<path d="M-41.2,9h0.8c0.1,0,0.2-0.1,0.2-0.2l2.1-5.5h7.5l2.1,5.5c0,0.1,0.1,0.2,0.2,0.2h0.8c0,0,0.1-0.1,0.1-0.2c0,0,0-0.1,0-0.2
		l-6.3-16.7c0-0.1-0.1-0.2-0.2-0.2h-0.9c-0.1,0-0.2,0.1-0.2,0.2l-6.4,16.8c-0.1,0,0,0.1,0,0.2C-41.4,9-41.3,9-41.2,9z M-37.6,2.1
		l3.3-8.5l3.2,8.5H-37.6z"/>
	<path d="M-26.2,9h4.9c2.3,0,3.9-1.5,3.9-3.6c0-1.4-0.9-2.5-2.5-3c1.6-0.7,1.9-2,1.9-2.8c0-2-1.5-3.2-4.1-3.2h-4.1
		c-0.1,0-0.2,0.1-0.2,0.2V8.8C-26.4,8.9-26.3,9-26.2,9z M-25.3,1.8v-4.2h2.8c2,0,3.2,0.7,3.2,2c0,1.9-2.1,2.2-3.3,2.2
		C-22.6,1.8-25.3,1.8-25.3,1.8z M-25.3,2.9h2.7c1.5,0,3.9,0.6,3.9,2.4c0,1.7-1,2.5-3,2.5h-3.6V2.9z M-25.5,2.6
		C-25.5,2.6-25.6,2.6-25.5,2.6L-25.5,2.6L-25.5,2.6z"/>
	<path d="M-16.5-2.4h4.7V8.8c0,0.1,0.1,0.2,0.2,0.2h0.7c0.1,0,0.2-0.2,0.2-0.3V-2.5H-6c0.1,0,0.2-0.1,0.2-0.2v-0.7
		c0-0.1-0.1-0.2-0.2-0.2h-10.5c-0.1,0-0.2,0.1-0.2,0.2v0.8C-16.7-2.5-16.6-2.4-16.5-2.4z"/>
	<path d="M0.5,9.3c3.5,0,5.6-2.6,5.6-6.6c0-4.1-2.2-6.6-5.6-6.6S-5-1.4-5,2.7S-2.9,9.3,0.5,9.3z M0.5,8.1c-2.7,0-4.3-2-4.3-5.4
		s1.6-5.4,4.3-5.4c2.8,0,4.4,2,4.3,5.4C4.8,6.1,3.2,8.1,0.5,8.1z"/>
	<path d="M8.8,8.9h0.7c0.1,0,0.2-0.1,0.2-0.2v-9.6l4.5,9.3c0,0,0.1,0.1,0.2,0.1h0.7c0.1,0,0.2,0,0.2-0.1l4.5-9.3v9.7
		C19.8,8.9,19.9,9,20,9h0.7c0.2,0,0.3-0.2,0.5-0.3V-3.4c0-0.1-0.1-0.2-0.2-0.2h-0.8c-0.1,0-0.2,0-0.2,0.1L14.9,6.9L9.8-3.5
		c0,0-0.1-0.1-0.2-0.1H8.8c-0.1,0-0.2,0.1-0.2,0.2V8.7C8.6,8.8,8.7,8.9,8.8,8.9z"/>
	<path d="M29.2,1.5c-0.3,0.1-0.7,0.1-1.2,0.2c-3,0.4-5,1.3-5,3.9c0,2.2,1.5,3.7,3.8,3.7c1.9,0,3.6-0.7,4.6-2.1
		c0.1,1,0.6,1.6,1.8,1.6h0.6c0.1,0,0.2-0.1,0.2-0.2V7.9c0-0.1-0.1-0.2-0.2-0.2h-0.4c-0.7,0-0.8-0.1-0.8-1.7V0.1c0-1-0.1-1.8-0.6-2.6
		c-0.6-1-1.9-1.5-3.7-1.5c-2.8,0-4.7,1.5-4.8,3.9c0,0.1,0.1,0.2,0.1,0.2c0.1,0.1,0.1,0.1,0.2,0.1h0.7c0.1,0,0.2-0.1,0.2-0.2
		c0.1-1.8,1.4-2.8,3.7-2.8c1.4,0,3,0.4,3,2.3v1C31.4,1.2,30.9,1.3,29.2,1.5z M31.4,2.3v1.3c0,1.6-0.2,2.5-1.1,3.3
		C29.4,7.6,28.2,8,27,8c-1.8,0-2.8-0.9-2.8-2.5s1.1-2.3,4.4-2.7l0.5-0.1C30.2,2.6,30.9,2.5,31.4,2.3z"/>
	<path d="M34.5-2.4h4.7V8.8c0,0.1,0.1,0.2,0.2,0.2h0.7c0.1,0,0.3-0.2,0.2-0.3V-2.5H45c0.1,0,0.2-0.1,0.2-0.2v-0.7
		c0-0.1-0.1-0.2-0.2-0.2H34.5c-0.1,0-0.2,0.1-0.2,0.2v0.8C34.3-2.5,34.4-2.4,34.5-2.4z"/>
	<path d="M47,8.9h0.7c0.1,0,0.2,0,0.2-0.1l7.4-10.2V8.8c0,0.1,0.1,0.2,0.2,0.2h0.7c0.1,0,0.2-0.2,0.2-0.3V-3.4
		c0-0.1-0.1-0.2-0.2-0.2h-0.7c-0.1,0-0.2,0-0.2,0.1L47.9,6.7V-3.4c0-0.1-0.1-0.2-0.2-0.2H47c-0.1,0-0.2,0.1-0.2,0.2V8.7
		C46.8,8.8,46.9,8.9,47,8.9z"/>
	<path d="M59.6,8.9h0.7c0.1,0,0.2-0.1,0.2-0.2V4.6L63.1,2l4.6,6.9C67.7,9,67.8,9,67.9,9h0.9C68.9,9,69,8.9,69,8.9
		c0.1-0.1,0.1-0.2,0-0.3l-5-7.5l4.3-4.2c0.1-0.1,0.1-0.2,0.1-0.3s-0.1-0.2-0.2-0.2h-0.9c-0.1,0-0.2,0.1-0.2,0.1L60.5,3v-6.4
		c0-0.1-0.1-0.2-0.2-0.2h-0.7c-0.1,0-0.2,0.1-0.2,0.2V8.7C59.4,8.8,59.5,8.9,59.6,8.9z"/>
	<path d="M77.6,7.2c0.1,1,0.6,1.6,1.8,1.6H80c0.1,0,0.2-0.1,0.2-0.2V7.9c0-0.1-0.1-0.2-0.2-0.2h-0.4c-0.7,0-0.8-0.1-0.8-1.7V0.1
		c0-1-0.1-1.8-0.6-2.6c-0.6-1-1.9-1.5-3.7-1.5c-2.8,0-4.7,1.5-4.8,3.9c0,0.1,0.1,0.2,0.1,0.2c0.1,0.1,0.1,0.1,0.2,0.1h0.7
		c0.1,0,0.2-0.1,0.2-0.2c0.1-1.8,1.4-2.8,3.7-2.8c1.4,0,3,0.4,3,2.3v1c0,0.7-0.5,0.8-2.2,1c-0.3,0.1-0.7,0.1-1.2,0.2
		c-3,0.4-5,1.3-5,3.9c0,2.2,1.5,3.7,3.8,3.7C75,9.3,76.6,8.6,77.6,7.2z M70.4,5.5c0-1.6,1.1-2.3,4.4-2.7l0.5-0.1
		c1.1-0.1,1.8-0.2,2.3-0.4v1.3c0,1.6-0.2,2.5-1.1,3.3C75.6,7.6,74.4,8,73.2,8C71.4,8,70.4,7.1,70.4,5.5z"/>
	<path d="M84.8,6.6c0-0.1-0.1-0.1-0.2-0.1h-0.8c-0.1,0-0.2,0.1-0.2,0.2l-1.7,4.4c-0.1,0,0,0.1,0,0.2s0.1,0.1,0.2,0.1h0.8
		c0.1,0,0.2-0.1,0.2-0.2l1.7-4.4C84.9,6.8,84.8,6.7,84.8,6.6z"/>
	<path d="M-17.1,32.9h0.7c0.1,0,0.2-0.1,0.2-0.2v-4.1l2.6-2.6l4.6,6.9C-9,33-8.9,33-8.8,33h0.9c0.1,0,0.2-0.1,0.2-0.1
		c0.1-0.1,0.1-0.2,0-0.3l-5-7.5l4.3-4.2c0.1-0.1,0.1-0.2,0.1-0.3c0-0.1-0.1-0.2-0.2-0.2h-0.9c-0.1,0-0.2,0.1-0.2,0.1l-6.6,6.5v-6.4
		c0-0.1-0.1-0.2-0.2-0.2h-0.7c-0.1,0-0.2,0.1-0.2,0.2v12.1C-17.3,32.8-17.2,32.9-17.1,32.9z"/>
	<path d="M-1.8,33.3c3.5,0,5.6-2.6,5.6-6.6c0-4.1-2.2-6.6-5.6-6.6s-5.5,2.5-5.5,6.6S-5.2,33.3-1.8,33.3z M-1.8,21.3
		c2.8,0,4.4,2,4.3,5.4c0,3.4-1.6,5.4-4.3,5.4s-4.3-2-4.3-5.4C-6.1,23.3-4.5,21.3-1.8,21.3z"/>
	<path d="M15.5,20.5H4.9c-0.1,0-0.2,0.1-0.2,0.2v0.7c0,0.1,0.1,0.2,0.2,0.2h4.7v11.2c0,0.1,0.1,0.2,0.2,0.2h0.7
		c0.1,0,0.3-0.2,0.3-0.2V21.6h4.7c0.1,0,0.2-0.1,0.2-0.2v-0.7C15.7,20.6,15.6,20.5,15.5,20.5z"/>
	<path d="M22,20.1c-3.4,0-5.5,2.5-5.5,6.6s2.1,6.6,5.5,6.6s5.5-2.6,5.6-6.6C27.6,22.6,25.4,20.1,22,20.1z M22,32.1
		c-2.7,0-4.3-2-4.3-5.4s1.6-5.4,4.3-5.4s4.3,2,4.3,5.4S24.7,32.1,22,32.1z"/>
	<path d="M30.8,20.4h-0.7c-0.1,0-0.2,0.1-0.2,0.2v16.9c0,0.1,0.1,0.2,0.2,0.2h0.7c0.1,0,0.2-0.1,0.2-0.2v-6.4
		c0.9,1.4,2.4,2.2,4.3,2.2c3.5,0,5.6-2.5,5.6-6.6s-2.2-6.6-5.6-6.6c-1.9,0-3.4,0.7-4.3,2.2v-1.7C31,20.5,30.9,20.4,30.8,20.4z
		 M31,26.7c0-3.3,1.6-5.4,4.3-5.4s4.4,2,4.3,5.4c0,3.4-1.6,5.4-4.3,5.4S31,30.1,31,26.7z"/>
	<path d="M48.6,25.5c-0.3,0.1-0.7,0.1-1.2,0.2c-3,0.4-5,1.3-5,3.9c0,2.2,1.5,3.7,3.8,3.7c2,0,3.6-0.7,4.6-2.1c0.1,1,0.6,1.6,1.8,1.6
		h0.6c0.1,0,0.2-0.1,0.2-0.2v-0.7c0-0.1-0.1-0.2-0.2-0.2h-0.4c-0.7,0-0.8-0.1-0.8-1.7v-5.9c0-1-0.1-1.8-0.6-2.6
		c-0.6-1-1.9-1.5-3.7-1.5c-2.8,0-4.7,1.5-4.8,3.9c0,0.1,0.1,0.2,0.1,0.2c0.1,0.1,0.1,0.1,0.2,0.1h0.7c0.1,0,0.2-0.1,0.2-0.2
		c0.1-1.8,1.4-2.8,3.7-2.8c1.4,0,3,0.4,3,2.3v1C50.8,25.2,50.3,25.3,48.6,25.5z M50.8,26.3v1.3c0,1.6-0.2,2.5-1.1,3.3
		c-0.9,0.7-2.1,1.1-3.3,1.1c-1.8,0-2.8-0.9-2.8-2.5s1.1-2.3,4.4-2.7l0.5-0.1C49.6,26.6,50.3,26.5,50.8,26.3z"/>
	<path d="M61.8,32.8c0,0.1,0.1,0.2,0.2,0.2h0.8c0.1,0,0.2-0.2,0.2-0.3V20.6c0-0.1-0.1-0.2-0.2-0.2h-4.3c-2.7,0-4.3,1.3-4.3,3.5
		c0,1.9,1.2,3.2,3.3,3.5L54,32.6c0,0.1,0,0.2,0,0.3c0,0,0.1,0.1,0.2,0.1H55c0.1,0,0.2,0,0.2-0.1l3.6-5.3h3V32.8z M58.4,21.5h3.4v4.9
		h-2.5c-2.5,0-3.9-0.9-3.9-2.5C55.4,21.8,57.3,21.5,58.4,21.5z"/>
	<path d="M-35.4,56L-35.4,56L-35.4,56h-1.1V44.8c0-0.1-0.1-0.2-0.2-0.2h-7.7c-0.1,0-0.2,0.1-0.2,0.2v5.4c0,2.6-0.4,4.5-1.4,5.8h-0.9
		c-0.1,0-0.2,0.1-0.2,0.2v3.7c0,0.1,0.1,0.2,0.2,0.2h0.7c0.1,0,0.3-0.1,0.3-0.2V57h9.5v2.9c0,0.1,0.1,0.2,0.2,0.2h0.7
		c0.1,0,0.2-0.1,0.2-0.2v-3.7C-35.3,56.1-35.3,56.1-35.4,56z M-43.4,50v-4.5h5.8v10.3h-7C-43.8,54.5-43.4,52.6-43.4,50z"/>
	<path d="M-28.8,44.1c-3.3,0-5.4,2.5-5.4,6.6s2.1,6.6,5.4,6.6c2.5,0,4.5-1.6,5-4.2c0.1-0.1,0.1-0.1,0-0.2c-0.1-0.1-0.1-0.1-0.2-0.1
		h-0.7c-0.1,0-0.2,0.1-0.2,0.2c-0.5,1.8-2,3-3.9,3c-2.4,0-4.1-2-4.1-5.1h9.2c0.1,0,0.2-0.1,0.2-0.2v-0.4
		C-23.5,46.4-25.5,44.1-28.8,44.1z M-32.9,49.8c0.2-2.8,1.8-4.5,4.2-4.5c2.3,0,3.8,1.7,3.9,4.5H-32.9z"/>
	<path d="M-12.7,44.5h-7.9c-0.1,0-0.2,0.1-0.2,0.2v5.8c0,2.7-0.2,5.5-1.6,5.5H-23c-0.1,0-0.2,0.1-0.2,0.2v0.7c0,0.1,0.1,0.2,0.2,0.2
		h0.8l0,0c0.5,0,1-0.2,1.5-0.5c1.1-1.1,1.2-3.6,1.2-6.1v-4.9h5.9v11.1c0,0.1,0.1,0.2,0.2,0.2h0.7c0.1,0,0.2-0.1,0.2-0.2v-12
		C-12.5,44.6-12.6,44.5-12.7,44.5z"/>
	<path d="M-4.2,49.5c-0.3,0.1-0.7,0.1-1.2,0.2c-3,0.4-5,1.3-5,3.9c0,2.2,1.5,3.7,3.8,3.7c2,0,3.6-0.7,4.6-2.1c0.1,1,0.6,1.6,1.8,1.6
		h0.6c0.1,0,0.2-0.1,0.2-0.2v-0.7c0-0.1-0.1-0.2-0.2-0.2H0c-0.7,0-0.8-0.1-0.8-1.7v-5.9c0-1-0.1-1.8-0.6-2.6C-2,44.5-3.3,44-5.1,44
		c-2.8,0-4.7,1.5-4.8,3.9c0,0.1,0.1,0.2,0.1,0.2c0.1,0.1,0.1,0.1,0.2,0.1h0.7c0.1,0,0.2-0.1,0.2-0.2c0.1-1.8,1.4-2.8,3.7-2.8
		c1.4,0,3,0.4,3,2.3v1C-2,49.2-2.5,49.3-4.2,49.5z M-2,50.3v1.3c0,1.6-0.2,2.5-1.1,3.3C-4,55.6-5.2,56-6.4,56
		c-1.8,0-2.8-0.9-2.8-2.5s1.1-2.3,4.4-2.7l0.5-0.1C-3.2,50.6-2.5,50.5-2,50.3z"/>
	<path d="M7.1,57.3c2.5,0,4.5-1.6,5-4.2c0.1-0.1,0.1-0.1,0-0.2c-0.1-0.1-0.1-0.1-0.2-0.1h-0.7c-0.1,0-0.2,0.1-0.2,0.2
		c-0.5,1.8-2,3-3.9,3C4.7,56,3,54,3,50.9h9.2c0.1,0,0.2-0.1,0.2-0.2v-0.4c0-3.9-2-6.2-5.3-6.2s-5.4,2.5-5.4,6.6
		C1.7,54.8,3.8,57.3,7.1,57.3z M3,49.8c0.3-2.8,1.8-4.5,4.2-4.5c2.3,0,3.8,1.7,3.9,4.5H3z"/>
	<path d="M17.9,57h0.7c0.1,0,0.2-0.2,0.3-0.2V45.6h4.7c0.1,0,0.2-0.1,0.2-0.2v-0.7c0-0.1-0.1-0.2-0.2-0.2H13c-0.1,0-0.2,0.1-0.2,0.2
		v0.7c0,0.1,0.1,0.2,0.2,0.2h4.7v11.2C17.7,56.9,17.8,57,17.9,57z"/>
	<path d="M37.6,56.6c0,0.1,0.1,0.2,0.2,0.2h0.7c0.1,0,0.2-0.1,0.2-0.2v-4.2L41,50l4.5,6.9c0,0.1,0.1,0.1,0.2,0.1h0.8
		c0.1,0,0.2-0.1,0.5-0.2c0.1-0.1,0.1-0.2,0-0.3l-4.9-7.4l4.1-4.3c0-0.1,0-0.2,0-0.3s-0.1-0.2-0.2-0.2h-0.9c-0.1,0-0.2,0.1-0.2,0.1
		l-6.1,6.4v-6.2c0-0.1-0.1-0.2-0.2-0.2h-0.7c-0.1,0-0.2,0.1-0.2,0.2v0.1v6.1l-6.1-6.4c-0.1-0.1-0.1-0.1-0.2-0.1h-0.9
		c-0.1,0-0.2,0.1-0.2,0.2c-0.1,0.1-0.1,0.2,0,0.3l4.1,4.3l-4.9,7.4c0,0.1,0,0.2,0,0.3c0,0,0.1,0.1,0.2,0.1h0.8c0.1,0,0.2,0,0.2-0.1
		l4.5-6.8l2.4,2.4C37.6,52.4,37.6,56.6,37.6,56.6z"/>
	<path d="M57.4,56.7V44.6c0-0.1-0.1-0.2-0.2-0.2h-0.7c-0.1,0-0.2,0-0.2,0.1l-7.4,10.2V44.6c0-0.1-0.1-0.2-0.2-0.2H48
		c-0.1,0-0.2,0.1-0.2,0.2v12.2c0,0.1,0.1,0.2,0.2,0.2h0.8c0.1,0,0.2,0,0.2-0.1l7.5-10.3v10.1v0.1c0,0.1,0.1,0.2,0.2,0.2h0.7
		C57.5,57,57.6,56.8,57.4,56.7z"/>
	<path d="M67.2,50.6c1-0.5,1.7-1.5,1.7-2.8c0-2-1.7-3.4-4.3-3.4l0,0l0,0l0,0c-0.3,0-0.6,0-0.8,0.1c-0.1,0-0.1,0-0.2,0.1
		c-1.7,0.3-3,1.5-3.3,3.4c0,0.1,0.1,0.1,0.1,0.2c0.1,0.1,0.1,0.1,0.2,0.1h0.7c0.1,0,0.2-0.1,0.2-0.2c0.3-1.6,1.5-2.5,3.2-2.5
		s2.9,0.9,2.9,2.2c0,1.6-1,2.3-3.1,2.3H63c-0.1,0-0.2,0.1-0.2,0.2v0.6c0,0.1,0.1,0.2,0.2,0.2h1c2,0,4,0.7,4,2.6
		c0,1.5-1.4,2.5-3.5,2.5s-3.4-1.1-3.5-3c0-0.1-0.1-0.2-0.2-0.2h-0.7c-0.1,0-0.2,0-0.2,0.1c-0.1,0.1-0.1,0.1-0.1,0.2
		c0.2,2.6,2,4.1,4.8,4.1c2.7,0,4.7-1.6,4.8-3.5C69.4,52.4,68.5,51.2,67.2,50.6z"/>
	<path d="M80.5,44.4h-0.7c-0.1,0-0.2,0.1-0.2,0.2v5.2h-7v-5.2c0-0.1-0.1-0.2-0.2-0.2h-0.7c-0.1,0-0.2,0.1-0.2,0.2v12.1
		c0,0.1,0.1,0.2,0.2,0.2h0.7c0.1,0,0.2-0.1,0.2-0.2V51h7v5.8c0,0.1,0.1,0.2,0.2,0.2h0.7c0.1,0,0.2-0.2,0.2-0.3V44.6
		C80.7,44.5,80.6,44.4,80.5,44.4z"/>
	<path d="M87.2,49.8h-2.7v-5.2c0-0.1-0.1-0.2-0.2-0.2h-0.7c-0.1,0-0.2,0.1-0.2,0.2v12.2c0,0.1,0.1,0.2,0.2,0.2h4.6
		c2.3,0,4-1.5,3.9-3.6C92.1,50.9,90.6,49.8,87.2,49.8z M90.9,53.3c0,1.6-1.1,2.5-3,2.5h-3.3v-4.9h2.5C89.8,50.9,90.9,51.6,90.9,53.3
		z"/>
	<path d="M0.8,68.5h-7.9c-0.1,0-0.2,0.1-0.2,0.2v5.8c0,2.7-0.2,5.5-1.6,5.5h-0.6c-0.1,0-0.2,0.1-0.2,0.2v0.7c0,0.1,0.1,0.2,0.2,0.2
		h0.8l0,0c0.5,0,1-0.2,1.5-0.5C-6.1,79.5-6,77-6,74.5v-4.9h5.9v11.1c0,0.1,0.1,0.2,0.2,0.2h0.7c0.1,0,0.2-0.1,0.2-0.2v-12
		C1,68.6,0.9,68.5,0.8,68.5z"/>
	<path d="M8.7,68.1c-3.3,0-5.4,2.5-5.4,6.6s2.1,6.6,5.4,6.6c2.5,0,4.5-1.6,5-4.2c0.1-0.1,0.1-0.1,0-0.2s-0.1-0.1-0.2-0.1h-0.7
		c-0.1,0-0.2,0.1-0.2,0.2c-0.5,1.8-2,3-3.9,3c-2.4,0-4.1-2-4.1-5.1h9.2c0.1,0,0.2-0.1,0.2-0.2v-0.4C14,70.4,12,68.1,8.7,68.1z
		 M4.6,73.8c0.3-2.8,1.9-4.5,4.2-4.5s3.8,1.7,3.9,4.5H4.6z"/>
	<path d="M24.2,68.4H16c-0.1,0-0.2,0.1-0.2,0.2v12.2c0,0.1,0.1,0.2,0.2,0.2h0.7c0.2,0,0.3-0.2,0.3-0.3V69.5h7.2
		c0.1,0,0.2-0.1,0.2-0.2v-0.7C24.4,68.5,24.3,68.4,24.2,68.4z"/>
	<path d="M34.5,81C34.6,80.9,34.5,80.9,34.5,81L34.5,81z"/>
	<path d="M34.4,68.7L34.4,68.7l-0.7-0.1v0.1h-0.1c-0.1,0-0.2,0.1-0.2,0.2v5.3c-0.7,0.4-1.1,0.7-2,0.8l0,0c-0.1,0-0.3,0-0.5,0h-0.1
		c-0.1,0-0.3,0-0.4,0c-0.6,0-1.2-0.1-1.6-0.2c-1.2-0.4-1.8-1.4-1.8-3.2v-2.9c0-0.1-0.1-0.2-0.2-0.2h-0.7c-0.1,0-0.2,0.1-0.2,0.2v2.9
		c0,2.9,1.6,4.5,4.5,4.5c1.1,0,2.3-0.3,3.1-0.8v5.4c0,0.1,0.1,0.2,0.2,0.2h0.7c0,0,0.1,0,0.1-0.1v-12C34.5,68.8,34.5,68.8,34.4,68.7
		z"/>
	<path d="M42.2,68.1c-3.3,0-5.4,2.5-5.4,6.6s2.1,6.6,5.4,6.6c2.5,0,4.5-1.6,5-4.2c0.1-0.1,0.1-0.1,0-0.2s-0.1-0.1-0.2-0.1h-0.7
		c-0.1,0-0.2,0.1-0.2,0.2c-0.5,1.8-2,3-3.9,3c-2.4,0-4.1-2-4.1-5.1h9.2c0.1,0,0.2-0.1,0.2-0.2v-0.4C47.5,70.4,45.5,68.1,42.2,68.1z
		 M38.1,73.8c0.3-2.8,1.9-4.5,4.2-4.5s3.8,1.7,3.9,4.5H38.1z"/>
	<path d="M52,63.7h-0.9c-0.1,0-0.2,0.1-0.2,0.1c-0.1,0.1-0.1,0.1-0.1,0.2L51,76.6c0,0.1,0.1,0.2,0.2,0.2h0.6c0.2,0,0.3-0.1,0.4-0.3
		L52.3,64c0-0.1-0.1-0.2-0.1-0.2C52.1,63.7,52.1,63.7,52,63.7z"/>
	<path d="M52.1,78.8c0-0.1-0.1-0.2-0.2-0.2h-0.8c-0.1,0-0.2,0.1-0.2,0.2v2c0,0.1,0.1,0.2,0.2,0.2h0.8c0.2,0,0.3-0.2,0.2-0.2V78.8z"
		/>
</g>
</svg>
