<?xml version="1.0" encoding="utf-8"?>
<!-- Generator: Adobe Illustrator 19.1.0, SVG Export Plug-In . SVG Version: 6.00 Build 0)  -->
<svg version="1.1" id="Layer_1" xmlns="http://www.w3.org/2000/svg" xmlns:xlink="http://www.w3.org/1999/xlink" x="0px" y="0px"
	 width="130px" height="70px" viewBox="-53 2 130 70" style="enable-background:new -53 2 130 70;" xml:space="preserve">
<g>
	<path d="M-49.2,13.5h7.1L-40,19h1.2L-45,2.6V2.5h-1.2L-52.6,19h1.3L-49.2,13.5z M-48.7,12.3l3.1-8l3.1,8H-48.7z"/>
	<path d="M-31.9,12.6c1.5-0.6,1.8-1.8,1.8-2.6c0-2-1.4-3.1-3.9-3.1h-4.2V19h4.9c2.2,0,3.8-1.5,3.8-3.5
		C-29.5,14.2-30.4,13.1-31.9,12.6z M-37,8.1h2.7c1.9,0,3,0.7,3,1.9c0,1.8-1.9,2.1-3.1,2.1H-37V8.1z M-30.7,15.5c0,1.5-1,2.3-2.9,2.3
		H-37v-4.6h2.6C-33,13.2-30.7,13.8-30.7,15.5z"/>
	<polygon points="-24.4,19 -23.2,19 -23.1,19 -23.1,8 -18.4,8 -18.4,6.9 -29.1,6.9 -29.1,8 -24.4,8 	"/>
	<path d="M-7.3,12.9c0-3.9-2-6.3-5.3-6.3c-3.3,0-5.3,2.4-5.3,6.3c0,3.9,2,6.3,5.3,6.3C-9.3,19.2-7.3,16.8-7.3,12.9z M-12.6,7.8
		c2.6,0,4.1,1.9,4.1,5.2s-1.5,5.2-4.1,5.2c-2.6,0-4.1-2-4.1-5.2C-16.7,9.7-15.2,7.8-12.6,7.8z"/>
	<polygon points="-3.9,9.6 0.4,18.6 1.4,18.6 5.7,9.6 5.7,19 6.8,19 6.8,6.9 5.7,6.9 0.8,17 -4,6.9 -5.1,6.9 -5.1,19 -3.9,19 	"/>
	<path d="M14.6,12c-0.4,0-0.8,0-1.2,0.1c-2.9,0.4-4.8,1.2-4.8,3.7c0,2.1,1.5,3.5,3.7,3.5c1.9,0,3.4-0.7,4.4-1.8
		c0.1,0.9,0.5,1.5,1.7,1.5h0.9v-1.2h-0.7c-0.7,0-0.8-0.1-0.8-1.6v-5.6c0-1,0-1.7-0.5-2.5c-0.7-1-1.9-1.5-3.6-1.5
		C10.9,6.6,9.1,8,9,10.3v0.3h1.2v-0.2c0.1-1.7,1.4-2.6,3.6-2.6c1.3,0,2.9,0.4,2.9,2.2v1.1C16.7,11.7,16.2,11.8,14.6,12z M12.5,18.1
		c-1.8,0-2.7-0.8-2.7-2.4c0-1.6,1.1-2.2,4.2-2.6l0.5-0.1c1.1-0.1,1.8-0.2,2.2-0.4v1.2c0,1.6-0.2,2.4-1.1,3.2
		C14.8,17.7,13.7,18.1,12.5,18.1z"/>
	<polygon points="24,19 25.2,19 25.3,19 25.3,8 30,8 30,6.9 19.3,6.9 19.3,8 24,8 	"/>
	<polygon points="39.2,9.1 39.2,19 40.4,19 40.4,6.9 39.3,6.9 32.2,16.8 32.2,6.9 31,6.9 31,19 32.1,19 	"/>
	<polygon points="52.2,6.9 50.6,6.9 44.2,13.2 44.2,6.9 43,6.9 43,19 44.1,19 44.1,14.8 46.6,12.3 51.1,19 52.6,19 47.6,11.4 	"/>
	<path d="M61.6,16.2v-5.6c0-0.9,0-1.7-0.5-2.5c-0.7-1-1.9-1.5-3.6-1.5c-2.8,0-4.6,1.4-4.7,3.7v0.3H54v-0.2c0.1-1.7,1.4-2.6,3.6-2.6
		c1.3,0,2.9,0.4,2.9,2.2v1.1c0,0.4-0.2,0.6-0.9,0.7c-0.4,0.1-0.9,0.1-1.5,0.2c-0.3,0-0.6,0-0.9,0.1c-2.9,0.4-4.8,1.2-4.8,3.7
		c0,2.1,1.5,3.5,3.7,3.5c1.8,0,3.4-0.7,4.4-1.8c0.1,0.9,0.5,1.5,1.7,1.5h0.9v-1.2h-0.7C61.7,17.8,61.6,17.7,61.6,16.2z M56.3,18.1
		c-1.8,0-2.7-0.8-2.7-2.4c0-1.6,1.1-2.2,4.2-2.6l0.5-0.1c1.1-0.1,1.8-0.2,2.2-0.4v1.2c0,1.6-0.2,2.4-1.1,3.2
		C58.6,17.7,57.5,18.1,56.3,18.1z"/>
	<path d="M-38.3,36.8c0,2.5-0.1,5.2-1.5,5.2h-0.7v-0.3h-1.2V30.8h-7.9v5.4c0,2.6-0.4,4.3-1.3,5.6H-52v4.1h1.2V43h9.1v2.8h1.2v-2.7
		h0.9c0.6,0,1-0.2,1.4-0.5c1.1-1,1.2-3.4,1.2-5.8v-4.7h5.6V43h1.2V31h-8.1V36.8z M-42.8,32v9.8h-6.7c0.8-1.2,1.2-3.1,1.2-5.5V32
		H-42.8z"/>
	<path d="M-27.6,43l3.5-5.2h2.9V43h1.2V31h-4.4c-2.6,0-4.1,1.2-4.1,3.4c0,1.7,1.1,3,3.1,3.3L-29,43H-27.6z M-27.3,34.3
		c0-2,1.8-2.3,2.9-2.3h3.2v4.6h-2.4C-26,36.6-27.3,35.8-27.3,34.3z"/>
	<path d="M-12.3,36.9c0,3.9,2,6.3,5.3,6.3s5.4-2.4,5.3-6.3c0-3.9-2-6.3-5.3-6.3S-12.3,33-12.3,36.9z M-7,31.8c2.6,0,4.1,1.9,4.1,5.2
		s-1.5,5.2-4.1,5.2s-4.1-2-4.1-5.2C-11.1,33.7-9.6,31.8-7,31.8z"/>
	<polygon points="-1,32 3.7,32 3.7,43 4.9,43 5,43 5,32 9.7,32 9.7,30.9 -1,30.9 	"/>
	<polygon points="19.9,30.9 18.3,30.9 11.9,37.2 11.9,30.9 10.7,30.9 10.7,43 11.9,43 11.9,38.8 14.4,36.3 18.9,43 20.4,43 
		15.3,35.4 	"/>
	<path d="M29.3,40.3v-5.6c0-1,0-1.7-0.5-2.5c-0.7-1-1.9-1.5-3.6-1.5c-2.8,0-4.6,1.4-4.7,3.7v0.3h1.2v-0.2c0.1-1.7,1.4-2.6,3.6-2.6
		c1.3,0,2.9,0.4,2.9,2.2v1c0,0.5-0.4,0.7-1.5,0.8c-0.2,0-0.5,0.1-0.8,0.1c-0.3,0-0.7,0-1,0.1c-2.9,0.4-4.8,1.2-4.8,3.7
		c0,2.1,1.5,3.5,3.7,3.5c1.9,0,3.5-0.7,4.5-1.8c0.1,0.9,0.5,1.5,1.7,1.5h0.8v-1.1h-0.7C29.4,41.9,29.3,41.8,29.3,40.3z M24,42.1
		c-1.8,0-2.7-0.8-2.7-2.4c0-1.6,1.1-2.2,4.2-2.6L26,37c1.1-0.1,1.8-0.2,2.2-0.4v1.2c0,1.6-0.2,2.4-1.1,3.2
		C26.3,41.7,25.2,42.1,24,42.1z"/>
	<polygon points="30.8,32 35.5,32 35.5,43 36.7,43 36.8,43 36.8,32 41.5,32 41.5,30.9 30.8,30.9 	"/>
	<polygon points="50.4,36.2 43.7,36.2 43.7,30.9 42.5,30.9 42.5,43 43.7,43 43.7,37.3 50.4,37.3 50.4,43 51.6,43 51.6,30.9 
		50.4,30.9 	"/>
	<rect x="64.5" y="30.9" width="1.2" height="12.1"/>
	<path d="M57.8,36.1h-2.6v-5.2H54V43h4.6c2.3,0,3.8-1.5,3.9-3.5C62.5,37.2,61,36.1,57.8,36.1z M61.3,39.5c0,1.4-1.1,2.3-2.9,2.3
		h-3.1v-4.6h2.4C60.3,37.2,61.3,37.9,61.3,39.5z"/>
	<polygon points="72.2,36.8 76.4,31 75,31 71.6,35.8 68.1,31 66.6,31 70.8,36.8 66.4,43 67.8,43 71.5,37.8 75.2,43 76.6,43 	"/>
	<path d="M-44.7,60.6c1.5-0.6,1.8-1.8,1.8-2.6c0-2-1.4-3.1-3.9-3.1H-51V67h4.9c2.3,0,3.8-1.5,3.8-3.5
		C-42.3,62.2-43.2,61.1-44.7,60.6z M-49.8,56.1h2.7c1.9,0,3,0.7,3,1.9c0,1.8-1.9,2.1-3.1,2.1h-2.6V56.1z M-43.5,63.5
		c0,1.5-1,2.3-2.9,2.3h-3.4v-4.6h2.6C-45.8,61.2-43.5,61.8-43.5,63.5z"/>
	<path d="M-35.7,54.6c-3.3,0-5.3,2.4-5.3,6.3c0,3.9,2,6.3,5.3,6.3s5.3-2.4,5.3-6.3C-30.4,57-32.4,54.6-35.7,54.6z M-35.7,66.2
		c-2.6,0-4.1-2-4.1-5.2c0-3.3,1.5-5.2,4.1-5.2c2.6,0,4.1,1.9,4.1,5.2S-33.1,66.2-35.7,66.2z"/>
	<path d="M-23,54.6c-1.8,0-3.2,0.7-4.1,2.1v-1.8h-1.2v16.6h1.2v-6.3c0.9,1.3,2.3,2,4.1,2c3.3,0,5.3-2.4,5.3-6.3
		C-17.7,57-19.7,54.6-23,54.6z M-18.9,61c0,3.3-1.5,5.2-4.1,5.2s-4.1-2-4.1-5.2s1.6-5.2,4.1-5.2S-18.9,57.8-18.9,61z"/>
	<path d="M-10.9,54.6c-3.3,0-5.3,2.4-5.3,6.3c0,3.9,2,6.3,5.3,6.3c3.3,0,5.4-2.4,5.3-6.3C-5.6,57-7.6,54.6-10.9,54.6z M-10.9,66.2
		c-2.6,0-4.1-2-4.1-5.2c0-3.3,1.5-5.2,4.1-5.2c2.6,0,4.2,1.9,4.1,5.2C-6.8,64.3-8.3,66.2-10.9,66.2z"/>
	<polygon points="-4.9,56 -0.2,56 -0.2,67 1,67 1,56 5.8,56 5.8,54.9 -4.9,54.9 	"/>
</g>
</svg>
