<?xml version="1.0" encoding="utf-8"?>
<!-- Generator: Adobe Illustrator 19.1.0, SVG Export Plug-In . SVG Version: 6.00 Build 0)  -->
<svg version="1.1" id="Layer_1" xmlns="http://www.w3.org/2000/svg" xmlns:xlink="http://www.w3.org/1999/xlink" x="0px" y="0px"
	 width="145px" height="70px" viewBox="-46 2 145 70" style="enable-background:new -46 2 145 70;" xml:space="preserve">
<g>
	<path d="M-42,13.5h7.1l2.1,5.5h1.3l-6.2-16.3l-0.1-0.2H-39L-45.3,19h1.3L-42,13.5z M-41.5,12.3l3.1-8l3.1,8H-41.5z"/>
	<path d="M-22.3,15.5c0-1.3-0.9-2.4-2.4-2.9c1.5-0.6,1.8-1.8,1.8-2.6c0-2-1.4-3.1-3.9-3.1H-31V19h5C-23.8,19-22.2,17.5-22.3,15.5z
		 M-29.8,8.1h2.7c1.9,0,3,0.7,3,1.9c0,1.8-1.9,2.1-3.1,2.1h-2.6V8.1z M-23.5,15.5c0,1.5-1,2.3-2.9,2.3h-3.4v-4.6h2.6
		C-25.8,13.2-23.5,13.8-23.5,15.5z"/>
	<polygon points="-17.2,19 -16,19 -16,8 -11.2,8 -11.2,6.9 -21.9,6.9 -21.9,8 -17.2,8 	"/>
	<path d="M0,12.9C0,9-2,6.6-5.3,6.6s-5.3,2.4-5.3,6.3c0,3.9,2,6.3,5.3,6.3C-2.1,19.2,0,16.8,0,12.9z M-5.3,7.8
		c2.5,0,4.1,1.9,4.1,5.2s-1.5,5.2-4.1,5.2c-2.6,0-4.1-2-4.1-5.2C-9.4,9.7-7.9,7.8-5.3,7.8z"/>
	<polygon points="3.3,9.6 7.6,18.6 8.6,18.6 12.9,9.6 12.9,19 14.1,19 14.1,6.9 13,6.9 8.1,17 3.1,6.9 2,6.9 2,19 3.3,19 	"/>
	<path d="M25.1,16.2v-5.6c0-1,0-1.7-0.5-2.5c-0.7-1-1.9-1.5-3.6-1.5c-2.8,0-4.6,1.4-4.7,3.7v0.3h1.2v-0.2c0.1-1.7,1.4-2.6,3.6-2.6
		c1.3,0,2.9,0.4,2.9,2.2v0.9c0,0.7-0.4,0.8-1.8,1c-0.2,0-0.4,0-0.6,0.1c-0.3,0-0.6,0-0.9,0.1c-2.9,0.4-4.8,1.2-4.8,3.7
		c0,2.1,1.5,3.5,3.7,3.5c1.8,0,3.4-0.7,4.4-1.8c0.1,0.9,0.5,1.5,1.7,1.5h0.9v-1.2h-0.7C25.2,17.8,25.1,17.7,25.1,16.2z M19.8,18.1
		c-1.8,0-2.7-0.8-2.7-2.4c0-1.6,1.1-2.2,4.2-2.6l0.5-0.1c1.1-0.1,1.8-0.2,2.2-0.4v1.2c0,1.6-0.2,2.4-1.1,3.2
		C22.1,17.7,21,18.1,19.8,18.1z"/>
	<polygon points="26.5,8 31.2,8 31.2,19 32.4,19 32.5,19 32.5,8 37.2,8 37.2,6.9 26.5,6.9 	"/>
	<polygon points="46.5,9.1 46.5,19 47.7,19 47.7,6.9 46.6,6.9 39.5,16.8 39.5,6.9 38.3,6.9 38.3,19 39.4,19 	"/>
	<polygon points="51.4,14.8 53.9,12.3 58.4,19 59.9,19 54.8,11.4 59.4,6.9 57.8,6.9 51.4,13.2 51.4,6.9 50.2,6.9 50.2,19 51.4,19 	
		"/>
	<path d="M66.2,11.9c-0.2,0-0.5,0.1-0.8,0.1c-0.3,0-0.7,0-1,0.1c-2.9,0.4-4.8,1.2-4.8,3.7c0,2.1,1.5,3.5,3.7,3.5
		c1.9,0,3.4-0.7,4.4-1.8c0.1,0.9,0.5,1.5,1.7,1.5h0.9v-1.2h-0.7c-0.7,0-0.8-0.1-0.8-1.6v-5.6c0-0.9,0-1.7-0.5-2.5
		c-0.7-1-1.9-1.5-3.6-1.5c-2.8,0-4.6,1.4-4.7,3.7v0.3h1.2v-0.1c0-0.7,0.3-1.2,0.6-1.7c0.6-0.7,1.6-1,3-1c1.3,0,2.9,0.4,2.9,2.2v1.1
		C67.7,11.6,67.3,11.8,66.2,11.9z M63.5,18.1c-1.8,0-2.7-0.8-2.7-2.4c0-1.6,1.1-2.2,4.2-2.6l0.5-0.1c1.1-0.1,1.8-0.2,2.2-0.4v1.2
		c0,1.6-0.2,2.4-1.1,3.2C65.8,17.7,64.7,18.1,63.5,18.1z"/>
	<path d="M-33.3,45.8v-2.7h0.4c0.6,0,1-0.2,1.4-0.5c1.1-1,1.2-3.4,1.2-5.8v-4.7h5.7V43h1.2V31h-8.1v5.8c0,2.5-0.1,5.2-1.5,5.2h-0.3
		v-0.3h-1.2V30.8h-7.9v5.4c0,2.6-0.4,4.3-1.3,5.6h-1.1v4.1h1.3V43h9v2.8H-33.3z M-35.6,32v9.8h-6.7c0.8-1.2,1.2-3.1,1.2-5.5V32
		H-35.6z"/>
	<path d="M-15.1,37.8V43h1.2h0.1V31h-4.4c-2.6,0-4.1,1.2-4.1,3.4c0,1.7,1.1,3,3.1,3.3l-3.6,5.3h1.4l3.4-5.2H-15.1z M-15.1,32v4.6
		h-2.4c-2.4,0-3.7-0.8-3.7-2.3c0-2,1.8-2.3,2.9-2.3H-15.1z"/>
	<path d="M-6.7,30.9v16.6h1.2v-6.3c0.9,1.3,2.3,2,4.1,2c3.3,0,5.3-2.4,5.3-6.3c0-3.9-2-6.3-5.3-6.3c-1.8,0-3.2,0.7-4.1,2.1v-1.8
		H-6.7z M-5.5,37c0-3.2,1.6-5.2,4.1-5.2c2.6,0,4.1,2,4.1,5.2c0,3.3-1.5,5.2-4.1,5.2C-4,42.2-5.5,40.2-5.5,37z"/>
	<path d="M13.9,40.3v-5.6c0-1,0-1.7-0.5-2.5c-0.7-1-1.9-1.5-3.6-1.5c-2.8,0-4.6,1.4-4.7,3.7v0.3h1.2v-0.2c0.1-1.7,1.4-2.6,3.6-2.6
		c1.3,0,2.9,0.4,2.9,2.2v1c0,0.5-0.4,0.7-1.5,0.8c-0.2,0-0.5,0.1-0.8,0.1c-0.3,0-0.7,0-1,0.1c-2.9,0.4-4.8,1.2-4.8,3.7
		c0,2.1,1.5,3.5,3.7,3.5c1.8,0,3.4-0.7,4.4-1.8c0.1,0.9,0.5,1.5,1.7,1.5h0.9v-1.1h-0.7C14,41.9,13.9,41.8,13.9,40.3z M8.6,42.1
		c-1.8,0-2.7-0.8-2.7-2.4c0-1.6,1.1-2.2,4.2-2.6l0.5-0.1c1.1-0.1,1.8-0.2,2.2-0.4v1.2c0,1.6-0.2,2.4-1.1,3.2
		C10.9,41.7,9.8,42.1,8.6,42.1z"/>
	<path d="M24.6,38.9c-0.3,1.9-1.7,3.2-3.6,3.2c-2.6,0-4.1-2-4.1-5.2c0-3.3,1.5-5.2,4.1-5.2c1.8,0,3.1,1.1,3.4,2.8v0.2h1.2v-0.3
		c-0.3-2.4-2-3.8-4.6-3.8c-3.3,0-5.3,2.4-5.3,6.3c0,3.8,2,6.3,5.2,6.3c2.7,0,4.5-1.6,4.9-4.2v-0.3h-1.2V38.9z"/>
	<polygon points="27.1,43 28.3,43 28.3,32 35,32 35,43 36.2,43 36.2,30.9 27.1,30.9 	"/>
	<path d="M46.8,40.3v-5.6c0-1,0-1.7-0.5-2.5c-0.7-1-1.9-1.5-3.6-1.5c-2.8,0-4.6,1.4-4.7,3.7v0.3h1v-0.2c0.1-1.7,1.4-2.6,3.6-2.6
		c1.3,0,2.9,0.4,2.9,2.2v1c0,0.5-0.4,0.7-1.5,0.8c-0.2,0-0.5,0.1-0.8,0.1c-0.3,0-0.7,0-1,0.1c-2.9,0.4-4.8,1.2-4.8,3.7
		c0,2.1,1.5,3.5,3.7,3.5c1.9,0,3.5-0.7,4.6-1.8c0.1,0.9,0.5,1.5,1.7,1.5h0.9v-1.1h-0.7C46.9,41.9,46.8,41.8,46.8,40.3z M38.6,39.7
		c0-1.6,1.1-2.2,4.2-2.6l0.5-0.1c1.1-0.1,1.8-0.2,2.2-0.4v1.2c0,1.6-0.2,2.4-1.1,3.2c-0.8,0.7-1.9,1.1-3.1,1.1
		C39.5,42.1,38.6,41.3,38.6,39.7z"/>
	<polygon points="62.1,30.9 62.1,41.8 56.7,41.8 56.7,30.9 55.5,30.9 55.5,41.8 50.1,41.8 50.1,30.9 48.9,30.9 48.9,43 63.3,43 
		63.3,30.9 	"/>
	<polygon points="73.3,36.2 66.6,36.2 66.6,30.9 65.4,30.9 65.4,43 66.6,43 66.6,37.3 73.3,37.3 73.3,43 74.5,43 74.5,30.9 
		73.3,30.9 	"/>
	<path d="M80,36.1h-2.6v-5.2h-1.2V43h4.7c2.3,0,3.8-1.5,3.8-3.5C84.7,37.2,83.2,36.1,80,36.1z M83.6,39.5c0,1.4-1.1,2.3-2.9,2.3
		h-3.1v-4.6H80C82.6,37.2,83.6,37.9,83.6,39.5z"/>
	<rect x="86.8" y="30.9" width="1.2" height="12.1"/>
	<polygon points="93.8,36.8 98,31 96.6,31 93.2,35.8 89.7,31 88.2,31 92.4,36.8 88,43 89.5,43 93.2,37.8 96.9,43 98.3,43 	"/>
	<path d="M-37.4,60.6c1.5-0.6,1.8-1.8,1.8-2.6c0-2-1.4-3.1-3.9-3.1h-4.2V67h4.9c2.2,0,3.8-1.5,3.8-3.5C-35,62.2-35.9,61.1-37.4,60.6
		z M-42.6,56.1h2.7c1.9,0,3,0.7,3,1.9c0,1.8-1.9,2.1-3.1,2.1h-2.6V56.1z M-36.3,63.5c0,1.5-1,2.3-2.9,2.3h-3.4v-4.6h2.6
		C-38.6,61.2-36.3,61.8-36.3,63.5z"/>
	<path d="M-28.5,54.6c-3.3,0-5.3,2.4-5.3,6.3c0,3.9,2,6.3,5.3,6.3s5.4-2.4,5.3-6.3C-23.2,57-25.2,54.6-28.5,54.6z M-28.5,66.2
		c-2.6,0-4.1-2-4.1-5.2c0-3.3,1.5-5.2,4.1-5.2s4.2,1.9,4.1,5.2C-24.4,64.3-25.9,66.2-28.5,66.2z"/>
	<path d="M-15.8,54.6c-1.8,0-3.2,0.7-4.1,2.1v-1.8h-1.2v16.6h1.2v-6.3c0.9,1.3,2.3,2,4.1,2c3.3,0,5.3-2.4,5.3-6.3
		C-10.5,57-12.5,54.6-15.8,54.6z M-15.8,66.2c-2.6,0-4.1-2-4.1-5.2s1.6-5.2,4.1-5.2c2.6,0,4.1,2,4.1,5.2
		C-11.7,64.3-13.2,66.2-15.8,66.2z"/>
	<path d="M-3.6,54.6c-3.3,0-5.3,2.4-5.3,6.3c0,3.9,2,6.3,5.3,6.3c3.3,0,5.3-2.4,5.3-6.3C1.7,57-0.3,54.6-3.6,54.6z M-3.6,66.2
		c-2.6,0-4.1-2-4.1-5.2c0-3.3,1.5-5.2,4.1-5.2c2.6,0,4.1,1.9,4.1,5.2S-1,66.2-3.6,66.2z"/>
	<polygon points="2.3,56 7,56 7,67 8.2,67 8.3,67 8.3,56 13,56 13,54.9 2.3,54.9 	"/>
</g>
</svg>
