<?xml version="1.0" encoding="utf-8"?>
<!-- Generator: Adobe Illustrator 19.1.0, SVG Export Plug-In . SVG Version: 6.00 Build 0)  -->
<svg version="1.1" id="Layer_1" xmlns="http://www.w3.org/2000/svg" xmlns:xlink="http://www.w3.org/1999/xlink" x="0px" y="0px"
	 width="102px" height="75px" viewBox="0 0 102 75" style="enable-background:new 0 0 102 75;" xml:space="preserve">
<style type="text/css">
	.st0{fill:#FD2016;}
	.st1{fill:#0073BB;}
	.st2{fill:#C4C4C3;}
</style>
<g>
	<g>
		<path d="M60.4,35.8c1.6,0,3.1,0,4.7,0c0.3,0,0.4,0.2,0.4,0.4c0.5,1.3,1,2.5,1.6,3.8c0.7,1.7,1.3,3.3,2,5c0.1,0.2,0.2,0.5,0.3,0.8
			c1.3-3.3,2.7-6.6,4-9.8c0,0,0,0,0.1-0.1c1.7,0,3.3,0,5,0c0,0,0,0,0.1,0.1c-0.3,0.7-0.6,1.4-0.9,2.2c-0.7,1.7-1.4,3.3-2.2,5
			c-0.5,1.2-1,2.4-1.6,3.5c-0.4,0.9-0.8,1.9-1.2,2.8c0,0,0,0-0.1,0.1c-2.1,0-4.2,0-6.3,0c0,0,0,0-0.1-0.1c-0.5-1-0.9-2.1-1.4-3.1
			c-0.5-1.2-1-2.4-1.5-3.6c-0.7-1.7-1.4-3.3-2.1-5C60.9,37.1,60.6,36.5,60.4,35.8C60.4,35.9,60.4,35.9,60.4,35.8z"/>
		<path d="M36.3,49.5c-2.1,0-4.2,0-6.3,0c0,0,0,0-0.1-0.1c-0.5-1-0.9-2.1-1.4-3.1c-0.5-1.2-1-2.4-1.5-3.6c-0.7-1.7-1.4-3.3-2.1-5
			c-0.3-0.6-0.5-1.2-0.8-1.8c0,0,0,0,0-0.1c1.6,0,3.1,0,4.7,0c0.3,0,0.4,0.2,0.4,0.4c0.5,1.3,1,2.5,1.6,3.8c0.7,1.7,1.3,3.3,2,5
			c0.1,0.2,0.2,0.5,0.3,0.8c1.3-3.3,2.7-6.6,4-9.8c0,0,0,0,0.1-0.1c1.7,0,3.3,0,5,0c0,0,0,0,0.1,0.1c-0.3,0.7-0.6,1.4-0.9,2.2
			c-0.7,1.7-1.4,3.3-2.2,5c-0.5,1.2-1,2.4-1.6,3.5C37.2,47.6,36.8,48.5,36.3,49.5C36.3,49.5,36.3,49.5,36.3,49.5z"/>
		<path d="M77.9,51.9c0.6,0,1.2,0,1.7,0c0,0,0,0,0.1,0.1c0,1.7,0,3.3,0,5c0,0,0,0-0.1,0.1c-1.7,0-3.3,0-5,0c-0.6,0-1.1-0.6-1.1-1.4
			c0-1.2,0-2.4,0-3.7c0,0,0,0,0.1-0.1c0.6,0,1.2,0,1.7,0c0,0,0,0,0.1,0.1c0,1.1,0,2.2,0,3.3c0,0.3,0.1,0.4,0.4,0.4
			c0.5,0,1.1,0,1.6,0c0.3,0,0.4-0.1,0.4-0.4C77.8,54.2,77.9,53.1,77.9,51.9C77.9,52,77.9,51.9,77.9,51.9z"/>
		<path d="M62.3,57c-0.6,0-1.2,0-1.7,0c0,0,0,0-0.1-0.1c0-1.7,0-3.4,0-5.1c0,0,0,0,0.1-0.1c1.2,0,2.3,0,3.5,0c0.7,0,1.2,0.6,1.2,1.3
			c0,0.2,0,0.3,0,0.5c0,0,0,0-0.1,0.1c-0.6,0-1.2,0-1.7,0c0,0,0,0-0.1-0.1c-0.1-0.1,0.1-0.4-0.1-0.4c-0.3-0.1-0.6,0-0.8,0
			c-0.1,0-0.1,0.2-0.1,0.3C62.4,54.7,62.4,55.8,62.3,57C62.3,57,62.3,57,62.3,57z"/>
		<g>
			<path d="M43.6,39.6c0.1-1.2,0.5-2.2,1.4-2.9c0.7-0.6,1.6-0.8,2.5-0.8c3.6,0,7.2,0,10.8,0c0,0,0,0,0.1,0.1c0,1.2,0,2.4,0,3.7
				c0,0,0,0-0.1,0.1c-3,0-6,0-9,0C47.5,39.7,45.6,39.6,43.6,39.6C43.7,39.6,43.7,39.6,43.6,39.6z"/>
			<path d="M43.7,40.8c3.9,0,7.8-0.1,11.7,0c2,0,3.4,1.6,3.5,3.5c0,0,0,0,0,0.1c-3.7,0-7.5,0-11.2,0c-1,0-1.9-0.1-2.6-0.7
				c0,0,0,0-0.1-0.1c-0.1-0.1-0.1-0.1-0.2-0.2c0,0,0,0-0.1-0.1c-0.6-0.6-0.9-1.4-1-2.2C43.7,41.1,43.7,40.8,43.7,40.8z"/>
			<path d="M58.8,45.7c-1.7,0-3.4,0-5.2,0c-3.3,0-6.6,0-10,0c0,0,0,0-0.1,0.1c0,1.2,0,2.4,0,3.7c0,0,0,0,0.1,0.1c0.5,0,1,0,1.6,0
				c3.5-0.1,6.9,0.1,10.4-0.1c0.8,0,1.5-0.4,2.1-0.9C58.5,47.8,58.9,46.9,58.8,45.7C58.9,45.7,58.9,45.7,58.8,45.7z"/>
		</g>
		<path d="M59.6,53c0-0.6-0.6-1.1-1.2-1.1c-1.3,0-2.6,0-3.9,0c-0.9,0-1.4,0.5-1.4,1.5c0,0.8,0,1.6,0,2.4c0,0.8,0.5,1.3,1.3,1.3
			c0.7,0,1.5,0,2.2,0c0.4,0,0.8-0.2,1,0.1c0.2,0.2,0,0.7,0.1,1.1c0,0.3-0.1,0.4-0.4,0.3c-1.2,0-2.5,0-3.7,0c0,0,0,0-0.1,0.1
			c0,0.4,0,0.8,0,1.2c0,0,0,0,0.1,0.1c1.6,0,3.3,0,4.9,0c0.6,0,1.1-0.5,1.1-1.1C59.6,56.9,59.6,54.9,59.6,53z M57.4,53.3
			c0.2,0,0.3,0,0.3,0.3c0,0.6,0,1.2,0,1.8c0,0.2-0.1,0.3-0.3,0.3c-0.7,0-1.4,0-2.1,0c-0.2,0-0.3,0-0.3-0.3c0-0.6,0-1.2,0-1.8
			c0-0.2,0.1-0.3,0.3-0.3c0.2,0,0.4,0,0.6,0c0.2,0,0.4,0,0.6,0"/>
		<path d="M87.2,53c0-0.7-0.5-1.2-1.2-1.2c-1.7,0-3.5,0-5.2,0c0,0,0,0-0.1,0.1c0,2.6,0,5.2,0,7.9c0,0,0,0,0.1,0.1c0.6,0,1.2,0,1.7,0
			c0,0,0,0,0.1-0.1c0-0.8,0-1.6,0-2.4c0-0.3,0.1-0.4,0.4-0.4c1,0,2-0.1,3,0c0.7,0.1,1.3-0.7,1.3-1.3C87.2,54.9,87.2,53.9,87.2,53z
			 M85.3,55.2c0,0.2-0.1,0.3-0.3,0.3c-0.7,0-1.4,0-2.1,0c-0.2,0-0.3,0-0.3-0.3c0-0.6,0-1.2,0-1.7c0-0.2,0.1-0.3,0.3-0.3
			c0.2,0,0.4,0,0.6,0s0.4,0,0.6,0c0.2,0,0.3,0,0.5,0c0.2,0,0.3,0,0.5,0c0.2,0,0.3,0,0.3,0.3C85.3,54.1,85.3,54.6,85.3,55.2z"/>
		<path d="M72.7,53c0-0.8-0.7-1.3-1.3-1.3c-1.3,0-2.6,0-3.9,0c-0.3,0-0.6,0.1-0.9,0.3c0,0,0,0-0.1,0.1c-0.3,0.3-0.4,0.6-0.4,1
			c0,0.9,0,1.8,0,2.7c0,0.9,0.6,1.3,1.2,1.3c1.4,0,2.9,0,4.3,0c0.7,0,1.2-0.5,1.1-1.2C72.7,54.9,72.7,54,72.7,53z M70.5,55.7
			c-0.1,0-0.2,0-0.3,0c-0.3,0-0.6,0-0.9,0c-0.2,0-0.4,0-0.6,0c-0.2,0-0.4,0-0.6,0c-0.2,0-0.2-0.1-0.2-0.2c0-0.7,0-1.3,0-2
			c0-0.2,0.1-0.3,0.3-0.3c0.8,0,1.5,0,2.3,0c0.2,0,0.3,0.1,0.3,0.3c0,0.6,0,1.3,0,1.9C70.8,55.6,70.7,55.7,70.5,55.7z"/>
		<path class="st0" d="M35.1,19.4c0,0,24.9-7.7,49.4,9.1C110.9,46.7,97.7,62,97.7,62.1c-1.6,2-10.2,12.9-34.9,10.5
			c0,0,21.2,0.3,27.1-15c5.2-13.5-10.5-25-10.5-25S62.7,17.3,35.1,19.4z"/>
		<path class="st1" d="M39.4,14.7c0,0-24.9-2.7-35,10.5c-9.7,12.6,4.5,26.5,5.2,27.3c0,0,11.9,12.7,32.9,16.2
			c15.1,2.5,24.9-0.9,24.9-0.9s-29.1,4.6-50.1-17.9c0,0-9-9.2-5.2-20.2S30.9,15.4,39.4,14.7z"/>
		<path class="st2" d="M62,16.7c0,0-16.3-19-34.5-15.8c0,0-13.1,2-15.3,18.1c0,0-2.3,11.7,5.7,28.4c0,0,8.4,18,24.4,27
			c0,0-13.6-10.7-20-28.3c0,0-5.7-16.1-0.5-27.4S37.7,7.6,37.7,7.6S49.5,6.3,62,16.7z"/>
	</g>
</g>
</svg>
