<?xml version="1.0" encoding="utf-8"?>
<!-- Generator: Adobe Illustrator 19.1.0, SVG Export Plug-In . SVG Version: 6.00 Build 0)  -->
<svg version="1.1" id="Layer_1" xmlns="http://www.w3.org/2000/svg" xmlns:xlink="http://www.w3.org/1999/xlink" x="0px" y="0px"
	 width="295px" height="60px" viewBox="0 0 295 60" style="enable-background:new 0 0 295 60;" xml:space="preserve">
<g>
	<g>
		<path d="M3,19.6v0.1c0,4.4,2.4,6.9,6.3,6.9c4,0,6.9-2.5,6.9-6.2c0-3.9-2.5-5.8-7.6-5.8H7.8v-1c0.3,0,0.6,0,0.9,0
			c4.4,0,6.8-2.2,6.8-5.7c0-3.2-2.1-5.1-5.8-5.1c-3.7,0-6,2.3-6,6.1v0.2H2.5V9c0-4.7,2.7-7.3,7.4-7.3c4.1,0,6.8,2.5,6.8,6.2
			c0,3-1.6,5.3-4.2,6.1c3.1,0.7,5,3,5,6.2c0,4.5-3.2,7.6-8.1,7.6c-4.7,0-7.6-2.9-7.6-8v-0.2H3z"/>
		<path d="M9.3,27.9c-4.9,0-7.8-3.1-7.8-8.2v-0.4h1.6v0.3c0,4.3,2.2,6.7,6.1,6.7c3.9,0,6.7-2.5,6.7-6c0-3.7-2.4-5.6-7.4-5.6h-1v-1.4
			h0.2c0.2,0,0.3,0,0.5,0c0.1,0,0.3,0,0.4,0c4.2,0,6.6-2,6.6-5.5c0-3.1-2.1-4.9-5.6-4.9C6,3,3.8,5.2,3.8,8.9v0.4H2.3V9
			c0-4.8,2.8-7.5,7.6-7.5c4.2,0,7,2.6,7,6.4c0,2.8-1.4,5.1-3.8,6.1c2.8,0.9,4.5,3.2,4.5,6.2C17.6,24.8,14.3,27.9,9.3,27.9z M2,19.8
			c0,4.9,2.7,7.8,7.4,7.8c4.7,0,7.9-3,7.9-7.4c0-3.1-1.8-5.3-4.8-6L11.7,14l0.7-0.2c2.5-0.8,4.1-3.1,4.1-5.9c0-3.6-2.7-6-6.6-6
			c-4.5,0-7.1,2.6-7.2,7h0.7c0-4,2.3-6.3,6.2-6.3c3.8,0,6,2,6,5.3c0,3.7-2.6,5.9-7,5.9c-0.1,0-0.3,0-0.4,0c-0.1,0-0.2,0-0.3,0v0.6
			h0.6c5.3,0,7.8,2,7.8,6c0,3.8-2.9,6.4-7.1,6.4c-4.1,0-6.5-2.5-6.5-7H2z"/>
	</g>
	<g>
		<path d="M46.2,0.8V2H32.4v25h-1.2V0.8H46.2z"/>
		<path d="M32.6,27.3h-1.6V0.6h15.5v1.6H32.6V27.3z M31.3,26.9h0.8v-25H46V1H31.3V26.9z"/>
	</g>
	<g>
		<path d="M56.4,0.3C63.6,0.3,68,5.4,68,14c0,8.5-4.4,13.7-11.6,13.7S44.8,22.5,44.8,14C44.8,5.4,49.2,0.3,56.4,0.3z M56.4,26.5
			c6.4,0,10.4-4.7,10.4-12.6c0-7.9-3.9-12.6-10.4-12.6S46.1,6.1,46.1,14C46.1,21.8,50,26.5,56.4,26.5z"/>
		<path d="M56.4,27.8c-7.4,0-11.8-5.2-11.8-13.9c0-8.6,4.5-13.9,11.8-13.9c7.3,0,11.8,5.3,11.8,13.9C68.2,22.5,63.7,27.8,56.4,27.8z
			 M56.4,0.5C49.3,0.5,45,5.5,45,14c0,8.4,4.3,13.5,11.4,13.5c7.1,0,11.4-5,11.4-13.5C67.8,5.5,63.6,0.5,56.4,0.5z M56.4,26.7
			c-6.6,0-10.5-4.8-10.5-12.8c0-8,3.9-12.8,10.5-12.8C62.9,1.2,67,6.1,67,14C67,21.9,63,26.7,56.4,26.7z M56.4,1.6
			c-6.3,0-10.1,4.6-10.1,12.4c0,7.7,3.8,12.4,10.1,12.4c6.4,0,10.2-4.6,10.2-12.4C66.6,6.2,62.8,1.6,56.4,1.6z"/>
	</g>
	<g>
		<path d="M72.7,25.9c1.9-2.5,2.8-5.4,2.8-13.1v-12h16.2v25.1h2.5v7.5h-1.2v-6.3H71.9v6.3h-1.2v-7.5H72.7z M76.8,1.9v12.4
			c0,5.1-0.9,9.5-2.6,11.5h16.4v-24H76.8z"/>
		<path d="M94.5,33.6h-1.6v-6.3H72.1v6.3h-1.6v-7.9h2.1c1.8-2.3,2.7-5.1,2.7-12.9V0.7h16.6v25.1h2.5V33.6z M93.3,33.2h0.8v-7.1h-2.5
			V1.1H75.7v11.8c0,8-1,10.8-2.9,13.2l-0.1,0.1h-1.9v7.1h0.8v-6.3h21.6V33.2z M90.7,26.1h-17l0.3-0.3c1.6-1.9,2.6-6.2,2.6-11.4V1.7
			h14.1V26.1z M74.5,25.7h15.8V2.1H77v12.2C77,19.4,76.1,23.6,74.5,25.7z"/>
	</g>
	<g>
		<path d="M104.5,0.8h1.4l10,26.2h-1.2l-3.4-8.9H99.1l-3.4,8.9h-1.2L104.5,0.8z M110.8,17l-5.6-14.8L99.5,17H110.8z"/>
		<path d="M116.2,27.3h-1.6l-3.4-8.9h-12l-3.4,8.9h-1.7l0.1-0.3l10.2-26.4h1.6l0,0.1L116.2,27.3z M114.8,26.9h0.8L105.8,1h-1.1
			l-10,25.8h0.8l3.4-8.9h12.5L114.8,26.9z M111.1,17.2H99.2l6-15.5L111.1,17.2z M99.8,16.8h10.8l-5.3-14L99.8,16.8z"/>
	</g>
	<g>
		<path d="M142.7,0.8V2h-13.9v25h-1.2V0.8H142.7z"/>
		<path d="M129,27.3h-1.6V0.6h15.5v1.6H129V27.3z M127.8,26.9h0.8v-25h13.9V1h-14.7V26.9z"/>
	</g>
	<g>
		<path d="M148.8,0.8h1.4l10,26.2H159l-3.4-8.9h-12.2l-3.4,8.9h-1.2L148.8,0.8z M155.1,17l-5.6-14.8L143.8,17H155.1z"/>
		<path d="M160.4,27.3h-1.6l0-0.1l-3.3-8.8h-12l-3.4,8.9h-1.7l0.1-0.3l10.2-26.4h1.6l0,0.1L160.4,27.3z M159.1,26.9h0.8L150.1,1H149
			l-10,25.8h0.8l3.4-8.9h12.5l0,0.1L159.1,26.9z M155.4,17.2h-11.9l6-15.5L155.4,17.2z M144.1,16.8h10.8l-5.3-14L144.1,16.8z"/>
	</g>
	<g>
		<path d="M179.2,7.8c0,2.1-0.7,3.9-1.9,5.2c-1.7,1.7-4.1,2-7.6,2h-5.8v12.1h-1.2V0.8h7.1C176.1,0.8,179.2,3,179.2,7.8z M163.8,1.9
			v11.9h5c2.6,0,4.5,0,6.1-0.7c1.8-0.8,3-2.9,3-5.5c0-2.2-0.9-3.8-2.6-4.8c-1.6-0.9-3.6-0.9-6.4-0.9H163.8z"/>
		<path d="M164,27.3h-1.6V0.6h7.3c6.6,0,9.6,2.3,9.6,7.1c0,2.1-0.7,4-2,5.3c-1.7,1.7-4,2-7.7,2H164V27.3z M162.8,26.9h0.8V14.7h6
			c3.6,0,5.8-0.3,7.4-1.9c1.2-1.2,1.9-3,1.9-5.1c0-4.6-2.9-6.7-9.2-6.7h-6.9V26.9z M168.8,14.1h-5.2V1.7h5.2c2.8,0,4.9,0.1,6.5,1
			c1.8,1,2.7,2.7,2.7,4.9c0,2.7-1.2,4.9-3.1,5.7C173.4,14.1,171.4,14.1,168.8,14.1z M164,13.7h4.8c2.5,0,4.5,0,6-0.7
			c1.8-0.8,2.9-2.8,2.9-5.3c0-2.1-0.9-3.7-2.5-4.6c-1.5-0.8-3.6-0.9-6.3-0.9H164V13.7z"/>
	</g>
	<g>
		<path d="M190.3,0.8h1.4l10,26.2h-1.2l-3.4-8.9h-12.2l-3.4,8.9h-1.2L190.3,0.8z M196.6,17L191,2.3L185.2,17H196.6z"/>
		<path d="M201.9,27.3h-1.6l0-0.1l-3.3-8.8h-12l-3.4,8.9h-1.7l10.3-26.6h1.6l0,0.1L201.9,27.3z M200.5,26.9h0.8L191.5,1h-1.1
			l-10,25.8h0.8l3.4-8.9h12.5l0,0.1L200.5,26.9z M196.9,17.2h-11.9l6-15.5L196.9,17.2z M185.5,16.8h10.8l-5.3-14L185.5,16.8z"/>
	</g>
	<g>
		<path d="M204,0.8h1.2v11.7h16.6V0.8h1.2v26.2h-1.2V13.6h-16.6v13.5H204V0.8z"/>
		<path d="M223.3,27.3h-1.6V13.8h-16.2v13.5h-1.6V0.6h1.6v11.7h16.2V0.6h1.6V27.3z M222,26.9h0.8V1H222v11.7h-17V1h-0.8v25.8h0.8
			V13.4h17V26.9z"/>
	</g>
	<g>
		<path d="M234.6,2h-8.3V0.8h17.7V2h-8.2v25.1h-1.2V2z"/>
		<path d="M236,27.3h-1.6V2.2h-8.3V0.6h18.1v1.6H236V27.3z M234.8,26.9h0.8V1.8h8.2V1h-17.3v0.8h8.3V26.9z"/>
	</g>
	<g>
		<path d="M264.8,27.1V3l-16.4,24.1h-1.2V0.8h1.2V25l16.4-24.1h1.3v26.2H264.8z"/>
		<path d="M266.2,27.3h-1.6V3.6l-16.1,23.6h-1.5V0.6h1.6v23.7l16.1-23.7h1.6V27.3z M265,26.9h0.8V1h-1l-16.7,24.6V1h-0.8v25.8h0.9
			L265,2.3V26.9z"/>
	</g>
	<g>
		<path d="M289.4,27.1V3l-16.4,24.1h-1.2V0.8h1.2V25l16.4-24.1h1.3v26.2H289.4z"/>
		<path d="M290.8,27.3h-1.6V3.6L273,27.3h-1.5V0.6h1.6v23.7l16.1-23.7h1.6V27.3z M289.6,26.9h0.8V1h-1l-16.7,24.6V1h-0.8v25.8h0.9
			l16.8-24.5V26.9z"/>
	</g>
	<g>
		<path d="M7.6,41.1c4,0,6.5,2.9,6.5,7.7s-2.5,7.7-6.5,7.7s-6.5-2.9-6.5-7.7S3.6,41.1,7.6,41.1z M7.6,55.9c3.6,0,5.8-2.6,5.8-7.1
			c0-4.4-2.2-7.1-5.8-7.1s-5.8,2.7-5.8,7.1C1.8,53.2,4,55.9,7.6,55.9z"/>
		<path d="M7.6,56.7c-4.1,0-6.7-3-6.7-7.9c0-4.9,2.6-7.9,6.7-7.9c4.2,0,6.7,3,6.7,7.9C14.4,53.7,11.8,56.7,7.6,56.7z M7.6,41.3
			c-4,0-6.3,2.8-6.3,7.5c0,4.7,2.4,7.5,6.3,7.5c4,0,6.3-2.8,6.3-7.5C14,44.1,11.6,41.3,7.6,41.3z M7.6,56.1c-3.8,0-6-2.7-6-7.3
			c0-4.6,2.2-7.3,6-7.3c3.7,0,6,2.8,6,7.3C13.7,53.3,11.4,56.1,7.6,56.1z M7.6,41.9c-3.5,0-5.6,2.6-5.6,6.9c0,4.3,2.1,6.9,5.6,6.9
			c3.5,0,5.6-2.6,5.6-6.9C13.3,44.5,11.2,41.9,7.6,41.9z"/>
	</g>
	<g>
		<path d="M20,42.1h-4.7v-0.6h9.9v0.6h-4.6v14.1H20V42.1z"/>
		<path d="M20.9,56.4h-1.1V42.3h-4.7v-1.1h10.3v1.1h-4.6V56.4z M20.2,56h0.3V41.9H25v-0.2h-9.5v0.2h4.7V56z"/>
	</g>
	<g>
		<path d="M38,41.1c4,0,6.5,2.9,6.5,7.7S42,56.5,38,56.5s-6.5-2.9-6.5-7.7S33.9,41.1,38,41.1z M38,55.9c3.6,0,5.8-2.6,5.8-7.1
			c0-4.4-2.2-7.1-5.8-7.1s-5.8,2.7-5.8,7.1C32.2,53.2,34.4,55.9,38,55.9z"/>
		<path d="M38,56.7c-4.1,0-6.7-3-6.7-7.9c0-4.9,2.6-7.9,6.7-7.9c4.2,0,6.7,3,6.7,7.9C44.7,53.7,42.1,56.7,38,56.7z M38,41.3
			c-4,0-6.3,2.8-6.3,7.5c0,4.7,2.4,7.5,6.3,7.5c4,0,6.3-2.8,6.3-7.5C44.3,44.1,42,41.3,38,41.3z M38,56.1c-3.8,0-6-2.7-6-7.3
			c0-4.6,2.2-7.3,6-7.3c3.7,0,6,2.8,6,7.3C44,53.3,41.7,56.1,38,56.1z M38,41.9c-3.5,0-5.6,2.6-5.6,6.9c0,4.3,2.1,6.9,5.6,6.9
			c3.5,0,5.6-2.6,5.6-6.9C43.6,44.5,41.5,41.9,38,41.9z"/>
	</g>
	<g>
		<path d="M53.4,54.3c-3.9,0-7.3-1.7-7.3-5.8c0-3.7,2.7-5.7,7.3-5.7v-1.7h0.7v1.7c4.5,0,7.3,2,7.3,5.7c0,4.1-3.3,5.8-7.3,5.8v1.9
			h-0.7V54.3z M53.4,43.4c-3.6,0-6.6,1.4-6.6,5.1c0,3.7,2.8,5.2,6.6,5.2V43.4z M54.1,53.7c3.8,0,6.6-1.5,6.6-5.2
			c0-3.7-3-5.1-6.6-5.1V53.7z"/>
		<path d="M54.3,56.4h-1.1v-1.9c-4.6-0.1-7.3-2.3-7.3-6c0-3.7,2.7-5.9,7.3-5.9v-1.7h1.1v1.7c4.6,0.1,7.3,2.2,7.3,5.9
			c0,3.7-2.7,5.9-7.3,6V56.4z M53.6,56h0.3v-1.9h0.2c4.4,0,7.1-2.1,7.1-5.6S58.6,43,54.1,43h-0.2v-1.7h-0.3V43h-0.2
			c-4.5,0-7.1,2-7.1,5.5s2.6,5.6,7.1,5.6h0.2V56z M54.1,53.9h-0.2V43.2h0.2c4.3,0,6.8,1.9,6.8,5.3C60.9,51.9,58.5,53.9,54.1,53.9z
			 M54.3,43.6v9.9c2.4,0,6.2-0.8,6.2-5C60.5,44.2,56.3,43.6,54.3,43.6z M53.6,53.9h-0.2c-4.4,0-6.8-1.9-6.8-5.4
			c0-3.4,2.5-5.3,6.8-5.3h0.2V53.9z M53.2,43.6c-2,0-6.2,0.6-6.2,4.9c0,4.2,3.8,4.9,6.2,5V43.6z"/>
	</g>
	<g>
		<path d="M73.6,56.2V42.6l-9.3,13.6h-0.7V41.4h0.7V55l9.2-13.6h0.7v14.8H73.6z"/>
		<path d="M74.5,56.4h-1.1V43.3l-8.9,13.1h-1V41.2h1.1v13.1l8.9-13.1h1V56.4z M73.8,56h0.3V41.6h-0.4l-9.5,14v-14h-0.3V56h0.4
			l9.6-14V56z"/>
	</g>
	<g>
		<path d="M77.4,41.4h0.7v14.1h9.3V41.4h0.7v14.1h1.2v4.2h-0.6v-3.6H77.4V41.4z"/>
		<path d="M89.5,59.9h-1v-3.6H77.2V41.2h1.1v14.1h8.9V41.2h1.1v14.1h1.2V59.9z M88.8,59.5h0.2v-3.8h-1.2V41.6h-0.3v14.1h-9.7V41.6
			h-0.3V56h11.2V59.5z"/>
	</g>
	<g>
		<path d="M101.2,56.2V42.6L92,56.2h-0.7V41.4H92V55l9.2-13.6h0.7v14.8H101.2z"/>
		<path d="M102.1,56.4H101V43.3l-8.9,13.1h-1V41.2h1.1v13.1l8.9-13.1h1V56.4z M101.4,56h0.3V41.6h-0.4l-9.5,14v-14h-0.3V56h0.4
			l9.6-14V56z"/>
	</g>
	<g>
		<path d="M108.9,41.4h0.8l5.6,14.8h-0.7l-1.9-5h-6.9l-1.9,5h-0.7L108.9,41.4z M112.5,50.5l-3.2-8.3l-3.2,8.3H112.5z"/>
		<path d="M115.6,56.4h-1.1l-1.9-5H106l-1.9,5h-1.1l5.9-15.2h1L115.6,56.4z M114.8,56h0.2l-5.4-14.4h-0.5L103.5,56h0.3l1.9-5h7.2
			L114.8,56z M112.8,50.7h-7l3.5-9.1L112.8,50.7z M106.4,50.3h5.8l-2.9-7.5L106.4,50.3z"/>
	</g>
	<g>
		<path d="M115.5,55.5c1.8,0,2.1-3.8,2.1-7.3v-6.8h9.3v14.8h-0.7V42.1h-7.9v7c0,3-0.4,7.1-2.8,7.1c-0.4,0-0.6,0-0.9-0.1v-0.7
			C114.9,55.4,115.1,55.5,115.5,55.5z"/>
		<path d="M127.1,56.4H126V42.3h-7.5v6.8c0,3.3-0.5,7.3-3,7.3c-0.3,0-0.5,0-0.7,0c-0.1,0-0.2,0-0.3,0l-0.2,0v-1.1l0.2,0
			c0.1,0,0.2,0,0.3,0c0.2,0,0.3,0,0.6,0c1.7,0,1.9-4.1,1.9-7.1v-7h9.7V56.4z M126.4,56h0.3V41.6h-8.9v6.6c0,3.7-0.3,7.5-2.3,7.5
			c-0.3,0-0.5,0-0.6,0c0,0,0,0-0.1,0v0.3c0,0,0.1,0,0.1,0c0.2,0,0.4,0,0.6,0c2.2,0,2.6-4.3,2.6-6.9v-7.2h8.3V56z"/>
	</g>
	<g>
		<path d="M130.3,56.2V41.4h0.7v6.8h3.7c1.9,0,3.3,0.1,4.3,1.1c0.7,0.7,1.1,1.7,1.1,2.9c0,2.7-1.7,3.9-5.3,3.9H130.3z M137.8,55
			c1-0.5,1.5-1.5,1.5-2.7c0-1.5-0.6-2.7-1.7-3.1c-0.9-0.4-2-0.4-3.4-0.4h-3.2v6.7h3.2C135.8,55.5,136.9,55.5,137.8,55z"/>
		<path d="M134.7,56.4h-4.6V41.2h1.1V48h3.5c2.1,0,3.4,0.2,4.4,1.2c0.7,0.7,1.2,1.8,1.2,3.1C140.2,55.1,138.4,56.4,134.7,56.4z
			 M130.5,56h4.2c3.5,0,5.1-1.1,5.1-3.7c0-1.1-0.4-2.1-1-2.8c-0.9-0.9-2.1-1.1-4.1-1.1h-3.9v-6.8h-0.3V56z M134.2,55.7h-3.4v-7.1
			h3.4c1.4,0,2.6,0,3.5,0.4c1.1,0.5,1.8,1.7,1.8,3.3c0,1.3-0.5,2.3-1.6,2.9C137,55.7,135.8,55.7,134.2,55.7z M131.1,55.3h3
			c1.5,0,2.7,0,3.5-0.5l0,0c0.9-0.5,1.4-1.4,1.4-2.5c0-1.4-0.6-2.5-1.6-2.9c-0.8-0.4-1.9-0.4-3.3-0.4h-3V55.3z"/>
	</g>
	<g>
		<path d="M142.2,41.4h0.7V48h9.3v-6.6h0.7v14.8h-0.7v-7.6h-9.3v7.6h-0.7V41.4z"/>
		<path d="M153.1,56.4h-1.1v-7.6h-8.9v7.6H142V41.2h1.1v6.6h8.9v-6.6h1.1V56.4z M152.5,56h0.3V41.6h-0.3v6.6h-9.7v-6.6h-0.3V56h0.3
			v-7.6h9.7V56z"/>
	</g>
	<g>
		<path d="M162,41.1c4,0,6.5,2.9,6.5,7.7s-2.5,7.7-6.5,7.7c-4,0-6.5-2.9-6.5-7.7S158,41.1,162,41.1z M162,55.9
			c3.6,0,5.8-2.6,5.8-7.1c0-4.4-2.2-7.1-5.8-7.1s-5.8,2.7-5.8,7.1C156.2,53.2,158.4,55.9,162,55.9z"/>
		<path d="M162,56.7c-4.1,0-6.7-3-6.7-7.9c0-4.9,2.6-7.9,6.7-7.9c4.2,0,6.7,3,6.7,7.9C168.7,53.7,166.1,56.7,162,56.7z M162,41.3
			c-4,0-6.3,2.8-6.3,7.5c0,4.7,2.4,7.5,6.3,7.5c4,0,6.3-2.8,6.3-7.5C168.3,44.1,166,41.3,162,41.3z M162,56.1c-3.8,0-6-2.7-6-7.3
			c0-4.6,2.2-7.3,6-7.3c3.7,0,6,2.8,6,7.3C168,53.3,165.7,56.1,162,56.1z M162,41.9c-3.5,0-5.6,2.6-5.6,6.9c0,4.3,2.1,6.9,5.6,6.9
			c3.5,0,5.6-2.6,5.6-6.9C167.6,44.5,165.5,41.9,162,41.9z"/>
	</g>
	<g>
		<path d="M179.6,41.4v0.7h-7.8v14.1h-0.7V41.4H179.6z"/>
		<path d="M172,56.4h-1.1V41.2h8.9v1.1H172V56.4z M171.3,56h0.3V41.9h7.8v-0.3h-8.1V56z"/>
	</g>
	<g>
		<path d="M185.2,41.1c4,0,6.5,2.9,6.5,7.7s-2.5,7.7-6.5,7.7c-4,0-6.5-2.9-6.5-7.7S181.2,41.1,185.2,41.1z M185.2,55.9
			c3.6,0,5.8-2.6,5.8-7.1c0-4.4-2.2-7.1-5.8-7.1s-5.8,2.7-5.8,7.1C179.4,53.2,181.6,55.9,185.2,55.9z"/>
		<path d="M185.2,56.7c-4.1,0-6.7-3-6.7-7.9c0-4.9,2.6-7.9,6.7-7.9c4.2,0,6.7,3,6.7,7.9C192,53.7,189.4,56.7,185.2,56.7z
			 M185.2,41.3c-4,0-6.3,2.8-6.3,7.5c0,4.7,2.4,7.5,6.3,7.5c4,0,6.3-2.8,6.3-7.5C191.6,44.1,189.2,41.3,185.2,41.3z M185.2,56.1
			c-3.8,0-6-2.7-6-7.3c0-4.6,2.2-7.3,6-7.3c3.7,0,6,2.8,6,7.3C191.3,53.3,189,56.1,185.2,56.1z M185.2,41.9c-3.5,0-5.6,2.6-5.6,6.9
			c0,4.3,2.1,6.9,5.6,6.9c3.5,0,5.6-2.6,5.6-6.9C190.9,44.5,188.8,41.9,185.2,41.9z"/>
	</g>
	<g>
		<path d="M199.4,41.4h10.7v14.8h-0.7V42h-9.3v14.1h-0.7V41.4z"/>
		<path d="M210.3,56.4h-1.1V42.2h-8.9v14.1h-1.1V41.2h11.1V56.4z M209.6,56h0.3V41.6h-10.3V56h0.3V41.8h9.7V56z"/>
	</g>
	<g>
		<path d="M217.2,41.4h0.8l5.6,14.8h-0.7l-1.9-5h-6.9l-1.9,5h-0.7L217.2,41.4z M220.7,50.5l-3.2-8.3l-3.2,8.3H220.7z"/>
		<path d="M223.8,56.4h-1.1l0-0.1l-1.9-4.9h-6.6l-1.9,5h-1.1l5.9-15.2h1L223.8,56.4z M223,56h0.2l-5.4-14.4h-0.5L211.8,56h0.3l1.9-5
			h7.2l0,0.1L223,56z M221,50.7h-7l3.5-9.1L221,50.7z M214.6,50.3h5.8l-2.9-7.5L214.6,50.3z"/>
	</g>
	<g>
		<path d="M234.2,45.3c0,1.2-0.4,2.2-1.1,2.9c-1,1-2.3,1.1-4.3,1.1h-3.3v6.8h-0.7V41.4h4C232.4,41.4,234.2,42.6,234.2,45.3z
			 M225.5,42.1v6.7h2.8c1.4,0,2.6,0,3.4-0.4c1-0.4,1.7-1.6,1.7-3.1c0-1.2-0.5-2.2-1.5-2.7c-0.9-0.5-2-0.5-3.6-0.5H225.5z"/>
		<path d="M225.7,56.4h-1.1V41.2h4.2c3.7,0,5.5,1.3,5.5,4.1c0,1.2-0.4,2.3-1.2,3.1c-1,1-2.3,1.2-4.4,1.2h-3.1V56.4z M225,56h0.3
			v-6.8h3.5c2,0,3.2-0.2,4.1-1.1c0.7-0.7,1-1.7,1-2.8c0-2.5-1.6-3.7-5.1-3.7H225V56z M228.3,48.9h-3v-7.1h3c1.6,0,2.8,0,3.7,0.6
			c1,0.6,1.6,1.5,1.6,2.9c0,1.5-0.7,2.8-1.8,3.3C230.9,48.9,229.8,48.9,228.3,48.9z M225.7,48.5h2.6c1.4,0,2.5,0,3.3-0.4
			c1-0.4,1.6-1.5,1.6-2.9c0-1.1-0.5-2-1.4-2.5c-0.8-0.5-2-0.5-3.5-0.5h-2.6V48.5z"/>
	</g>
	<g>
		<path d="M239.7,42.1H235v-0.6h9.9v0.6h-4.6v14.1h-0.7V42.1z"/>
		<path d="M240.6,56.4h-1.1V42.3h-4.7v-1.1h10.3v1.1h-4.6V56.4z M239.9,56h0.3V41.9h4.6v-0.2h-9.5v0.2h4.7V56z"/>
	</g>
	<g>
		<path d="M246.7,41.4h0.7V48h9.3v-6.6h0.7v14.8h-0.7v-7.6h-9.3v7.6h-0.7V41.4z"/>
		<path d="M257.6,56.4h-1.1v-7.6h-8.9v7.6h-1.1V41.2h1.1v6.6h8.9v-6.6h1.1V56.4z M256.9,56h0.3V41.6h-0.3v6.6h-9.7v-6.6h-0.3V56h0.3
			v-7.6h9.7V56z"/>
	</g>
	<g>
		<path d="M260.5,41.4h9v0.7h-8.3v6.1h7.6v0.6h-7.6v6.7h8.5v0.7h-9.2V41.4z"/>
		<path d="M269.9,56.4h-9.6V41.2h9.4v1.1h-8.3V48h7.6v1h-7.6v6.3h8.5V56.4z M260.7,56h8.8v-0.3H261v-7.1h7.6v-0.2H261v-6.5h8.3v-0.3
			h-8.6V56z"/>
	</g>
	<g>
		<path d="M281.2,45.3c0,1.2-0.4,2.2-1.1,2.9c-1,1-2.3,1.1-4.3,1.1h-3.3v6.8h-0.7V41.4h4C279.5,41.4,281.2,42.6,281.2,45.3z
			 M272.6,42.1v6.7h2.8c1.4,0,2.6,0,3.4-0.4c1-0.4,1.7-1.6,1.7-3.1c0-1.2-0.5-2.2-1.5-2.7c-0.9-0.5-2-0.5-3.6-0.5H272.6z"/>
		<path d="M272.8,56.4h-1.1V41.2h4.2c3.7,0,5.5,1.3,5.5,4.1c0,1.2-0.4,2.3-1.2,3.1c-1,1-2.3,1.2-4.4,1.2h-3.1V56.4z M272.1,56h0.3
			v-6.8h3.5c2,0,3.2-0.2,4.1-1.1c0.7-0.7,1-1.7,1-2.8c0-2.5-1.6-3.7-5.1-3.7h-3.8V56z M275.4,48.9h-3v-7.1h3c1.6,0,2.8,0,3.7,0.6
			c1,0.6,1.6,1.5,1.6,2.9c0,1.5-0.7,2.8-1.8,3.3C278,48.9,276.9,48.9,275.4,48.9z M272.8,48.5h2.6c1.4,0,2.5,0,3.3-0.4
			c1-0.4,1.6-1.5,1.6-2.9c0-1.1-0.5-2-1.4-2.5c-0.8-0.5-2-0.5-3.5-0.5h-2.6V48.5z"/>
	</g>
	<g>
		<path d="M287.4,41.4h0.8l5.6,14.8h-0.7l-1.9-5h-6.9l-1.9,5h-0.7L287.4,41.4z M291,50.5l-3.2-8.3l-3.2,8.3H291z"/>
		<path d="M294.1,56.4H293l0-0.1l-1.9-4.9h-6.6l-1.9,5h-1.1l5.9-15.2h1L294.1,56.4z M293.3,56h0.2l-5.4-14.4h-0.5L282,56h0.3l1.9-5
			h7.2l0,0.1L293.3,56z M291.3,50.7h-7l3.5-9.1L291.3,50.7z M284.9,50.3h5.8l-2.9-7.5L284.9,50.3z"/>
	</g>
</g>
</svg>
