<?xml version="1.0" encoding="utf-8"?>
<!-- Generator: Adobe Illustrator 19.1.0, SVG Export Plug-In . SVG Version: 6.00 Build 0)  -->
<svg version="1.1" id="Layer_1" xmlns="http://www.w3.org/2000/svg" xmlns:xlink="http://www.w3.org/1999/xlink" x="0px" y="0px"
	 width="216px" height="52px" viewBox="0 0 216 52" style="enable-background:new 0 0 216 52;" xml:space="preserve">
<g>
	<g>
		<path d="M7.7,1h0.9L15.5,19h-0.8l-2.3-6.1H4L1.6,19H0.8L7.7,1z M12,12.1L8.2,2L4.3,12.1H12z"/>
		<path d="M15.8,19.2h-1.2L12.2,13H4.1l-2.3,6.1H0.5L7.6,0.8h1.2l0,0.1L15.8,19.2z M14.8,18.8h0.4L8.5,1.2H7.9L1.1,18.8h0.4l2.3-6.1
			h8.6L14.8,18.8z M12.3,12.3H4L8.2,1.5L12.3,12.3z M4.6,11.9h7.2L8.2,2.6L4.6,11.9z"/>
	</g>
	<g>
		<path d="M21.2,6c2.4,0,4.1,1,4.1,3.2c0,1.4-0.8,2.7-3,3c2.1,0.2,3.6,1.5,3.6,3.2c0,2.2-1.7,3.6-4,3.6h-5.2V6H21.2z M17.5,11.8h3.2
			c2.1,0,3.8-0.7,3.8-2.6c0-1.4-1.2-2.4-3.7-2.4h-3.3V11.8z M21.6,18.2c2.4,0,3.5-1,3.5-2.9c0-2-2.6-2.9-4.5-2.9h-3.2v5.8H21.6z"/>
		<path d="M22,19.2h-5.4V5.8h4.6c2.8,0,4.3,1.2,4.3,3.4c0,0.9-0.3,2.3-2.2,3c1.7,0.5,2.9,1.7,2.9,3.3C26.2,17.6,24.4,19.2,22,19.2z
			 M16.9,18.8h5c2.3,0,3.8-1.4,3.8-3.4c0-1.6-1.4-2.8-3.5-3l-1.6-0.2l1.6-0.2c2.3-0.3,2.8-1.7,2.8-2.8c0-2.6-2.5-3-3.9-3h-4.2V18.8z
			 M21.6,18.4h-4.3v-6.2h3.4c1.8,0,4.7,0.8,4.7,3.1C25.3,17.4,24.1,18.4,21.6,18.4z M17.7,18h3.9c2.2,0,3.3-0.9,3.3-2.7
			c0-1.9-2.6-2.7-4.3-2.7h-3V18z M20.7,12h-3.4V6.5h3.5c2.4,0,3.9,1,3.9,2.6C24.7,11,23.2,12,20.7,12z M17.7,11.6h3
			c1.3,0,3.6-0.3,3.6-2.4c0-1.4-1.3-2.2-3.5-2.2h-3.1V11.6z"/>
	</g>
	<g>
		<path d="M32.2,19V6.7h-5.3V6h11.4v0.7H33V19H32.2z"/>
		<path d="M33.2,19.2H32V6.9h-5.3V5.8h11.8v1.1h-5.3V19.2z M32.4,18.8h0.4V6.5h5.3V6.2h-11v0.3h5.3V18.8z"/>
	</g>
	<g>
		<path d="M45.2,5.7c3.5,0,5.7,2.5,5.7,6.8c0,4.2-2.2,6.8-5.7,6.8c-3.5,0-5.7-2.5-5.7-6.8C39.5,8.3,41.7,5.7,45.2,5.7z M45.2,18.6
			c3,0,4.9-2.2,4.9-6.1c0-3.8-1.9-6.1-4.9-6.1c-3,0-4.9,2.2-4.9,6.1C40.3,16.3,42.2,18.6,45.2,18.6z"/>
		<path d="M45.2,19.5c-3.6,0-5.9-2.7-5.9-7c0-4.3,2.2-7,5.9-7c3.6,0,5.9,2.7,5.9,7C51.1,16.8,48.8,19.5,45.2,19.5z M45.2,5.9
			c-3.4,0-5.5,2.5-5.5,6.6c0,4.1,2.1,6.6,5.5,6.6c3.4,0,5.5-2.5,5.5-6.6C50.7,8.4,48.6,5.9,45.2,5.9z M45.2,18.8
			c-3.1,0-5.1-2.4-5.1-6.3c0-3.9,1.9-6.3,5.1-6.3c3.1,0,5.1,2.4,5.1,6.3C50.3,16.4,48.3,18.8,45.2,18.8z M45.2,6.6
			c-2.9,0-4.7,2.2-4.7,5.9c0,3.7,1.7,5.9,4.7,5.9c2.9,0,4.7-2.2,4.7-5.9C49.9,8.9,48.1,6.6,45.2,6.6z"/>
	</g>
	<g>
		<path d="M60.2,17.7L65.9,6h0.8V19h-0.8V7.5l-5.3,11h-0.8l-5.3-11V19h-0.8V6h0.8L60.2,17.7z"/>
		<path d="M66.9,19.2h-1.2V8.3l-5,10.4h-1l-5-10.4v10.8h-1.2V5.8h1.1l5.6,11.4l5.5-11.4h1.1V19.2z M66.1,18.8h0.4V6.2H66l-5.8,11.9
			L54.4,6.2h-0.5v12.5h0.4V6.6l5.6,11.7h0.5l5.6-11.7V18.8z"/>
	</g>
	<g>
		<path d="M69.8,9.7c0.1-2.4,1.9-3.9,4.9-3.9c1.8,0,3.1,0.5,3.8,1.5C79,8,79.1,8.8,79.1,9.9v6.3c0,1.6,0,2,1.1,2h0.5V19H80
			c-1.3,0-1.7-0.6-1.7-2.2c-1,1.6-2.9,2.5-5.2,2.5c-2.3,0-3.8-1.5-3.8-3.6c0-2.4,1.7-3.4,5.2-3.9c2.6-0.4,3.9-0.2,3.9-1.5V9.2
			c0-1.8-1.2-2.7-3.5-2.7c-2.6,0-4.1,1.2-4.3,3.2H69.8z M74.9,12.3c-3.3,0.4-4.9,1.1-4.9,3.2c0,1.9,1.2,3,3.3,3
			c1.5,0,2.8-0.5,3.7-1.3c1.1-1,1.3-2,1.3-3.8v-1.9C77.9,12.1,76.8,12.1,74.9,12.3z"/>
		<path d="M73.1,19.5c-2.4,0-4-1.5-4-3.8c0-2.8,2.1-3.6,5.3-4.1c0.5-0.1,0.9-0.1,1.3-0.2c1.8-0.2,2.4-0.3,2.4-1.1V9.2
			c0-2.1-1.8-2.5-3.3-2.5c-2.5,0-3.9,1.1-4.1,3l0,0.2h-1.1l0-0.2c0.1-2.5,2.1-4.1,5.1-4.1c1.9,0,3.2,0.6,3.9,1.6
			c0.6,0.8,0.6,1.7,0.6,2.8v6.3c0,1.7,0.1,1.8,0.9,1.8h0.7v1.1H80c-1.2,0-1.8-0.5-1.9-1.8C77,18.7,75.2,19.5,73.1,19.5z M74.8,6.3
			c2.4,0,3.7,1,3.7,2.9v1.1c0,1.2-1,1.3-2.7,1.5c-0.4,0-0.8,0.1-1.3,0.2c-3.6,0.5-5,1.5-5,3.7c0,2.1,1.5,3.4,3.6,3.4
			c2.2,0,4-0.9,5-2.4l0.4-0.6v0.7c0,1.5,0.4,2,1.5,2h0.5v-0.3h-0.3c-1.3,0-1.3-0.8-1.3-2.2V9.9c0-1,0-1.8-0.5-2.5
			c-0.6-0.9-1.9-1.4-3.6-1.4c-2.7,0-4.5,1.3-4.7,3.5h0.3C70.6,7.4,72.2,6.3,74.8,6.3z M73.3,18.7c-2.2,0-3.5-1.2-3.5-3.2
			c0-2.3,1.9-3,5.1-3.4l0,0l0.6-0.1c1.4-0.2,2.3-0.3,2.6-0.6l0.4-0.5v2.5c0,1.8-0.2,2.9-1.4,3.9C76.1,18.2,74.7,18.7,73.3,18.7z
			 M75,12.5c-3.5,0.4-4.7,1.2-4.7,3c0,1.8,1.1,2.8,3.1,2.8c1.4,0,2.7-0.4,3.6-1.2c1-0.9,1.2-1.9,1.2-3.6V12
			c-0.5,0.2-1.3,0.3-2.5,0.5L75,12.5z"/>
	</g>
	<g>
		<path d="M86.4,19V6.7h-5.3V6h11.4v0.7h-5.3V19H86.4z"/>
		<path d="M87.4,19.2h-1.2V6.9h-5.3V5.8h11.8v1.1h-5.3V19.2z M86.6,18.8H87V6.5h5.3V6.2h-11v0.3h5.3V18.8z"/>
	</g>
	<g>
		<path d="M94.3,6h0.8v11.7L103.5,6h0.8V19h-0.8V7.3L95.1,19h-0.8V6z"/>
		<path d="M104.5,19.2h-1.2V7.9l-8.1,11.2h-1.1V5.8h1.2v11.2l8.1-11.2h1.1V19.2z M103.7,18.8h0.4V6.2h-0.5l-8.7,12.1V6.2h-0.4v12.5
			H95l8.7-12V18.8z"/>
	</g>
	<g>
		<path d="M107.7,6h0.8v7.4L116,6h1l-4.8,4.7l5.5,8.2h-1l-5.1-7.6l-3.1,3.1V19h-0.8V6z"/>
		<path d="M118.1,19.2h-1.5l-0.1-0.1l-5-7.4l-2.9,2.9v4.7h-1.2V5.8h1.2V13l7.2-7.2h1.6l-5,4.9L118.1,19.2z M116.8,18.8h0.5l-5.4-8.1
			l4.6-4.5h-0.4l-7.8,7.7V6.2h-0.4v12.5h0.4v-4.4l3.4-3.3L116.8,18.8z"/>
	</g>
	<g>
		<path d="M118.8,9.7c0.1-2.4,1.9-3.9,4.9-3.9c1.8,0,3.1,0.5,3.8,1.5c0.5,0.8,0.6,1.6,0.6,2.7v6.3c0,1.6,0,2,1.1,2h0.5V19H129
			c-1.3,0-1.7-0.6-1.7-2.2c-1,1.6-2.9,2.5-5.2,2.5c-2.3,0-3.8-1.5-3.8-3.6c0-2.4,1.7-3.4,5.2-3.9c2.6-0.4,3.9-0.2,3.9-1.5V9.2
			c0-1.8-1.2-2.7-3.5-2.7c-2.6,0-4.1,1.2-4.3,3.2H118.8z M124,12.3c-3.3,0.4-4.9,1.1-4.9,3.2c0,1.9,1.2,3,3.3,3
			c1.5,0,2.8-0.5,3.7-1.3c1.1-1,1.3-2,1.3-3.8v-1.9C126.9,12.1,125.8,12.1,124,12.3z"/>
		<path d="M122.1,19.5c-2.4,0-4-1.5-4-3.8c0-2.8,2.1-3.6,5.3-4.1c0.5-0.1,0.9-0.1,1.3-0.2c1.8-0.2,2.4-0.3,2.4-1.1V9.2
			c0-2.1-1.8-2.5-3.3-2.5c-2.5,0-3.9,1.1-4.1,3l0,0.2h-1.1l0-0.2c0.1-2.5,2.1-4.1,5.1-4.1c1.9,0,3.2,0.6,3.9,1.6
			c0.6,0.8,0.6,1.7,0.6,2.8v6.3c0,1.7,0.1,1.8,0.9,1.8h0.7v1.1H129c-1.2,0-1.8-0.5-1.9-1.8C126,18.7,124.2,19.5,122.1,19.5z
			 M123.8,6.3c2.4,0,3.7,1,3.7,2.9v1.1c0,1.2-1,1.3-2.7,1.5c-0.4,0-0.8,0.1-1.3,0.2c-3.6,0.5-5,1.5-5,3.7c0,2.1,1.5,3.4,3.6,3.4
			c2.2,0,4-0.9,5-2.4l0.4-0.6v0.7c0,1.5,0.4,2,1.5,2h0.5v-0.3h-0.3c-1.3,0-1.3-0.8-1.3-2.2V9.9c0-1,0-1.8-0.5-2.5
			c-0.6-0.9-1.9-1.4-3.6-1.4c-2.7,0-4.5,1.3-4.7,3.5h0.3C119.6,7.4,121.2,6.3,123.8,6.3z M122.3,18.7c-2.2,0-3.5-1.2-3.5-3.2
			c0-2.3,1.9-3,5.1-3.4l0,0l0.6-0.1c1.4-0.2,2.3-0.3,2.6-0.6l0.4-0.5v2.5c0,1.8-0.2,2.9-1.4,3.9C125.1,18.2,123.7,18.7,122.3,18.7z
			 M124,12.5c-3.5,0.4-4.7,1.2-4.7,3c0,1.8,1.1,2.8,3.1,2.8c1.4,0,2.7-0.4,3.6-1.2c1-0.9,1.2-1.9,1.2-3.6V12
			c-0.5,0.2-1.3,0.3-2.5,0.5L124,12.5z"/>
	</g>
	<g>
		<path d="M2.5,45.1c1.1-1.5,1.6-3.4,1.6-6.5v-5.7h8.3v12.2h1.4v4h-0.8v-3.3H2.1v3.3H1.3v-4H2.5z M4.9,33.6v5.1
			c0,3.2-0.6,5.2-1.6,6.5h8.3V33.6H4.9z"/>
		<path d="M2.3,49.4H1.1v-4.4h1.2c1-1.4,1.5-3.5,1.5-6.3v-5.9h8.7v12.2h1.4v4.4h-1.2V46H2.3V49.4z M1.5,49h0.4v-3.3h11.2v3.3h0.4
			v-3.6h-1.4V33.1H4.3v5.5c0,3-0.5,5.1-1.7,6.6l-0.1,0.1h-1V49z M11.7,45.3H2.8L3.1,45c1-1.3,1.6-3.4,1.6-6.4v-5.3h7.1V45.3z
			 M3.7,44.9h7.7V33.8H5.1v4.9C5.1,41.4,4.6,43.6,3.7,44.9z"/>
	</g>
	<g>
		<path d="M17.5,39.2c0,3.4-0.2,6.9-2.6,6.8h-0.8v-0.7h0.6c1.8,0,1.9-3,1.9-6.1v-6.3h8.5v12.9h-0.8V33.6h-6.9V39.2z"/>
		<path d="M15,46.2C15,46.2,14.9,46.2,15,46.2h-1v-1.1h0.8c1.6,0,1.7-3.1,1.7-5.9v-6.5h8.9V46h-1.2V33.8h-6.5v5.3
			c0,2.6-0.1,5.3-1.3,6.5C16,46,15.5,46.2,15,46.2z M14.4,45.8h0.6c0.5,0,0.9-0.1,1.2-0.5c1.1-1,1.2-3.7,1.2-6.2v-5.7h7.3v12.2H25
			V33.1h-8.1v6.1c0,3.2-0.2,6.3-2.1,6.3h-0.4V45.8z"/>
	</g>
	<g>
		<path d="M32.2,40l-3.9,5.8h-0.9l3.9-5.9c-2.6-0.3-3.7-1.7-3.7-3.5c0-2.6,2-3.5,4.3-3.5h4.6v12.9h-0.8V40H32.2z M35.8,33.6h-3.9
			c-2.1,0-3.5,0.9-3.5,2.8c0,1.7,1.4,2.9,4.4,2.9h2.9V33.6z"/>
		<path d="M36.8,46h-1.2v-5.8h-3.3L28.4,46H27l4-6c-2.2-0.3-3.6-1.7-3.6-3.7c0-2.4,1.6-3.7,4.5-3.7h4.8V46z M36,45.6h0.4V33.1h-4.4
			c-1.5,0-4.1,0.4-4.1,3.3c0,1.9,1.3,3.1,3.5,3.3l0.3,0l-3.9,5.9h0.4l3.9-5.8H36V45.6z M36,39.5h-3.1c-2.9,0-4.6-1.2-4.6-3.1
			c0-1.9,1.3-3,3.7-3H36V39.5z M31.9,33.8c-1.2,0-3.3,0.3-3.3,2.6c0,1.7,1.5,2.7,4.2,2.7h2.7v-5.3H31.9z"/>
	</g>
	<g>
		<path d="M51.5,32.6c3.5,0,5.7,2.5,5.7,6.8c0,4.2-2.2,6.8-5.7,6.8c-3.5,0-5.7-2.5-5.7-6.8C45.8,35.1,48,32.6,51.5,32.6z M51.5,45.4
			c3,0,4.9-2.2,4.9-6.1c0-3.8-1.9-6.1-4.9-6.1c-3,0-4.9,2.2-4.9,6.1C46.6,43.2,48.5,45.4,51.5,45.4z"/>
		<path d="M51.5,46.4c-3.6,0-5.9-2.7-5.9-7c0-4.3,2.2-7,5.9-7c3.6,0,5.9,2.7,5.9,7C57.4,43.7,55.1,46.4,51.5,46.4z M51.5,32.8
			c-3.4,0-5.5,2.5-5.5,6.6c0,4.1,2.1,6.6,5.5,6.6c3.4,0,5.5-2.5,5.5-6.6C57,35.3,54.8,32.8,51.5,32.8z M51.5,45.6
			c-3.1,0-5.1-2.4-5.1-6.3c0-3.9,1.9-6.3,5.1-6.3c3.1,0,5.1,2.4,5.1,6.3C56.6,43.2,54.6,45.6,51.5,45.6z M51.5,33.5
			c-2.9,0-4.7,2.2-4.7,5.9c0,3.7,1.7,5.9,4.7,5.9c2.9,0,4.7-2.2,4.7-5.9C56.2,35.8,54.4,33.5,51.5,33.5z"/>
	</g>
	<g>
		<path d="M63.7,45.8V33.6h-5.3v-0.7h11.4v0.7h-5.3v12.2H63.7z"/>
		<path d="M64.7,46h-1.2V33.8h-5.3v-1.1H70v1.1h-5.3V46z M63.9,45.6h0.4V33.4h5.3v-0.3h-11v0.3h5.3V45.6z"/>
	</g>
	<g>
		<path d="M71.6,32.9h0.8v7.4l7.5-7.4h1l-4.8,4.7l5.5,8.2h-1l-5.1-7.6l-3.1,3.1v4.5h-0.8V32.9z"/>
		<path d="M82,46h-1.5l-5-7.5l-2.9,2.9V46h-1.2V32.7h1.2v7.2l7.2-7.2h1.6l-5,4.9L82,46z M80.7,45.6h0.5l-5.4-8.1l4.6-4.5H80
			l-7.8,7.7v-7.7h-0.4v12.5h0.4v-4.4l3.4-3.3L80.7,45.6z"/>
	</g>
	<g>
		<path d="M82.7,36.5c0.1-2.4,1.9-3.9,4.9-3.9c1.8,0,3.1,0.5,3.8,1.5c0.5,0.8,0.6,1.6,0.6,2.7v6.3c0,1.6,0,2,1.1,2h0.5v0.7h-0.7
			c-1.3,0-1.7-0.6-1.7-2.2c-1,1.6-2.9,2.5-5.2,2.5c-2.3,0-3.8-1.5-3.8-3.6c0-2.4,1.7-3.4,5.2-3.9c2.6-0.4,3.9-0.2,3.9-1.5v-1.1
			c0-1.8-1.2-2.7-3.5-2.7c-2.6,0-4.1,1.2-4.3,3.2H82.7z M87.9,39.2c-3.3,0.4-4.9,1.1-4.9,3.2c0,1.9,1.2,3,3.3,3
			c1.5,0,2.8-0.5,3.7-1.3c1.1-1,1.3-2,1.3-3.8v-1.9C90.8,38.9,89.7,39,87.9,39.2z"/>
		<path d="M86,46.4c-2.4,0-4-1.5-4-3.8c0-2.8,2.1-3.6,5.3-4.1c0.5-0.1,0.9-0.1,1.3-0.2c1.8-0.2,2.4-0.3,2.4-1.1v-1.1
			c0-2.1-1.8-2.5-3.3-2.5c-2.5,0-3.9,1.1-4.1,3l0,0.2h-1.1l0-0.2c0.1-2.5,2.1-4.1,5.1-4.1c1.9,0,3.2,0.6,3.9,1.6
			c0.6,0.8,0.6,1.7,0.6,2.8v6.3c0,1.7,0.1,1.8,0.9,1.8h0.7V46h-0.9c-1.2,0-1.8-0.5-1.9-1.8C89.9,45.6,88.1,46.4,86,46.4z M87.7,33.1
			c2.4,0,3.7,1,3.7,2.9v1.1c0,1.2-1,1.3-2.7,1.5c-0.4,0-0.8,0.1-1.3,0.2c-3.6,0.5-5,1.5-5,3.7c0,2.1,1.5,3.4,3.6,3.4
			c2.2,0,4-0.9,5-2.4l0.4-0.6v0.7c0,1.5,0.4,2,1.5,2h0.5v-0.3h-0.3c-1.3,0-1.3-0.8-1.3-2.2v-6.3c0-1,0-1.8-0.5-2.5
			c-0.6-0.9-1.9-1.4-3.6-1.4c-2.7,0-4.5,1.3-4.7,3.5h0.3C83.5,34.3,85.1,33.1,87.7,33.1z M86.2,45.6c-2.2,0-3.5-1.2-3.5-3.2
			c0-2.3,1.9-3,5.1-3.4h0l0.6-0.1c1.4-0.2,2.3-0.3,2.6-0.6l0.4-0.5v2.5c0,1.8-0.2,2.9-1.4,3.9C89,45.1,87.6,45.6,86.2,45.6z
			 M87.9,39.4c-3.5,0.4-4.7,1.2-4.7,3c0,1.8,1.1,2.8,3.1,2.8c1.4,0,2.7-0.4,3.6-1.2c1-0.9,1.2-1.9,1.2-3.6v-1.5
			c-0.5,0.2-1.3,0.3-2.5,0.5L87.9,39.4z"/>
	</g>
	<g>
		<path d="M99.3,45.8V33.6H94v-0.7h11.4v0.7h-5.3v12.2H99.3z"/>
		<path d="M100.3,46h-1.2V33.8h-5.3v-1.1h11.8v1.1h-5.3V46z M99.5,45.6h0.4V33.4h5.3v-0.3h-11v0.3h5.3V45.6z"/>
	</g>
	<g>
		<path d="M107.2,32.9h0.8v5.9h8v-5.9h0.8v12.9H116v-6.4h-8v6.4h-0.8V32.9z"/>
		<path d="M117,46h-1.2v-6.4h-7.6V46H107V32.7h1.2v5.9h7.6v-5.9h1.2V46z M116.2,45.6h0.4V33.1h-0.4V39h-8.4v-5.9h-0.4v12.5h0.4v-6.4
			h8.4V45.6z"/>
	</g>
	<g>
		<path d="M128.9,42.2c0,2.2-1.7,3.6-4,3.6H120V32.9h0.8v5.8h3.2C127.5,38.7,128.9,39.8,128.9,42.2z M120.8,45.1h3.8
			c2.1,0,3.5-1,3.5-2.9c0-2-1.4-2.8-4.3-2.8h-3V45.1z M131.8,32.9h0.8v12.9h-0.8V32.9z"/>
		<path d="M132.8,46h-1.2V32.7h1.2V46z M132,45.6h0.4V33.1H132V45.6z M124.9,46h-5.1V32.7h1.2v5.8h3c3.6,0,5.2,1.2,5.2,3.7
			C129.1,44.5,127.4,46,124.9,46z M120.2,45.6h4.7c2.3,0,3.8-1.4,3.8-3.4c0-2.3-1.4-3.3-4.8-3.3h-3.4v-5.8h-0.4V45.6z M124.6,45.3
			h-4v-6.1h3.2c3.2,0,4.5,0.9,4.5,3C128.3,44.1,126.9,45.3,124.6,45.3z M121,44.9h3.6c2.1,0,3.3-1,3.3-2.7c0-1.9-1.2-2.6-4.1-2.6
			H121V44.9z"/>
	</g>
	<g>
		<path d="M134.1,45.8l4.7-6.7l-4.5-6.3h0.9l4.1,5.6l4-5.6h0.9l-4.5,6.3l4.8,6.7h-0.9l-4.3-6.1l-4.3,6.1H134.1z"/>
		<path d="M144.9,46h-1.4l-0.1-0.1l-4.2-5.8l-4.2,5.9h-1.4l4.9-6.9l-4.7-6.5h1.4l0.1,0.1l3.9,5.4l3.9-5.5h1.4l-4.6,6.5L144.9,46z
			 M143.7,45.6h0.4l-4.6-6.5l4.3-6.1h-0.4l-4.1,5.8l-4.2-5.8h-0.4l4.4,6.1l-0.1,0.1l-4.5,6.4h0.4l4.4-6.2L143.7,45.6z"/>
	</g>
	<g>
		<path d="M156.7,32.9c2.4,0,4.1,1,4.1,3.2c0,1.4-0.8,2.7-3,3c2.1,0.2,3.6,1.5,3.6,3.2c0,2.2-1.7,3.6-4,3.6h-5.2V32.9H156.7z
			 M153.1,38.7h3.2c2.1,0,3.8-0.7,3.8-2.6c0-1.4-1.2-2.4-3.7-2.4h-3.3V38.7z M157.2,45.1c2.4,0,3.5-1,3.5-2.9c0-2-2.6-2.9-4.5-2.9
			h-3.2v5.8H157.2z"/>
		<path d="M157.6,46h-5.4V32.7h4.6c2.8,0,4.3,1.2,4.3,3.4c0,0.9-0.3,2.3-2.2,3c1.8,0.5,2.9,1.7,2.9,3.3C161.8,44.5,160,46,157.6,46z
			 M152.5,45.6h5c2.3,0,3.8-1.4,3.8-3.4c0-1.6-1.4-2.8-3.5-3l-1.6-0.2l1.6-0.2c2.3-0.3,2.8-1.7,2.8-2.8c0-2.6-2.5-3-3.9-3h-4.2V45.6
			z M157.2,45.3h-4.3v-6.2h3.4c1.8,0,4.7,0.8,4.7,3.1C160.9,44.3,159.7,45.3,157.2,45.3z M153.3,44.9h3.9c2.2,0,3.3-0.9,3.3-2.7
			c0-1.9-2.6-2.7-4.3-2.7h-3V44.9z M156.3,38.9h-3.4v-5.5h3.5c2.4,0,3.9,1,3.9,2.6C160.3,37.8,158.8,38.9,156.3,38.9z M153.3,38.5h3
			c1.3,0,3.6-0.3,3.6-2.4c0-1.4-1.3-2.2-3.5-2.2h-3.1V38.5z"/>
	</g>
	<g>
		<path d="M169.2,32.6c3.5,0,5.7,2.5,5.7,6.8c0,4.2-2.2,6.8-5.7,6.8c-3.5,0-5.7-2.5-5.7-6.8C163.5,35.1,165.7,32.6,169.2,32.6z
			 M169.2,45.4c3,0,4.9-2.2,4.9-6.1c0-3.8-1.9-6.1-4.9-6.1c-3,0-4.9,2.2-4.9,6.1C164.3,43.2,166.2,45.4,169.2,45.4z"/>
		<path d="M169.2,46.4c-3.6,0-5.9-2.7-5.9-7c0-4.3,2.2-7,5.9-7c3.6,0,5.9,2.7,5.9,7C175.1,43.7,172.8,46.4,169.2,46.4z M169.2,32.8
			c-3.4,0-5.5,2.5-5.5,6.6c0,4.1,2.1,6.6,5.5,6.6c3.4,0,5.5-2.5,5.5-6.6C174.7,35.3,172.6,32.8,169.2,32.8z M169.2,45.6
			c-3.1,0-5.1-2.4-5.1-6.3c0-3.9,1.9-6.3,5.1-6.3c3.1,0,5.1,2.4,5.1,6.3C174.3,43.2,172.3,45.6,169.2,45.6z M169.2,33.5
			c-2.9,0-4.7,2.2-4.7,5.9c0,3.7,1.7,5.9,4.7,5.9c2.9,0,4.7-2.2,4.7-5.9C173.9,35.8,172.1,33.5,169.2,33.5z"/>
	</g>
	<g>
		<path d="M177.7,32.9h0.8v3c0.8-2.1,2.5-3.3,4.9-3.3c3.5,0,5.7,2.5,5.7,6.8c0,4.2-2.2,6.8-5.7,6.8c-2.4,0-4.1-1.1-4.9-3.2v8h-0.8
			V32.9z M183.4,45.4c3,0,4.9-2.2,4.9-6.1c0-3.8-1.9-6.1-4.9-6.1c-3,0-4.9,2.2-4.9,6.1C178.5,43.2,180.4,45.4,183.4,45.4z"/>
		<path d="M178.7,51.2h-1.2V32.7h1.2V35c0.9-1.7,2.5-2.6,4.7-2.6c3.6,0,5.9,2.7,5.9,7c0,4.3-2.3,7-5.9,7c-2.1,0-3.7-0.9-4.7-2.5
			V51.2z M177.9,50.8h0.4v-8.8l0.4,1c0.8,2,2.4,3,4.7,3c3.4,0,5.5-2.5,5.5-6.6c0-4.1-2.1-6.6-5.5-6.6c-2.3,0-3.9,1.1-4.7,3.1l-0.4,1
			v-3.8h-0.4V50.8z M183.4,45.6c-3.1,0-5.1-2.4-5.1-6.3c0-3.9,1.9-6.3,5.1-6.3c3.1,0,5.1,2.4,5.1,6.3
			C188.5,43.2,186.5,45.6,183.4,45.6z M183.4,33.5c-2.9,0-4.7,2.2-4.7,5.9c0,3.7,1.7,5.9,4.7,5.9c2.9,0,4.7-2.2,4.7-5.9
			C188.1,35.8,186.3,33.5,183.4,33.5z"/>
	</g>
	<g>
		<path d="M197,32.6c3.5,0,5.7,2.5,5.7,6.8c0,4.2-2.2,6.8-5.7,6.8c-3.5,0-5.7-2.5-5.7-6.8C191.3,35.1,193.5,32.6,197,32.6z
			 M197,45.4c3,0,4.9-2.2,4.9-6.1c0-3.8-1.9-6.1-4.9-6.1s-4.9,2.2-4.9,6.1C192.1,43.2,194,45.4,197,45.4z"/>
		<path d="M197,46.4c-3.6,0-5.9-2.7-5.9-7c0-4.3,2.2-7,5.9-7c3.6,0,5.9,2.7,5.9,7C202.9,43.7,200.6,46.4,197,46.4z M197,32.8
			c-3.4,0-5.5,2.5-5.5,6.6c0,4.1,2.1,6.6,5.5,6.6c3.4,0,5.5-2.5,5.5-6.6C202.5,35.3,200.4,32.8,197,32.8z M197,45.6
			c-3.1,0-5.1-2.4-5.1-6.3c0-3.9,1.9-6.3,5.1-6.3c3.1,0,5.1,2.4,5.1,6.3C202.1,43.2,200.1,45.6,197,45.6z M197,33.5
			c-2.9,0-4.7,2.2-4.7,5.9c0,3.7,1.7,5.9,4.7,5.9c2.9,0,4.7-2.2,4.7-5.9C201.7,35.8,199.9,33.5,197,33.5z"/>
	</g>
	<g>
		<path d="M209.2,45.8V33.6h-5.3v-0.7h11.4v0.7H210v12.2H209.2z"/>
		<path d="M210.2,46H209V33.8h-5.3v-1.1h11.8v1.1h-5.3V46z M209.4,45.6h0.4V33.4h5.3v-0.3h-11v0.3h5.3V45.6z"/>
	</g>
</g>
</svg>
