<?xml version="1.0" encoding="utf-8"?>
<!-- Generator: Adobe Illustrator 19.1.0, SVG Export Plug-In . SVG Version: 6.00 Build 0)  -->
<svg version="1.1" id="Layer_1" xmlns="http://www.w3.org/2000/svg" xmlns:xlink="http://www.w3.org/1999/xlink" x="0px" y="0px"
	 width="249px" height="95px" viewBox="0 0 249 95" style="enable-background:new 0 0 249 95;" xml:space="preserve">
<g>
	<g>
		<path d="M33.7,0.6h1.4L45,26.7h-1.2l-3.4-8.9H28.3l-3.4,8.9h-1.2L33.7,0.6z M40,16.7L34.4,2.1l-5.7,14.7H40z"/>
		<path d="M45.3,26.9h-1.6L40.3,18H28.4L25,26.9h-1.6l0.1-0.3L33.6,0.4h1.6L45.3,26.9z M43.9,26.5h0.8L35,0.8h-1.1L24,26.5h0.8
			l3.4-8.9h12.4L43.9,26.5z M40.3,16.9H28.4l6-15.4L40.3,16.9z M29,16.5h10.7L34.4,2.6L29,16.5z"/>
	</g>
	<g>
		<path d="M53.4,7.9c3.5,0,6,1.4,6,4.6c0,2.1-1.2,3.9-4.3,4.3c3.1,0.3,5.3,2.2,5.3,4.7c0,3.2-2.4,5.2-5.8,5.2H47V7.9H53.4z
			 M48.1,16.3h4.6c3,0,5.5-1,5.5-3.8c0-2-1.7-3.5-5.3-3.5h-4.8V16.3z M54.1,25.7c3.5,0,5.1-1.5,5.1-4.2c0-3-3.8-4.2-6.5-4.2h-4.6
			v8.4H54.1z"/>
		<path d="M54.7,26.9h-7.8V7.7h6.6c4,0,6.2,1.7,6.2,4.8c0,1.3-0.5,3.5-3.5,4.3c2.7,0.6,4.4,2.4,4.4,4.7
			C60.6,24.7,58.2,26.9,54.7,26.9z M47.2,26.5h7.4c3.3,0,5.6-2,5.6-5c0-2.4-2.1-4.2-5.1-4.5l-1.6-0.2l1.6-0.2
			c3.4-0.5,4.2-2.5,4.2-4.1c0-2.8-2.1-4.4-5.8-4.4h-6.2V26.5z M54.1,25.9h-6.2v-8.8h4.8c2.6,0,6.7,1.2,6.7,4.4
			C59.5,24.4,57.7,25.9,54.1,25.9z M48.3,25.5h5.8c3.3,0,4.9-1.3,4.9-4c0-2.9-3.9-4-6.3-4h-4.4V25.5z M52.8,16.5h-4.8V8.7h5
			c3.5,0,5.5,1.4,5.5,3.7C58.5,15,56.4,16.5,52.8,16.5z M48.3,16.1h4.4c2,0,5.3-0.5,5.3-3.6c0-2.1-1.9-3.3-5.1-3.3h-4.6V16.1z"/>
	</g>
	<g>
		<path d="M69.7,26.7V8.9H62v-1h16.6v1h-7.7v17.8H69.7z"/>
		<path d="M71.1,26.9h-1.5V9.1h-7.7V7.7h17v1.4h-7.7V26.9z M69.9,26.5h0.7V8.7h7.7V8.1H62.2v0.6h7.7V26.5z"/>
	</g>
	<g>
		<path d="M88.8,7.4c5.1,0,8.3,3.7,8.3,9.9s-3.2,9.9-8.3,9.9c-5.1,0-8.2-3.7-8.2-9.9S83.7,7.4,88.8,7.4z M88.8,26.1
			c4.3,0,7.1-3.2,7.1-8.8c0-5.6-2.8-8.8-7.1-8.8c-4.3,0-7.1,3.2-7.1,8.8C81.7,22.9,84.4,26.1,88.8,26.1z"/>
		<path d="M88.8,27.4c-5.2,0-8.4-3.9-8.4-10.1c0-6.2,3.2-10.1,8.4-10.1c5.2,0,8.5,3.9,8.5,10.1C97.2,23.5,94,27.4,88.8,27.4z
			 M88.8,7.6c-5,0-8,3.7-8,9.7c0,6,3.1,9.7,8,9.7c5,0,8.1-3.7,8.1-9.7C96.8,11.3,93.7,7.6,88.8,7.6z M88.8,26.3
			c-4.5,0-7.3-3.5-7.3-9s2.8-9,7.3-9c4.5,0,7.3,3.5,7.3,9S93.3,26.3,88.8,26.3z M88.8,8.7c-4.3,0-6.9,3.2-6.9,8.6s2.6,8.6,6.9,8.6
			c4.3,0,6.9-3.3,6.9-8.6S93,8.7,88.8,8.7z"/>
	</g>
	<g>
		<path d="M110.8,24.8l8.2-17h1.2v18.8h-1.1V10l-7.7,16.1h-1.1L102.5,10v16.7h-1.1V7.9h1.2L110.8,24.8z"/>
		<path d="M120.4,26.9h-1.5v-16l-7.4,15.4h-1.4l-7.4-15.4v16h-1.5V7.7h1.5l8.2,16.7l8.1-16.7h1.5V26.9z M119.3,26.5h0.7V8.1h-0.9
			l-8.4,17.2l-8.4-17.2h-0.9v18.4h0.7V9.1l8.1,16.7h0.9l8.1-16.7V26.5z"/>
	</g>
	<g>
		<path d="M124.9,13.2c0.1-3.5,2.8-5.7,7.2-5.7c2.7,0,4.5,0.8,5.5,2.2c0.8,1.1,0.8,2.3,0.8,3.9v9.1c0,2.3,0.1,3,1.6,3h0.7v1h-1
			c-1.9,0-2.5-0.8-2.5-3.2c-1.5,2.3-4.2,3.7-7.6,3.7c-3.4,0-5.6-2.2-5.6-5.3c0-3.5,2.4-4.9,7.5-5.7c3.8-0.5,5.7-0.3,5.7-2.2v-1.6
			c0-2.5-1.8-3.9-5.1-3.9c-3.8,0-6,1.7-6.2,4.7H124.9z M132.4,17.1c-4.8,0.6-7.1,1.6-7.1,4.6c0,2.8,1.7,4.3,4.7,4.3
			c2.1,0,4-0.7,5.4-1.8c1.6-1.4,1.9-2.9,1.9-5.5V16C136.7,16.7,135.1,16.8,132.4,17.1z"/>
		<path d="M129.7,27.4c-3.5,0-5.8-2.2-5.8-5.5c0-4,3.1-5.2,7.7-5.9c0.7-0.1,1.4-0.2,1.9-0.2c2.7-0.3,3.6-0.5,3.6-1.7v-1.6
			c0-3.1-2.6-3.7-4.9-3.7c-3.6,0-5.8,1.6-6,4.5l0,0.2h-1.5l0-0.2c0.2-3.6,3-5.9,7.4-5.9c2.7,0,4.6,0.8,5.7,2.3
			c0.8,1.2,0.9,2.4,0.9,4v9.1c0,2.4,0.1,2.8,1.4,2.8h0.9v1.4h-1.2c-1.8,0-2.5-0.7-2.7-2.7C135.5,26.2,132.8,27.4,129.7,27.4z
			 M132.2,8.3c3.4,0,5.3,1.5,5.3,4.1V14c0,1.7-1.4,1.9-3.9,2.1c-0.6,0.1-1.2,0.1-1.9,0.2c-5.3,0.8-7.3,2.2-7.3,5.5
			c0,3.1,2.2,5.1,5.4,5.1c3.2,0,5.9-1.3,7.4-3.6l0.4-0.6v0.7c0,2.2,0.6,3,2.3,3h0.8v-0.6H140c-1.8,0-1.8-1-1.8-3.2v-9.1
			c0-1.5-0.1-2.7-0.8-3.8c-0.9-1.4-2.8-2.1-5.3-2.1c-4.1,0-6.7,2-7,5.3h0.7C126.1,10,128.4,8.3,132.2,8.3z M130,26.3
			c-3.1,0-4.9-1.7-4.9-4.5c0-3.3,2.7-4.2,7.3-4.8h0l0.9-0.1c2.1-0.2,3.4-0.4,3.8-0.9l0.4-0.5v3.4c0,2.7-0.3,4.2-1.9,5.6
			C134.1,25.6,132.1,26.3,130,26.3z M132.4,17.3c-5.1,0.7-7,1.8-7,4.4c0,2.7,1.6,4.1,4.5,4.1c2,0,3.9-0.6,5.2-1.8
			c1.5-1.3,1.8-2.8,1.8-5.3v-2.3c-0.6,0.4-1.9,0.5-3.7,0.8L132.4,17.3z"/>
	</g>
	<g>
		<path d="M149.2,26.7V8.9h-7.7v-1h16.6v1h-7.7v17.8H149.2z"/>
		<path d="M150.6,26.9H149V9.1h-7.7V7.7h17v1.4h-7.7V26.9z M149.4,26.5h0.7V8.7h7.7V8.1h-16.2v0.6h7.7V26.5z"/>
	</g>
	<g>
		<path d="M160.9,7.9h1.1v17l12.2-17h1.1v18.8h-1.1V9.8l-12.2,16.9h-1.1V7.9z"/>
		<path d="M175.6,26.9h-1.5V10.4l-11.9,16.5h-1.5V7.7h1.5v16.5l11.9-16.5h1.5V26.9z M174.5,26.5h0.7V8.1h-0.8l-12.5,17.4V8.1h-0.7
			v18.4h0.8l12.5-17.3V26.5z"/>
	</g>
	<g>
		<path d="M180.6,7.9h1.1v10.8l10.9-10.8h1.4l-7,6.8l8,12h-1.4l-7.4-11.1l-4.6,4.5v6.6h-1.1V7.9z"/>
		<path d="M195.5,26.9h-1.9l-7.3-11l-4.3,4.3v6.7h-1.5V7.7h1.5v10.5l10.6-10.5h2l-7.2,7.1L195.5,26.9z M193.8,26.5h1l-7.9-11.8
			l6.8-6.6h-0.9l-11.2,11.1V8.1h-0.7v18.4h0.7V20l0.1-0.1l4.7-4.7L193.8,26.5z"/>
	</g>
	<g>
		<path d="M196.9,13.2c0.1-3.5,2.8-5.7,7.2-5.7c2.7,0,4.5,0.8,5.5,2.2c0.8,1.1,0.8,2.3,0.8,3.9v9.1c0,2.3,0.1,3,1.6,3h0.7v1h-1
			c-1.9,0-2.5-0.8-2.5-3.2c-1.5,2.3-4.2,3.7-7.6,3.7c-3.4,0-5.6-2.2-5.6-5.3c0-3.5,2.4-4.9,7.5-5.7c3.8-0.5,5.7-0.3,5.7-2.2v-1.6
			c0-2.5-1.8-3.9-5.1-3.9c-3.8,0-6,1.7-6.2,4.7H196.9z M204.4,17.1c-4.8,0.6-7.1,1.6-7.1,4.6c0,2.8,1.7,4.3,4.7,4.3
			c2.1,0,4-0.7,5.4-1.8c1.6-1.4,1.9-2.9,1.9-5.5V16C208.7,16.7,207.1,16.8,204.4,17.1z"/>
		<path d="M201.7,27.4c-3.5,0-5.8-2.2-5.8-5.5c0-4,3.1-5.2,7.7-5.9c0.7-0.1,1.4-0.2,1.9-0.2c2.7-0.3,3.6-0.5,3.6-1.7v-1.6
			c0-3.1-2.6-3.7-4.9-3.7c-3.6,0-5.8,1.6-6,4.5l0,0.2h-1.5l0-0.2c0.2-3.6,3-5.9,7.4-5.9c2.7,0,4.6,0.8,5.7,2.3
			c0.8,1.2,0.9,2.4,0.9,4v9.1c0,2.4,0.1,2.8,1.4,2.8h0.9v1.4h-1.2c-1.8,0-2.5-0.7-2.7-2.7C207.5,26.2,204.8,27.4,201.7,27.4z
			 M204.2,8.3c3.4,0,5.3,1.5,5.3,4.1V14c0,1.7-1.4,1.9-3.9,2.1c-0.6,0.1-1.2,0.1-1.9,0.2c-5.3,0.8-7.3,2.2-7.3,5.5
			c0,3.1,2.2,5.1,5.4,5.1c3.2,0,5.9-1.3,7.4-3.6l0.4-0.6v0.7c0,2.2,0.6,3,2.3,3h0.8v-0.6H212c-1.8,0-1.8-1-1.8-3.2v-9.1
			c0-1.5-0.1-2.7-0.8-3.8c-0.9-1.4-2.8-2.1-5.3-2.1c-4.1,0-6.7,2-7,5.3h0.7C198.1,10,200.4,8.3,204.2,8.3z M202,26.3
			c-3.1,0-4.9-1.7-4.9-4.5c0-3.3,2.7-4.2,7.3-4.8h0l0.9-0.1c2.1-0.2,3.4-0.4,3.8-0.9l0.4-0.5v3.4c0,2.7-0.3,4.2-1.9,5.6
			C206.1,25.6,204.1,26.3,202,26.3z M204.4,17.3c-5.1,0.7-7,1.8-7,4.4c0,2.7,1.6,4.1,4.5,4.1c2,0,3.9-0.6,5.2-1.8
			c1.5-1.3,1.8-2.8,1.8-5.3v-2.3c-0.6,0.4-1.9,0.5-3.7,0.8L204.4,17.3z"/>
	</g>
	<g>
		<path d="M218.3,23.6h1.3l-2.6,6.9h-1.3L218.3,23.6z"/>
		<path d="M217.2,30.7h-1.7l2.7-7.3h1.7L217.2,30.7z M216.1,30.3h0.8l2.4-6.5h-0.8L216.1,30.3z"/>
	</g>
	<g>
		<path d="M0.9,41.5h1.1v10.8L13,41.5h1.4l-7,6.8l8,12h-1.4L6.6,49.2l-4.6,4.5v6.6H0.9V41.5z"/>
		<path d="M15.9,60.5H14l-7.3-11l-4.3,4.3v6.7H0.7V41.3h1.5v10.5l10.6-10.5h2l-7.2,7.1L15.9,60.5z M14.2,60.1h1L7.2,48.3l6.8-6.6
			h-0.9L1.9,52.8V41.7H1.1v18.4h0.7v-6.5l0.1-0.1l4.7-4.7L14.2,60.1z"/>
	</g>
	<g>
		<path d="M25.1,41c5.1,0,8.3,3.7,8.3,9.9s-3.2,9.9-8.3,9.9c-5.1,0-8.2-3.7-8.2-9.9S20,41,25.1,41z M25.1,59.7
			c4.3,0,7.1-3.2,7.1-8.8c0-5.6-2.8-8.8-7.1-8.8c-4.3,0-7.1,3.2-7.1,8.8C18,56.5,20.8,59.7,25.1,59.7z"/>
		<path d="M25.1,61c-5.2,0-8.4-3.9-8.4-10.1c0-6.2,3.2-10.1,8.4-10.1c5.2,0,8.5,3.9,8.5,10.1C33.5,57.1,30.3,61,25.1,61z M25.1,41.2
			c-5,0-8,3.7-8,9.7c0,6,3.1,9.7,8,9.7c5,0,8.1-3.7,8.1-9.7C33.1,44.9,30,41.2,25.1,41.2z M25.1,59.9c-4.5,0-7.3-3.5-7.3-9
			s2.8-9,7.3-9c4.5,0,7.3,3.5,7.3,9S29.6,59.9,25.1,59.9z M25.1,42.3c-4.3,0-6.9,3.2-6.9,8.6s2.6,8.6,6.9,8.6c4.3,0,6.9-3.3,6.9-8.6
			S29.3,42.3,25.1,42.3z"/>
	</g>
	<g>
		<path d="M43,60.3V42.5h-7.7v-1h16.6v1h-7.7v17.8H43z"/>
		<path d="M44.4,60.5h-1.5V42.7h-7.7v-1.4h17v1.4h-7.7V60.5z M43.2,60.1H44V42.3h7.7v-0.6H35.5v0.6h7.7V60.1z"/>
	</g>
	<g>
		<path d="M62.1,41c5.1,0,8.3,3.7,8.3,9.9s-3.2,9.9-8.3,9.9c-5.1,0-8.2-3.7-8.2-9.9S57,41,62.1,41z M62.1,59.7
			c4.3,0,7.1-3.2,7.1-8.8c0-5.6-2.8-8.8-7.1-8.8c-4.3,0-7.1,3.2-7.1,8.8C55,56.5,57.7,59.7,62.1,59.7z"/>
		<path d="M62.1,61c-5.2,0-8.4-3.9-8.4-10.1c0-6.2,3.2-10.1,8.4-10.1c5.2,0,8.5,3.9,8.5,10.1C70.5,57.1,67.3,61,62.1,61z M62.1,41.2
			c-5,0-8,3.7-8,9.7c0,6,3.1,9.7,8,9.7c5,0,8.1-3.7,8.1-9.7C70.1,44.9,67,41.2,62.1,41.2z M62.1,59.9c-4.5,0-7.3-3.5-7.3-9
			s2.8-9,7.3-9c4.5,0,7.3,3.5,7.3,9S66.6,59.9,62.1,59.9z M62.1,42.3c-4.3,0-6.9,3.2-6.9,8.6s2.6,8.6,6.9,8.6c4.3,0,6.9-3.3,6.9-8.6
			S66.3,42.3,62.1,42.3z"/>
	</g>
	<g>
		<path d="M74.6,41.5h1.1v4.3c1.2-3.1,3.6-4.7,7.1-4.7c5.1,0,8.3,3.7,8.3,9.9c0,6.2-3.2,9.9-8.3,9.9c-3.4,0-6-1.6-7.1-4.6v11.6h-1.1
			V41.5z M82.9,59.7c4.3,0,7.1-3.2,7.1-8.8c0-5.6-2.8-8.8-7.1-8.8s-7.1,3.3-7.1,8.8C75.8,56.5,78.6,59.7,82.9,59.7z"/>
		<path d="M76,68h-1.5V41.3H76v3.6c1.3-2.6,3.7-4,6.9-4c5.2,0,8.5,3.9,8.5,10.1c0,6.2-3.2,10.1-8.5,10.1c-3.2,0-5.6-1.4-6.9-3.9V68z
			 M74.8,67.6h0.7V55.1l0.4,1c1.1,2.9,3.6,4.5,6.9,4.5c5,0,8.1-3.7,8.1-9.7c0-6-3.1-9.7-8.1-9.7c-3.4,0-5.8,1.6-6.9,4.6l-0.4,1v-5.2
			h-0.7V67.6z M82.9,59.9c-4.5,0-7.3-3.5-7.3-9s2.8-9,7.3-9c4.5,0,7.3,3.5,7.3,9S87.4,59.9,82.9,59.9z M82.9,42.3
			c-4.3,0-6.9,3.3-6.9,8.6c0,5.4,2.6,8.6,6.9,8.6c4.3,0,6.9-3.3,6.9-8.6S87.1,42.3,82.9,42.3z"/>
	</g>
	<g>
		<path d="M95.1,46.8c0.1-3.5,2.8-5.7,7.2-5.7c2.7,0,4.5,0.8,5.5,2.2c0.8,1.1,0.8,2.3,0.8,3.9v9.1c0,2.3,0.1,3,1.6,3h0.7v1h-1
			c-1.9,0-2.5-0.8-2.5-3.2c-1.5,2.3-4.2,3.7-7.6,3.7c-3.4,0-5.6-2.2-5.6-5.3c0-3.5,2.4-4.9,7.5-5.7c3.8-0.5,5.7-0.3,5.7-2.2v-1.6
			c0-2.5-1.8-3.9-5.1-3.9c-3.8,0-6,1.7-6.2,4.7H95.1z M102.6,50.7c-4.8,0.6-7.1,1.6-7.1,4.6c0,2.8,1.7,4.3,4.7,4.3
			c2.1,0,4.1-0.7,5.4-1.8c1.6-1.4,1.9-2.9,1.9-5.5v-2.8C106.9,50.3,105.3,50.4,102.6,50.7z"/>
		<path d="M99.9,61c-3.5,0-5.8-2.2-5.8-5.5c0-4,3.1-5.2,7.7-5.9c0.7-0.1,1.4-0.2,1.9-0.2c2.7-0.3,3.6-0.5,3.6-1.7v-1.6
			c0-3.1-2.6-3.7-4.9-3.7c-3.6,0-5.8,1.6-6,4.5l0,0.2h-1.5l0-0.2c0.1-3.6,3-5.9,7.4-5.9c2.7,0,4.6,0.8,5.6,2.3
			c0.8,1.2,0.9,2.4,0.9,4v9.1c0,2.4,0.1,2.8,1.4,2.8h0.9v1.4h-1.2c-1.8,0-2.5-0.7-2.7-2.7C105.7,59.8,103,61,99.9,61z M102.4,41.9
			c3.4,0,5.3,1.5,5.3,4.1v1.6c0,1.7-1.4,1.9-3.9,2.1c-0.6,0.1-1.2,0.1-1.9,0.2c-5.3,0.8-7.3,2.2-7.3,5.5c0,3.1,2.2,5.1,5.4,5.1
			c3.2,0,5.9-1.3,7.4-3.6l0.4-0.6v0.7c0,2.2,0.6,3,2.3,3h0.8v-0.6h-0.5c-1.8,0-1.8-1-1.8-3.2v-9.1c0-1.5-0.1-2.7-0.8-3.8
			c-0.9-1.4-2.8-2.1-5.3-2.1c-4.1,0-6.7,2-7,5.3H96C96.3,43.6,98.6,41.9,102.4,41.9z M100.2,59.9c-3.1,0-4.9-1.7-4.9-4.5
			c0-3.3,2.7-4.2,7.3-4.8h0l0.9-0.1c2.1-0.2,3.4-0.4,3.8-0.9l0.4-0.5v3.4c0,2.7-0.3,4.2-1.9,5.6C104.3,59.2,102.3,59.9,100.2,59.9z
			 M102.6,50.9c-5.1,0.7-7,1.8-7,4.4c0,2.7,1.6,4.1,4.5,4.1c2,0,3.9-0.6,5.2-1.8c1.5-1.3,1.8-2.8,1.8-5.3V50
			c-0.6,0.4-1.9,0.5-3.7,0.8L102.6,50.9z"/>
	</g>
	<g>
		<path d="M119.2,51.8l-5.7,8.5h-1.3l5.7-8.6c-3.7-0.4-5.4-2.5-5.4-5.1c0-3.8,2.9-5.1,6.3-5.1h6.7v18.8h-1.1v-8.5H119.2z
			 M124.4,42.5h-5.6c-3,0-5.1,1.4-5.1,4.1c0,2.5,2.1,4.2,6.4,4.2h4.3V42.5z"/>
		<path d="M125.8,60.5h-1.5V52h-5l-5.7,8.5h-1.8l5.8-8.6c-3.3-0.5-5.2-2.4-5.2-5.2c0-3.4,2.4-5.3,6.5-5.3h6.9V60.5z M124.6,60.1h0.7
			V41.7h-6.5c-2.3,0-6.1,0.6-6.1,4.9c0,2.8,1.9,4.5,5.2,4.9l0.3,0l-5.7,8.6h0.8l5.7-8.5h5.6V60.1z M124.6,51h-4.5
			c-4.1,0-6.6-1.7-6.6-4.4c0-2.7,1.9-4.3,5.3-4.3h5.8V51z M118.8,42.7c-3.1,0-4.9,1.4-4.9,3.9c0,2.6,2.3,4,6.2,4h4.1v-8H118.8z"/>
	</g>
	<g>
		<path d="M139.9,59.3c1.6-2.1,2.4-5,2.4-9.5v-8.4h12v17.8h2v5.8h-1.1v-4.8h-15.7v4.8h-1.1v-5.8H139.9z M143.4,42.4v7.4
			c0,4.6-0.9,7.6-2.3,9.5h12V42.4H143.4z"/>
		<path d="M139.6,65.3h-1.5v-6.2h1.7c1.5-2.1,2.3-5.1,2.3-9.3v-8.6h12.4v17.8h2v6.2H155v-4.8h-15.3V65.3z M138.5,64.9h0.7v-4.8h16.1
			v4.8h0.7v-5.4h-2V41.7h-11.6v8.2c0,4.3-0.8,7.4-2.4,9.6l-0.1,0.1h-1.5V64.9z M153.4,59.5h-12.7l0.3-0.3c1.5-1.9,2.3-5,2.3-9.3
			v-7.6h10.1V59.5z M141.5,59.1H153V42.6h-9.3v7.2C143.6,54,142.9,57.1,141.5,59.1z"/>
	</g>
	<g>
		<path d="M166.5,60.8c-4.8,0-8-3.7-8-9.9s3.2-9.9,8-9.9c4.8,0,7.9,3.4,7.9,9.2V51h-14.7v0.3c0,5.2,2.9,8.5,6.8,8.5
			c3.1,0,5.6-1.9,6.4-5h1.1C173.2,58.4,170.2,60.8,166.5,60.8z M173.1,49.9c0-4.9-2.7-7.8-6.5-7.8c-3.9,0-6.7,2.9-7,7.8H173.1z"/>
		<path d="M166.5,61c-5,0-8.2-3.9-8.2-10.1c0-6.2,3.1-10.1,8.2-10.1c5.1,0,8.1,3.5,8.1,9.4v0.9h-14.7v0.1c0,4.9,2.6,8.3,6.6,8.3
			c3,0,5.4-1.9,6.2-4.8l0-0.1h1.5l-0.1,0.2C173.3,58.5,170.3,61,166.5,61z M166.5,41.2c-4.8,0-7.8,3.7-7.8,9.7c0,6,3,9.7,7.8,9.7
			c3.6,0,6.4-2.2,7.3-5.6H173c-0.9,3.1-3.4,5-6.6,5c-4.2,0-7-3.5-7-8.7v-0.5h14.7v-0.5C174.1,44.6,171.3,41.2,166.5,41.2z
			 M173.3,50.1h-13.8l0-0.2c0.3-5,3-8,7.2-8c4,0,6.7,3.2,6.7,8V50.1z M159.9,49.7h13c-0.1-4.5-2.5-7.4-6.3-7.4
			C162.8,42.3,160.3,45.1,159.9,49.7z"/>
	</g>
	<g>
		<path d="M180.5,50.6c0,4.9-0.3,10-3.8,9.9h-1.1v-1h0.9c2.6,0,2.8-4.4,2.8-8.9v-9.1h12.3v18.8h-1.1V42.6h-10V50.6z"/>
		<path d="M176.8,60.7C176.7,60.7,176.7,60.7,176.8,60.7l-1.4,0v-1.4h1.1c2.4,0,2.6-4.5,2.6-8.7v-9.3h12.7v19.2h-1.5V42.8h-9.6v7.9
			c0,3.8-0.1,7.7-1.8,9.3C178.3,60.5,177.6,60.7,176.8,60.7z M175.8,60.3h0.9c0.7,0,1.4-0.2,1.9-0.7c1.6-1.5,1.7-5.5,1.7-9v-8.3
			h10.4v17.7h0.7V41.7h-11.9v8.9c0,4.6-0.2,9.1-3,9.1h-0.7V60.3z"/>
	</g>
	<g>
		<path d="M196.4,46.8c0.1-3.5,2.8-5.7,7.2-5.7c2.7,0,4.5,0.8,5.5,2.2c0.8,1.1,0.8,2.3,0.8,3.9v9.1c0,2.3,0.1,3,1.6,3h0.7v1h-1
			c-1.9,0-2.5-0.8-2.5-3.2c-1.5,2.3-4.2,3.7-7.6,3.7c-3.4,0-5.6-2.2-5.6-5.3c0-3.5,2.4-4.9,7.5-5.7c3.8-0.5,5.7-0.3,5.7-2.2v-1.6
			c0-2.5-1.8-3.9-5.1-3.9c-3.8,0-6,1.7-6.2,4.7H196.4z M203.9,50.7c-4.8,0.6-7.1,1.6-7.1,4.6c0,2.8,1.7,4.3,4.7,4.3
			c2.1,0,4-0.7,5.4-1.8c1.6-1.4,1.9-2.9,1.9-5.5v-2.8C208.2,50.3,206.6,50.4,203.9,50.7z"/>
		<path d="M201.2,61c-3.5,0-5.8-2.2-5.8-5.5c0-4,3.1-5.2,7.7-5.9c0.7-0.1,1.4-0.2,1.9-0.2c2.7-0.3,3.6-0.5,3.6-1.7v-1.6
			c0-3.1-2.6-3.7-4.9-3.7c-3.6,0-5.8,1.6-6,4.5l0,0.2h-1.5l0-0.2c0.2-3.6,3-5.9,7.4-5.9c2.7,0,4.6,0.8,5.7,2.3
			c0.8,1.2,0.9,2.4,0.9,4v9.1c0,2.4,0.1,2.8,1.4,2.8h0.9v1.4h-1.2c-1.8,0-2.5-0.7-2.7-2.7C207,59.8,204.3,61,201.2,61z M203.7,41.9
			c3.4,0,5.3,1.5,5.3,4.1v1.6c0,1.7-1.4,1.9-3.9,2.1c-0.6,0.1-1.2,0.1-1.9,0.2c-5.3,0.8-7.3,2.2-7.3,5.5c0,3.1,2.2,5.1,5.4,5.1
			c3.2,0,5.9-1.3,7.4-3.6l0.4-0.6v0.7c0,2.2,0.6,3,2.3,3h0.8v-0.6h-0.5c-1.8,0-1.8-1-1.8-3.2v-9.1c0-1.5-0.1-2.7-0.8-3.8
			c-0.9-1.4-2.8-2.1-5.3-2.1c-4.1,0-6.7,2-7,5.3h0.7C197.6,43.6,199.9,41.9,203.7,41.9z M201.5,59.9c-3.1,0-4.9-1.7-4.9-4.5
			c0-3.3,2.7-4.2,7.3-4.8h0l0.9-0.1c2.1-0.2,3.4-0.4,3.8-0.9l0.4-0.5v3.4c0,2.7-0.3,4.2-1.9,5.6C205.6,59.2,203.6,59.9,201.5,59.9z
			 M203.9,50.9c-5.1,0.7-7,1.8-7,4.4c0,2.7,1.6,4.1,4.5,4.1c2,0,3.9-0.6,5.2-1.8c1.5-1.3,1.8-2.8,1.8-5.3V50
			c-0.6,0.4-1.9,0.5-3.7,0.8L203.9,50.9z"/>
	</g>
	<g>
		<path d="M222.4,60.8c-4.8,0-8-3.7-8-9.9s3.2-9.9,8-9.9c4.8,0,7.9,3.4,7.9,9.2V51h-14.7v0.3c0,5.2,2.9,8.5,6.8,8.5
			c3.1,0,5.6-1.9,6.4-5h1.1C229.1,58.4,226.1,60.8,222.4,60.8z M229.1,49.9c0-4.9-2.7-7.8-6.5-7.8c-3.9,0-6.7,2.9-7,7.8H229.1z"/>
		<path d="M222.4,61c-5,0-8.2-3.9-8.2-10.1c0-6.2,3.1-10.1,8.2-10.1c5.1,0,8.1,3.5,8.1,9.4v0.9h-14.7v0.1c0,4.9,2.6,8.3,6.6,8.3
			c3,0,5.4-1.9,6.2-4.8l0-0.1h1.5l-0.1,0.2C229.3,58.5,226.2,61,222.4,61z M222.4,41.2c-4.8,0-7.8,3.7-7.8,9.7c0,6,3,9.7,7.8,9.7
			c3.6,0,6.4-2.2,7.3-5.6H229c-0.9,3.1-3.4,5-6.6,5c-4.2,0-7-3.5-7-8.7v-0.5h14.7v-0.5C230.1,44.6,227.2,41.2,222.4,41.2z
			 M229.3,50.1h-13.8l0-0.2c0.3-5,3-8,7.2-8c4,0,6.7,3.2,6.7,8V50.1z M215.9,49.7h13c-0.1-4.5-2.5-7.4-6.3-7.4
			C218.8,42.3,216.2,45.1,215.9,49.7z"/>
	</g>
	<g>
		<path d="M239.2,60.3V42.5h-7.7v-1h16.6v1h-7.7v17.8H239.2z"/>
		<path d="M240.6,60.5H239V42.7h-7.7v-1.4h17v1.4h-7.7V60.5z M239.4,60.1h0.7V42.3h7.7v-0.6h-16.2v0.6h7.7V60.1z"/>
	</g>
	<g>
		<path d="M31.3,87.1l-4.1-4.2l-7.3,11h-1.3l7.8-11.8l-6.7-7h1.4l10.1,10.7V75.1h1.1v10.7l10.1-10.7h1.4l-6.7,7L45,93.9h-1.3
			l-7.3-11l-4.1,4.2v6.8h-1.1V87.1z"/>
		<path d="M45.4,94.1h-1.8L43.6,94l-7.2-10.8l-3.8,4v6.9h-1.5v-6.9l-3.8-4l-7.2,10.9h-1.8l7.9-12l-6.9-7.2h2l9.8,10.4V74.9h1.5v10.4
			l9.8-10.4h2l-6.9,7.2L45.4,94.1z M43.9,93.7h0.8L37,82l6.5-6.8h-0.8l-10.4,11v-11h-0.7v11l-10.4-11h-0.8l6.5,6.8L19,93.7h0.8
			l7.4-11.1l4.3,4.5v6.7h0.7V87l4.3-4.5L43.9,93.7z"/>
	</g>
	<g>
		<path d="M47.4,75.1h1.1v17l12.2-17h1.1v18.8h-1.1V77L48.5,93.9h-1.1V75.1z"/>
		<path d="M62.1,94.1h-1.5V77.6L48.6,94.1h-1.4V74.9h1.5v16.5l11.9-16.5h1.4V94.1z M60.9,93.7h0.7V75.3h-0.8L48.3,92.7V75.3h-0.7
			v18.4h0.8l12.5-17.3V93.7z"/>
	</g>
	<g>
		<path d="M78.2,79.6c0-2.2-2-3.9-5-3.9c-2.8,0-4.8,1.4-5.4,4.2h-1.1c0.5-3,2.8-5.2,6.5-5.2c4.1,0,6.2,2.2,6.2,5
			c0,2.4-1.5,4-3.5,4.4c2.4,0.5,4.2,2.3,4.2,4.9c0,3-2.9,5.3-7,5.3c-4.2,0-6.7-2.3-7.1-6.1h1.1c0.1,3.2,2.6,5.1,5.9,5.1
			c3.4,0,5.9-1.8,5.9-4.3c0-3-2.9-4.4-6.6-4.4h-1.5v-1H73C76,83.5,78.2,82.5,78.2,79.6z"/>
		<path d="M73.1,94.6c-4.2,0-6.9-2.3-7.3-6.3l0-0.2h1.6l0,0.2c0.1,3,2.4,4.9,5.7,4.9c3.3,0,5.7-1.7,5.7-4.1c0-3.1-3.3-4.2-6.4-4.2
			h-1.7v-1.4H73c3.4,0,5-1.2,5-3.8c0-2.1-2-3.7-4.8-3.7c-2.8,0-4.6,1.4-5.2,4l0,0.2h-1.5l0-0.2c0.6-3.3,3.2-5.4,6.7-5.4
			c3.9,0,6.4,2,6.4,5.2c0,2-1.2,3.8-3,4.4c2.3,0.8,3.7,2.6,3.7,5C80.3,92.2,77.3,94.6,73.1,94.6z M66.2,88.5c0.5,3.6,3,5.7,6.9,5.7
			c3.9,0,6.8-2.2,6.8-5.1c0-2.4-1.6-4.2-4.1-4.8L75,84.1l0.9-0.2c2-0.4,3.3-2.1,3.3-4.2c0-2.9-2.4-4.8-6-4.8c-3.2,0-5.6,1.8-6.2,4.8
			h0.7c0.7-2.7,2.6-4.2,5.6-4.2c3,0,5.2,1.7,5.2,4.1c0,2.8-1.8,4.2-5.4,4.2h-2v0.6h1.3c4.2,0,6.8,1.8,6.8,4.6c0,2.6-2.6,4.5-6.1,4.5
			c-3.5,0-5.9-2-6.1-5.1H66.2z"/>
	</g>
	<g>
		<path d="M84,75.1h1.1v8.6h11.6v-8.6h1.1v18.8h-1.1v-9.2H85.1v9.2H84V75.1z"/>
		<path d="M98.1,94.1h-1.5v-9.2H85.3v9.2h-1.5V74.9h1.5v8.6h11.2v-8.6h1.5V94.1z M97,93.7h0.7V75.3H97v8.6h-12v-8.6h-0.7v18.4h0.7
			v-9.2h12V93.7z"/>
	</g>
	<g>
		<path d="M115.8,88.7c0,3.2-2.4,5.2-5.8,5.2h-7.2V75.1h1.1v8.4h4.6C113.6,83.5,115.8,85.1,115.8,88.7z M103.9,92.9h5.6
			c3,0,5.1-1.5,5.1-4.2c0-3-2-4.1-6.3-4.1h-4.3V92.9z"/>
		<path d="M109.9,94.1h-7.4V74.9h1.5v8.4h4.4c5.1,0,7.4,1.7,7.4,5.4C116,91.9,113.5,94.1,109.9,94.1z M103,93.7h7
			c3.3,0,5.6-2.1,5.6-5c0-3.5-2.1-5-7-5h-4.8v-8.4H103V93.7z M109.5,93.1h-5.8v-8.8h4.5c4.6,0,6.5,1.3,6.5,4.3
			C114.8,91.4,112.8,93.1,109.5,93.1z M104.1,92.7h5.4c3,0,4.9-1.5,4.9-4c0-2.8-1.8-3.9-6.1-3.9h-4.1V92.7z"/>
	</g>
	<g>
		<path d="M131.8,84.2c0,4.9-0.3,10-3.8,9.9H127v-1h0.9c2.6,0,2.8-4.4,2.8-8.9v-9.1H143v18.8h-1.1V76.2h-10V84.2z"/>
		<path d="M128.2,94.3C128.1,94.3,128.1,94.3,128.2,94.3l-1.4,0v-1.4h1.1c2.4,0,2.6-4.5,2.6-8.7v-9.3h12.7v19.2h-1.5V76.4H132v7.9
			c0,3.8-0.1,7.7-1.8,9.3C129.7,94.1,129,94.3,128.2,94.3z M127.2,93.9h0.9c0.8,0,1.4-0.2,1.9-0.7c1.6-1.5,1.7-5.5,1.7-9V76h10.4
			v17.7h0.7V75.3h-11.9v8.9c0,4.6-0.2,9.1-3,9.1h-0.7V93.9z"/>
	</g>
	<g>
		<path d="M155.3,94.4c-4.8,0-8-3.7-8-9.9s3.2-9.9,8-9.9c4.8,0,7.9,3.4,7.9,9.2v0.7h-14.7v0.3c0,5.2,2.9,8.5,6.8,8.5
			c3.1,0,5.6-1.9,6.4-5h1.1C162,92,159,94.4,155.3,94.4z M161.9,83.5c0-4.9-2.7-7.8-6.5-7.8c-3.9,0-6.7,2.9-7,7.8H161.9z"/>
		<path d="M155.3,94.6c-5,0-8.2-3.9-8.2-10.1c0-6.2,3.1-10.1,8.2-10.1c5.1,0,8.1,3.5,8.1,9.4v0.9h-14.7v0.1c0,4.9,2.6,8.3,6.6,8.3
			c3,0,5.4-1.9,6.2-4.8l0-0.1h1.5l-0.1,0.2C162.1,92.1,159.1,94.6,155.3,94.6z M155.3,74.8c-4.8,0-7.8,3.7-7.8,9.7
			c0,6,3,9.7,7.8,9.7c3.6,0,6.4-2.2,7.3-5.6h-0.7c-0.9,3.1-3.4,5-6.6,5c-4.2,0-7-3.5-7-8.7v-0.5h14.7v-0.5
			C162.9,78.2,160.1,74.8,155.3,74.8z M162.1,83.7h-13.8l0-0.2c0.3-5,3-8,7.2-8c4,0,6.7,3.2,6.7,8V83.7z M148.7,83.3h13
			c-0.1-4.5-2.5-7.4-6.3-7.4C151.6,75.9,149.1,78.7,148.7,83.3z"/>
	</g>
	<g>
		<path d="M166.6,75.1h12.8v1h-11.6v17.8h-1.2V75.1z"/>
		<path d="M168,94.1h-1.6V74.9h13.2v1.4H168V94.1z M166.8,93.7h0.8V75.9h11.6v-0.6h-12.4V93.7z"/>
	</g>
	<g>
		<path d="M195.3,93.9h-1.1v-9.2c-1.2,0.9-3.3,1.5-5.3,1.5c-3.4,0-6.6-1.4-6.6-6.7v-4.4h1.1v4.4c0,3.5,1.3,5.6,5.6,5.6
			c2.8,0,3.6-0.6,5.2-1.6v-8.4h1.1V93.9z"/>
		<path d="M195.5,94.1h-1.5v-9c-1.3,0.8-3.2,1.3-5.1,1.3c-4.4,0-6.8-2.4-6.8-6.9v-4.6h1.5v4.6c0,3.9,1.6,5.4,5.4,5.4
			c2.7,0,3.5-0.5,4.9-1.5l0,0v-8.5h1.5V94.1z M194.3,93.7h0.7V75.3h-0.7v8.3l-0.2,0.1c-1.5,1-2.4,1.6-5.1,1.6c-4,0-5.8-1.8-5.8-5.8
			v-4.2h-0.7v4.2c0,4.3,2.2,6.5,6.4,6.5c1.9,0,4-0.6,5.1-1.5l0.3-0.2V93.7z"/>
	</g>
	<g>
		<path d="M207.5,94.4c-4.8,0-8-3.7-8-9.9s3.2-9.9,8-9.9c4.8,0,7.9,3.4,7.9,9.2v0.7h-14.7v0.3c0,5.2,2.9,8.5,6.8,8.5
			c3.1,0,5.6-1.9,6.4-5h1.1C214.2,92,211.2,94.4,207.5,94.4z M214.2,83.5c0-4.9-2.7-7.8-6.5-7.8c-3.9,0-6.7,2.9-7,7.8H214.2z"/>
		<path d="M207.5,94.6c-5,0-8.2-3.9-8.2-10.1c0-6.2,3.1-10.1,8.2-10.1c5.1,0,8.1,3.5,8.1,9.4v0.9h-14.7v0.1c0,4.9,2.6,8.3,6.6,8.3
			c3,0,5.4-1.9,6.2-4.8l0-0.1h1.5l-0.1,0.2C214.4,92.1,211.4,94.6,207.5,94.6z M207.5,74.8c-4.8,0-7.8,3.7-7.8,9.7
			c0,6,3,9.7,7.8,9.7c3.6,0,6.4-2.2,7.3-5.6h-0.7c-0.9,3.1-3.4,5-6.6,5c-4.2,0-7-3.5-7-8.7v-0.5h14.7v-0.5
			C215.2,78.2,212.3,74.8,207.5,74.8z M214.4,83.7h-13.8l0-0.2c0.3-5,3-8,7.2-8c4,0,6.7,3.2,6.7,8V83.7z M201,83.3h13
			c-0.1-4.5-2.5-7.4-6.3-7.4C203.9,75.9,201.3,78.7,201,83.3z"/>
	</g>
	<g>
		<path d="M221.3,67.9h1.3l-0.1,19.5h-0.9L221.3,67.9z M221.4,90.7h1.2v3.2h-1.2V90.7z"/>
		<path d="M222.9,94.1h-1.6v-3.6h1.6V94.1z M221.6,93.7h0.8v-2.8h-0.8V93.7z M222.7,87.6h-1.3l0-0.2l-0.3-19.7h1.7l0,0.2L222.7,87.6
			z M221.8,87.2h0.5l0.1-19.1h-0.9L221.8,87.2z"/>
	</g>
</g>
</svg>
