<?xml version="1.0" encoding="utf-8"?>
<!-- Generator: Adobe Illustrator 19.1.0, SVG Export Plug-In . SVG Version: 6.00 Build 0)  -->
<svg version="1.1" id="Layer_1" xmlns="http://www.w3.org/2000/svg" xmlns:xlink="http://www.w3.org/1999/xlink" x="0px" y="0px"
	 width="77px" height="58px" viewBox="0 0 77 58" style="enable-background:new 0 0 77 58;" xml:space="preserve">
<style type="text/css">
	.st0{fill:#FFFFFF;}
	.st1{fill:#FD2016;}
	.st2{fill:#0073BB;}
	.st3{fill:#C4C4C3;}
</style>
<g>
	<g>
		<path class="st0" d="M45.6,27.7c1.2,0,2.4,0,3.6,0c0.2,0,0.3,0.1,0.3,0.3c0.4,1,0.8,1.9,1.2,2.9c0.5,1.3,1,2.5,1.5,3.8
			c0.1,0.2,0.1,0.3,0.2,0.6c1-2.5,2-5,3-7.5c0,0,0,0,0.1-0.1c1.3,0,2.5,0,3.8,0c0,0,0,0,0.1,0.1c-0.2,0.5-0.4,1.1-0.7,1.6
			c-0.5,1.3-1.1,2.5-1.6,3.8c-0.4,0.9-0.8,1.8-1.2,2.7c-0.3,0.7-0.6,1.4-0.9,2.1c0,0,0,0-0.1,0.1c-1.6,0-3.2,0-4.8,0
			c0,0,0,0-0.1-0.1c-0.4-0.8-0.7-1.6-1.1-2.4c-0.4-0.9-0.8-1.8-1.2-2.7c-0.5-1.3-1.1-2.5-1.6-3.8C46,28.7,45.8,28.3,45.6,27.7
			C45.6,27.8,45.6,27.8,45.6,27.7z"/>
		<path class="st0" d="M27.3,38.1c-1.6,0-3.2,0-4.8,0c0,0,0,0-0.1-0.1c-0.4-0.8-0.7-1.6-1.1-2.4c-0.4-0.9-0.8-1.8-1.2-2.7
			c-0.5-1.3-1.1-2.5-1.6-3.8c-0.2-0.5-0.4-0.9-0.6-1.4c0,0,0,0,0-0.1c1.2,0,2.4,0,3.6,0c0.2,0,0.3,0.1,0.3,0.3
			c0.4,1,0.8,1.9,1.2,2.9c0.5,1.3,1,2.5,1.5,3.8c0.1,0.2,0.1,0.3,0.2,0.6c1-2.5,2-5,3-7.5c0,0,0,0,0.1-0.1c1.3,0,2.5,0,3.8,0
			c0,0,0,0,0.1,0.1c-0.2,0.5-0.4,1.1-0.7,1.6c-0.5,1.3-1.1,2.5-1.6,3.8c-0.4,0.9-0.8,1.8-1.2,2.7C28,36.6,27.7,37.3,27.3,38.1
			C27.4,38.1,27.4,38.1,27.3,38.1z"/>
		<path class="st0" d="M58.9,39.9c0.4,0,0.9,0,1.3,0c0,0,0,0,0.1,0.1c0,1.3,0,2.5,0,3.8c0,0,0,0-0.1,0.1c-1.3,0-2.5,0-3.8,0
			c-0.5,0-0.9-0.5-0.9-1.1c0-0.9,0-1.8,0-2.8c0,0,0,0,0.1-0.1c0.4,0,0.9,0,1.3,0c0,0,0,0,0.1,0.1c0,0.8,0,1.7,0,2.5
			c0,0.2,0.1,0.3,0.3,0.3c0.4,0,0.8,0,1.2,0c0.2,0,0.3,0,0.3-0.3C58.8,41.6,58.9,40.8,58.9,39.9C58.9,40,58.9,39.9,58.9,39.9z"/>
		<path class="st0" d="M47.1,43.8c-0.4,0-0.9,0-1.3,0c0,0,0,0-0.1-0.1c0-1.3,0-2.6,0-3.8c0,0,0,0,0.1-0.1c0.9,0,1.8,0,2.6,0
			c0.5,0,0.9,0.5,0.9,1c0,0.1,0,0.3,0,0.4c0,0,0,0-0.1,0.1c-0.4,0-0.9,0-1.3,0c0,0,0,0-0.1-0.1c0-0.1,0.1-0.3-0.1-0.3
			c-0.2,0-0.4,0-0.6,0c-0.1,0,0,0.2-0.1,0.2C47.1,42,47.1,42.9,47.1,43.8C47.1,43.8,47.1,43.8,47.1,43.8z"/>
		<g>
			<path class="st0" d="M32.9,30.6c0.1-0.9,0.4-1.6,1.1-2.2c0.6-0.5,1.2-0.6,1.9-0.6c2.7,0,5.5,0,8.2,0c0,0,0,0,0.1,0.1
				c0,0.9,0,1.9,0,2.8c0,0,0,0-0.1,0.1c-2.3,0-4.5,0-6.8,0C35.8,30.6,34.4,30.6,32.9,30.6C32.9,30.6,32.9,30.6,32.9,30.6z"/>
			<path class="st0" d="M33,31.5c3,0,5.9-0.1,8.9,0c1.5,0,2.6,1.2,2.6,2.7c0,0,0,0,0,0.1c-2.8,0-5.7,0-8.5,0c-0.7,0-1.4-0.1-2-0.6
				c0,0,0,0-0.1-0.1c0,0-0.1-0.1-0.1-0.1c0,0,0,0-0.1-0.1c-0.5-0.5-0.7-1-0.7-1.7C33,31.7,33,31.5,33,31.5z"/>
			<path class="st0" d="M44.4,35.2c-1.3,0-2.6,0-3.9,0c-2.5,0-5,0-7.5,0c0,0,0,0-0.1,0.1c0,0.9,0,1.9,0,2.8c0,0,0,0,0.1,0.1
				c0.4,0,0.8,0,1.2,0c2.6,0,5.2,0.1,7.9-0.1c0.6,0,1.1-0.3,1.6-0.7C44.2,36.8,44.5,36.1,44.4,35.2C44.5,35.2,44.5,35.2,44.4,35.2z"
				/>
		</g>
		<path class="st0" d="M45,40.8c0-0.4-0.5-0.9-0.9-0.9c-1,0-2,0-3,0c-0.7,0-1.1,0.4-1.1,1.1c0,0.6,0,1.2,0,1.8c0,0.6,0.4,1,1,1
			c0.6,0,1.1,0,1.7,0c0.3,0,0.6-0.1,0.8,0c0.2,0.2,0,0.5,0.1,0.8c0,0.2-0.1,0.3-0.3,0.3c-0.9,0-1.9,0-2.8,0c0,0,0,0-0.1,0.1
			c0,0.3,0,0.6,0,0.9c0,0,0,0,0.1,0.1c1.2,0,2.5,0,3.7,0c0.5,0,0.9-0.4,0.9-0.9C45,43.7,45,42.2,45,40.8z M43.3,41
			c0.2,0,0.3,0,0.2,0.2c0,0.5,0,0.9,0,1.4c0,0.2,0,0.2-0.2,0.2c-0.5,0-1.1,0-1.6,0c-0.2,0-0.2,0-0.2-0.2c0-0.5,0-0.9,0-1.4
			c0-0.2,0-0.2,0.2-0.2c0.1,0,0.3,0,0.4,0c0.1,0,0.3,0,0.4,0"/>
		<path class="st0" d="M65.9,40.8c0-0.5-0.4-0.9-0.9-0.9c-1.3,0-2.6,0-4,0c0,0,0,0-0.1,0.1c0,2,0,4,0,6c0,0,0,0,0.1,0.1
			c0.4,0,0.9,0,1.3,0c0,0,0,0,0.1-0.1c0-0.6,0-1.2,0-1.8c0-0.2,0-0.3,0.3-0.3c0.8,0,1.5,0,2.3,0c0.5,0,1-0.5,1-1
			C65.9,42.2,66,41.5,65.9,40.8z M64.5,42.4c0,0.2,0,0.2-0.2,0.2c-0.5,0-1.1,0-1.6,0c-0.2,0-0.2,0-0.2-0.2c0-0.4,0-0.9,0-1.3
			c0-0.2,0-0.2,0.2-0.2c0.1,0,0.3,0,0.4,0c0.1,0,0.3,0,0.4,0c0.1,0,0.3,0,0.4,0c0.1,0,0.3,0,0.4,0c0.2,0,0.3,0,0.2,0.2
			C64.5,41.5,64.5,42,64.5,42.4z"/>
		<path class="st0" d="M54.9,40.8c0-0.6-0.6-1-1-1c-1,0-2,0-3,0c-0.2,0-0.5,0-0.7,0.2c0,0,0,0-0.1,0.1c-0.2,0.2-0.3,0.5-0.3,0.8
			c0,0.7,0,1.3,0,2c0,0.7,0.5,1,0.9,1c1.1,0,2.2,0,3.3,0c0.5,0,0.9-0.4,0.9-0.9C54.9,42.2,54.9,41.5,54.9,40.8z M53.3,42.8
			c-0.1,0-0.1,0-0.2,0c-0.2,0-0.4,0-0.6,0c-0.1,0-0.3,0-0.4,0c-0.1,0-0.3,0-0.4,0c-0.1,0-0.2,0-0.2-0.2c0-0.5,0-1,0-1.5
			c0-0.2,0.1-0.2,0.2-0.2c0.6,0,1.1,0,1.7,0c0.2,0,0.2,0,0.2,0.2c0,0.5,0,1,0,1.5C53.5,42.7,53.4,42.8,53.3,42.8z"/>
		<path class="st1" d="M26.5,15.3c0,0,18.9-5.9,37.5,6.9c20,13.7,10,25.3,9.9,25.4c-1.2,1.5-7.7,9.8-26.4,8c0,0,16.1,0.3,20.6-11.4
			c3.9-10.2-8-19-8-19S47.4,13.7,26.5,15.3z"/>
		<path class="st2" d="M29.7,11.7c0,0-18.8-2-26.6,8c-7.4,9.5,3.4,20.1,4,20.7c0,0,9,9.7,24.9,12.3C43.5,54.5,51,51.9,51,51.9
			s-22,3.5-38-13.6c0,0-6.8-6.9-3.9-15.3S23.3,12.2,29.7,11.7z"/>
		<path class="st3" d="M46.8,13.3c0,0-12.4-14.4-26.1-12c0,0-9.9,1.5-11.6,13.7c0,0-1.8,8.9,4.4,21.6c0,0,6.4,13.7,18.5,20.5
			c0,0-10.3-8.1-15.2-21.4c0,0-4.3-12.2-0.3-20.8s12-8.5,12-8.5S37.4,5.3,46.8,13.3z"/>
	</g>
</g>
</svg>
