<?xml version="1.0" encoding="utf-8"?>
<!-- Generator: Adobe Illustrator 19.1.0, SVG Export Plug-In . SVG Version: 6.00 Build 0)  -->
<svg version="1.1" id="Layer_1" xmlns="http://www.w3.org/2000/svg" xmlns:xlink="http://www.w3.org/1999/xlink" x="0px" y="0px"
	 width="151px" height="97px" viewBox="0 0 151 97" style="enable-background:new 0 0 151 97;" xml:space="preserve">
<g>
	<g>
		<g>
			<path d="M28.6,16L28.6,16c0,3.5,1.8,5.4,4.9,5.4c3.1,0,5.3-1.9,5.3-4.8c0-3-1.9-4.4-5.9-4.4h-0.6v-0.8c0.3,0,0.5,0,0.7,0
				c3.4,0,5.2-1.7,5.2-4.4c0-2.4-1.6-3.9-4.5-3.9c-2.9,0-4.6,1.7-4.6,4.7v0.1h-0.9V7.9c0-3.6,2.1-5.6,5.7-5.6c3.2,0,5.2,1.9,5.2,4.8
				c0,2.3-1.3,4.1-3.2,4.7c2.4,0.5,3.8,2.3,3.8,4.8c0,3.5-2.5,5.8-6.2,5.8c-3.6,0-5.8-2.2-5.8-6.2V16H28.6z"/>
			<path d="M33.5,22.5c-3.8,0-6-2.4-6-6.4v-0.3h1.3v0.3c0,3.2,1.7,5.1,4.7,5.1c3,0,5.1-1.9,5.1-4.6c0-2.9-1.9-4.2-5.7-4.2H32v-1.2
				h0.2c0.1,0,0.3,0,0.4,0c0.1,0,0.2,0,0.3,0c3.2,0,5-1.5,5-4.2c0-2.3-1.6-3.7-4.3-3.7c-2.8,0-4.4,1.7-4.4,4.5v0.3H28V7.9
				C28,4.2,30.1,2,33.8,2c3.3,0,5.4,2,5.4,5c0,2.1-1.1,3.9-2.8,4.7c2.1,0.7,3.4,2.5,3.4,4.8C39.9,20.1,37.3,22.5,33.5,22.5z
				 M27.8,16.2c0,3.8,2.1,5.9,5.6,5.9c3.6,0,6-2.3,6-5.6c0-2.4-1.4-4.1-3.7-4.6l-0.7-0.2l0.7-0.2c1.9-0.6,3.1-2.3,3.1-4.5
				c0-2.7-2-4.6-5.1-4.6c-3.4,0-5.4,1.9-5.5,5.3h0.5c0-3,1.8-4.9,4.8-4.9c2.9,0,4.7,1.5,4.7,4.1c0,2.9-2,4.6-5.4,4.6
				c-0.1,0-0.2,0-0.3,0c-0.1,0-0.1,0-0.2,0V12h0.4c4.1,0,6.1,1.5,6.1,4.6c0,2.9-2.3,5-5.5,5c-3.1,0-5-2-5.1-5.4H27.8z"/>
		</g>
		<g>
			<path d="M62.2,1.6v0.9H51.5v19.3h-0.9V1.6H62.2z"/>
			<path d="M51.7,22h-1.3V1.4h12v1.3H51.7V22z M50.8,21.6h0.6V2.3H62V1.8H50.8V21.6z"/>
		</g>
		<g>
			<path d="M71.7,1.1c5.5,0,8.9,4,8.9,10.6s-3.4,10.5-8.9,10.5c-5.5,0-8.9-3.9-8.9-10.5S66.1,1.1,71.7,1.1z M71.7,21.4
				c4.9,0,8-3.6,8-9.7s-3-9.7-8-9.7c-4.9,0-7.9,3.6-7.9,9.7S66.7,21.4,71.7,21.4z"/>
			<path d="M71.7,22.4c-5.6,0-9.1-4.1-9.1-10.7c0-6.6,3.5-10.7,9.1-10.7c5.6,0,9.1,4.1,9.1,10.7C80.8,18.3,77.3,22.4,71.7,22.4z
				 M71.7,1.3c-5.5,0-8.7,3.9-8.7,10.4c0,6.5,3.3,10.3,8.7,10.3c5.5,0,8.7-3.9,8.7-10.3C80.4,5.2,77.1,1.3,71.7,1.3z M71.7,21.6
				c-5.1,0-8.1-3.7-8.1-9.9c0-6.2,3-9.9,8.1-9.9c5,0,8.2,3.8,8.2,9.9C79.8,17.9,76.8,21.6,71.7,21.6z M71.7,2.2
				c-4.9,0-7.7,3.6-7.7,9.5c0,5.9,2.9,9.5,7.7,9.5c4.9,0,7.8-3.5,7.8-9.5C79.4,5.7,76.5,2.2,71.7,2.2z"/>
		</g>
		<g>
			<path d="M83,20.9c1.5-1.9,2.2-4.2,2.2-10.1V1.6h12.5v19.3h1.9v5.7h-0.9v-4.9H82.4v4.9h-0.9v-5.7H83z M86.2,2.4V12
				c0,3.9-0.7,7.3-2,8.9h12.6V2.4H86.2z"/>
			<path d="M99.8,26.9h-1.3V22h-16v4.9h-1.3v-6.1h1.7c1.4-1.8,2.1-3.9,2.1-9.9V1.4h12.9v19.3h1.9V26.9z M98.9,26.5h0.5v-5.4h-1.9
				V1.8H85.4v9c0,6.1-0.8,8.3-2.2,10.2l-0.1,0.1h-1.5v5.4h0.5v-4.9h16.8V26.5z M96.9,21.1H83.7l0.3-0.3c1.2-1.5,2-4.8,2-8.8V2.2h11
				V21.1z M84.5,20.7h12V2.6H86.4V12C86.4,15.9,85.7,19.1,84.5,20.7z"/>
		</g>
		<g>
			<path d="M108.9,1.6h1.1l7.7,20.2h-0.9l-2.6-6.9h-9.4l-2.6,6.9h-0.9L108.9,1.6z M113.8,14.1l-4.3-11.4l-4.4,11.4H113.8z"/>
			<path d="M117.9,22h-1.3l-2.6-6.9h-9.1l-2.6,6.9h-1.4l8-20.6h1.3l0,0.1L117.9,22z M116.9,21.6h0.5l-7.5-19.8h-0.8l-7.7,19.8h0.5
				l2.6-6.9h9.7L116.9,21.6z M114.1,14.2h-9.3l4.7-12.1L114.1,14.2z M105.3,13.9h8.2l-4.1-10.6L105.3,13.9z"/>
		</g>
	</g>
	<g>
		<g>
			<path d="M24.3,30.8v0.9H13.6V51h-0.9V30.8H24.3z"/>
			<path d="M13.8,51.2h-1.3V30.6h12v1.3H13.8V51.2z M12.8,50.8h0.6V31.6h10.7V31H12.8V50.8z"/>
		</g>
		<g>
			<path d="M29.7,30.8h1.1L38.5,51h-0.9l-2.6-6.9h-9.4L22.9,51h-0.9L29.7,30.8z M34.6,43.3l-4.3-11.4l-4.4,11.4H34.6z"/>
			<path d="M38.7,51.2h-1.3l-2.6-6.9h-9.1L23,51.2h-1.4l8-20.6h1.3l0,0.1L38.7,51.2z M37.7,50.8h0.5L30.7,31h-0.8l-7.7,19.8h0.5
				l2.6-6.9h9.7L37.7,50.8z M34.9,43.5h-9.3l4.7-12.1L34.9,43.5z M26.1,43.1h8.2l-4.1-10.6L26.1,43.1z"/>
		</g>
		<g>
			<path d="M53.6,36.2c0,1.6-0.5,3-1.5,4c-1.3,1.3-3.2,1.5-5.8,1.5h-4.5V51h-0.9V30.8h5.5C51.2,30.8,53.6,32.5,53.6,36.2z
				 M41.8,31.7v9.2h3.8c2,0,3.5,0,4.7-0.5c1.4-0.6,2.3-2.2,2.3-4.2c0-1.7-0.7-2.9-2-3.7c-1.2-0.7-2.8-0.7-4.9-0.7H41.8z"/>
			<path d="M42,51.2h-1.3V30.6h5.7c5.1,0,7.4,1.8,7.4,5.5c0,1.7-0.6,3.1-1.6,4.1c-1.3,1.3-3.1,1.6-6,1.6H42V51.2z M41,50.8h0.6v-9.3
				h4.7c2.8,0,4.5-0.2,5.7-1.5c0.9-0.9,1.4-2.3,1.4-3.9c0-3.5-2.2-5.1-7.1-5.1H41V50.8z M45.6,41.1h-4v-9.6h4.1c2.2,0,3.8,0.1,5,0.7
				c1.4,0.8,2.1,2.1,2.1,3.8c0,2.1-0.9,3.8-2.4,4.4C49.1,41.1,47.6,41.1,45.6,41.1z M42,40.7h3.6c1.9,0,3.5,0,4.6-0.5
				c1.4-0.6,2.2-2.1,2.2-4.1c0-1.6-0.7-2.8-1.9-3.5c-1.2-0.6-2.7-0.7-4.9-0.7H42V40.7z"/>
		</g>
		<g>
			<path d="M60.5,30.8h1.1L69.3,51h-0.9l-2.6-6.9h-9.4L53.7,51h-0.9L60.5,30.8z M65.4,43.3l-4.3-11.4l-4.4,11.4H65.4z"/>
			<path d="M69.6,51.2h-1.3l-2.6-6.9h-9.1l-2.6,6.9h-1.4l8-20.6h1.3l0,0.1L69.6,51.2z M68.5,50.8H69L61.5,31h-0.8L53,50.8h0.5
				l2.6-6.9h9.7L68.5,50.8z M65.7,43.5h-9.3l4.7-12.1L65.7,43.5z M56.9,43.1h8.2l-4.1-10.6L56.9,43.1z"/>
		</g>
		<g>
			<path d="M71.6,30.8h0.9v9h12.8v-9h0.9V51h-0.9V40.7H72.5V51h-0.9V30.8z"/>
			<path d="M86.5,51.2h-1.3V40.9H72.7v10.4h-1.3V30.6h1.3v9h12.4v-9h1.3V51.2z M85.5,50.8h0.6V31h-0.6v9H72.4v-9h-0.6v19.8h0.6V40.5
				h13.2V50.8z"/>
		</g>
		<g>
			<path d="M95.3,31.7h-6.4v-0.9h13.6v0.9h-6.3V51h-0.9V31.7z"/>
			<path d="M96.4,51.2h-1.3V31.9h-6.4v-1.3h14v1.3h-6.3V51.2z M95.5,50.8H96V31.5h6.3V31H89.1v0.5h6.4V50.8z"/>
		</g>
		<g>
			<path d="M118.7,51V32.5L106.1,51h-0.9V30.8h0.9v18.6l12.6-18.6h1V51H118.7z"/>
			<path d="M119.9,51.2h-1.3V33.1l-12.4,18.1h-1.2V30.6h1.3v18.1l12.3-18.1h1.3V51.2z M118.9,50.8h0.6V31h-0.7l-12.9,19V31h-0.6
				v19.8h0.6l13-19V50.8z"/>
		</g>
		<g>
			<path d="M137.5,51V32.5L124.8,51h-0.9V30.8h0.9v18.6l12.6-18.6h1V51H137.5z"/>
			<path d="M138.6,51.2h-1.3V33.1l-12.4,18.1h-1.2V30.6h1.3v18.1l12.3-18.1h1.3V51.2z M137.7,50.8h0.6V31h-0.7l-12.9,19V31h-0.6
				v19.8h0.6l13-19V50.8z"/>
		</g>
	</g>
	<g>
		<path d="M5.7,61.8c3.1,0,5,2.2,5,5.9c0,3.7-1.9,5.9-5,5.9c-3.1,0-5-2.2-5-5.9C0.7,64.1,2.6,61.8,5.7,61.8z M5.7,73.2
			c2.8,0,4.5-2,4.5-5.4c0-3.4-1.7-5.5-4.5-5.5s-4.5,2-4.5,5.5C1.2,71.2,2.9,73.2,5.7,73.2z"/>
		<path d="M5.7,73.9c-3.2,0-5.2-2.3-5.2-6.1c0-3.8,2-6.1,5.2-6.1c3.2,0,5.2,2.4,5.2,6.1C10.9,71.5,8.9,73.9,5.7,73.9z M5.7,62
			c-3,0-4.8,2.1-4.8,5.7c0,3.6,1.8,5.7,4.8,5.7c3,0,4.8-2.1,4.8-5.7C10.5,64.2,8.7,62,5.7,62z M5.7,73.4c-2.9,0-4.7-2.1-4.7-5.6
			c0-3.5,1.8-5.6,4.7-5.6c2.9,0,4.7,2.2,4.7,5.6C10.4,71.2,8.6,73.4,5.7,73.4z M5.7,62.5c-2.7,0-4.3,2-4.3,5.3C1.4,71.1,3,73,5.7,73
			c2.7,0,4.3-2,4.3-5.2C10,64.5,8.4,62.5,5.7,62.5z"/>
	</g>
	<g>
		<path d="M14.7,62.6h-3.6v-0.5h7.7v0.5h-3.5v10.9h-0.5V62.6z"/>
		<path d="M15.5,73.6h-0.9V62.8h-3.6v-0.9h8v0.9h-3.5V73.6z M14.9,73.2h0.1V62.4h3.5v-0.1h-7.3v0.1h3.6V73.2z"/>
	</g>
	<g>
		<path d="M28.9,61.8c3.1,0,5,2.2,5,5.9c0,3.7-1.9,5.9-5,5.9c-3.1,0-5-2.2-5-5.9C23.9,64.1,25.8,61.8,28.9,61.8z M28.9,73.2
			c2.8,0,4.5-2,4.5-5.4c0-3.4-1.7-5.5-4.5-5.5s-4.5,2-4.5,5.5C24.5,71.2,26.1,73.2,28.9,73.2z"/>
		<path d="M28.9,73.9c-3.2,0-5.2-2.3-5.2-6.1c0-3.8,2-6.1,5.2-6.1c3.2,0,5.2,2.4,5.2,6.1C34.1,71.5,32.1,73.9,28.9,73.9z M28.9,62
			c-3,0-4.8,2.1-4.8,5.7c0,3.6,1.8,5.7,4.8,5.7c3,0,4.8-2.1,4.8-5.7C33.8,64.2,31.9,62,28.9,62z M28.9,73.4c-2.9,0-4.7-2.1-4.7-5.6
			c0-3.5,1.8-5.6,4.7-5.6c2.9,0,4.7,2.2,4.7,5.6C33.6,71.2,31.8,73.4,28.9,73.4z M28.9,62.5c-2.7,0-4.3,2-4.3,5.3
			c0,3.3,1.6,5.2,4.3,5.2c2.7,0,4.3-2,4.3-5.2C33.2,64.5,31.6,62.5,28.9,62.5z"/>
	</g>
	<g>
		<path d="M41.1,72c-3,0-5.6-1.3-5.6-4.5c0-2.8,2.1-4.4,5.6-4.4v-1.3h0.5v1.3c3.5,0,5.6,1.6,5.6,4.4c0,3.2-2.6,4.5-5.6,4.5v1.5h-0.5
			V72z M41.1,63.6c-2.7,0-5,1.1-5,3.9c0,2.8,2.1,4,5,4V63.6z M41.6,71.5c2.9,0,5-1.2,5-4c0-2.8-2.3-3.9-5-3.9V71.5z"/>
		<path d="M41.8,73.6h-0.9v-1.5c-3.5-0.1-5.6-1.8-5.6-4.7c0-2.8,2.1-4.5,5.6-4.6v-1.3h0.9v1.3c3.5,0.1,5.6,1.8,5.6,4.6
			c0,2.9-2.1,4.6-5.6,4.7V73.6z M41.3,73.2h0.1v-1.5h0.2c3.4,0,5.4-1.6,5.4-4.3c0-2.7-2-4.2-5.4-4.2h-0.2V62h-0.1v1.3h-0.2
			c-3.4,0-5.4,1.5-5.4,4.2c0,2.7,2,4.3,5.4,4.3h0.2V73.2z M41.6,71.7h-0.2v-8.3h0.2c3.3,0,5.2,1.5,5.2,4.1
			C46.8,70.2,45,71.7,41.6,71.7z M41.8,63.8v7.5c1.8,0,4.7-0.6,4.7-3.8C46.4,64.3,43.3,63.8,41.8,63.8z M41.3,71.7h-0.2
			c-3.4,0-5.2-1.5-5.2-4.2c0-2.6,2-4.1,5.2-4.1h0.2V71.7z M40.9,63.8c-1.5,0-4.7,0.5-4.7,3.7c0,3.2,2.8,3.7,4.7,3.8V63.8z"/>
	</g>
	<g>
		<path d="M56.6,73.4V63l-7.1,10.4H49V62.1h0.5v10.5l7.1-10.5h0.5v11.4H56.6z"/>
		<path d="M57.3,73.6h-0.9v-10l-6.8,10h-0.8V61.9h0.9v10l6.8-10h0.8V73.6z M56.8,73.2H57v-11h-0.2l-7.4,10.9V62.3h-0.1v11h0.2
			l7.4-10.9V73.2z"/>
	</g>
	<g>
		<path d="M59.6,62.1h0.5V73h7.2V62.1h0.5V73h0.9v3.2h-0.5v-2.7h-8.6V62.1z"/>
		<path d="M68.9,76.4H68v-2.7h-8.6V61.9h0.9v10.9h6.8V61.9H68v10.9h0.9V76.4z M68.4,76h0.1v-2.8h-0.9V62.3h-0.1v10.9h-7.6V62.3h-0.1
			v11h8.6V76z"/>
	</g>
	<g>
		<path d="M78,73.4V63l-7.1,10.4h-0.5V62.1h0.5v10.5L78,62.1h0.5v11.4H78z"/>
		<path d="M78.7,73.6h-0.9v-10l-6.8,10h-0.8V61.9h0.9v10l6.8-10h0.8V73.6z M78.2,73.2h0.1v-11h-0.2l-7.4,10.9V62.3h-0.1v11h0.2
			l7.4-10.9V73.2z"/>
	</g>
	<g>
		<path d="M84.3,62.1h0.6l4.3,11.4h-0.5l-1.5-3.9H82l-1.5,3.9h-0.5L84.3,62.1z M87.1,69.1l-2.4-6.4l-2.5,6.4H87.1z"/>
		<path d="M89.5,73.6h-0.9l-1.5-3.9h-5l-1.5,3.9h-1l4.5-11.8h0.9L89.5,73.6z M88.9,73.2L88.9,73.2l-4.1-11h-0.1l2.7,7h-5.5l2.7-7
			h-0.1l-4.2,11h0.1l1.5-3.9h5.6L88.9,73.2z M82.4,68.9h4.4l-2.2-5.7L82.4,68.9z"/>
	</g>
	<g>
		<path d="M90.5,72.9c1.4,0,1.6-2.9,1.6-5.6v-5.2h7.1v11.4h-0.5V62.6h-6.1V68c0,2.3-0.3,5.5-2.1,5.5c-0.3,0-0.5,0-0.7,0v-0.5
			C90.1,72.9,90.2,72.9,90.5,72.9z"/>
		<path d="M99.5,73.6h-0.9V62.8h-5.7V68c0,2.6-0.4,5.7-2.3,5.7c-0.2,0-0.4,0-0.5,0c-0.1,0-0.1,0-0.2,0l-0.2,0v-0.9l0.2,0
			c0.1,0,0.2,0,0.2,0c0.1,0,0.2,0,0.4,0c1.3,0,1.4-3.1,1.4-5.4v-5.4h7.5V73.6z M99,73.2h0.1v-11h-6.8v5c0,2.9-0.2,5.8-1.8,5.8
			c-0.2,0-0.4,0-0.5,0v0.1c0,0,0,0,0,0c0.1,0,0.3,0,0.5,0c1.7,0,1.9-3.3,1.9-5.3v-5.6H99V73.2z"/>
	</g>
	<g>
		<path d="M101.8,73.4V62.1h0.5v5.2h2.8c1.5,0,2.5,0.1,3.3,0.9c0.5,0.5,0.8,1.3,0.8,2.3c0,2.1-1.3,3-4.1,3H101.8z M107.6,72.6
			c0.7-0.4,1.1-1.1,1.1-2.1c0-1.1-0.5-2-1.3-2.4c-0.7-0.3-1.5-0.3-2.6-0.3h-2.5V73h2.5C106.1,73,107,72.9,107.6,72.6z"/>
		<path d="M105.2,73.6h-3.6V61.9h0.9v5.2h2.6c1.6,0,2.6,0.1,3.4,0.9c0.6,0.6,0.9,1.4,0.9,2.4C109.5,72.6,108.2,73.6,105.2,73.6z
			 M102,73.2h3.2c2.7,0,3.9-0.9,3.9-2.8c0-0.9-0.3-1.6-0.8-2.1c-0.7-0.7-1.6-0.8-3.1-0.8h-3v-5.2H102V73.2z M104.9,73.2h-2.7v-5.5
			h2.7c1.1,0,2,0,2.7,0.3c0.9,0.4,1.4,1.4,1.4,2.6c0,1-0.4,1.8-1.2,2.2C107,73.1,106.1,73.2,104.9,73.2z M102.6,72.8h2.3
			c1.2,0,2,0,2.7-0.4l0,0c0.7-0.4,1-1,1-1.9c0-1.1-0.5-1.9-1.2-2.2c-0.6-0.3-1.5-0.3-2.5-0.3h-2.3V72.8z"/>
	</g>
	<g>
		<path d="M111.1,62.1h0.5v5.1h7.2v-5.1h0.5v11.4h-0.5v-5.8h-7.2v5.8h-0.5V62.1z"/>
		<path d="M119.5,73.6h-0.9v-5.8h-6.8v5.8h-0.9V61.9h0.9V67h6.8v-5.1h0.9V73.6z M119,73.2h0.1v-11H119v5.1h-7.6v-5.1h-0.1v11h0.1
			v-5.8h7.6V73.2z"/>
	</g>
	<g>
		<path d="M126.3,61.8c3.1,0,5,2.2,5,5.9c0,3.7-1.9,5.9-5,5.9c-3.1,0-5-2.2-5-5.9C121.3,64.1,123.2,61.8,126.3,61.8z M126.3,73.2
			c2.8,0,4.5-2,4.5-5.4c0-3.4-1.7-5.5-4.5-5.5s-4.5,2-4.5,5.5C121.8,71.2,123.5,73.2,126.3,73.2z"/>
		<path d="M126.3,73.9c-3.2,0-5.2-2.3-5.2-6.1c0-3.8,2-6.1,5.2-6.1c3.2,0,5.2,2.4,5.2,6.1C131.5,71.5,129.5,73.9,126.3,73.9z
			 M126.3,62c-3,0-4.8,2.1-4.8,5.7c0,3.6,1.8,5.7,4.8,5.7c3,0,4.8-2.1,4.8-5.7C131.1,64.2,129.3,62,126.3,62z M126.3,73.4
			c-2.9,0-4.7-2.1-4.7-5.6c0-3.5,1.8-5.6,4.7-5.6c2.9,0,4.7,2.2,4.7,5.6C131,71.2,129.2,73.4,126.3,73.4z M126.3,62.5
			c-2.7,0-4.3,2-4.3,5.3c0,3.3,1.6,5.2,4.3,5.2c2.7,0,4.3-2,4.3-5.2C130.6,64.5,129,62.5,126.3,62.5z"/>
	</g>
	<g>
		<path d="M139.9,62.1v0.5h-6v10.8h-0.5V62.1H139.9z"/>
		<path d="M134.1,73.6h-0.9V61.9h6.9v0.9h-6V73.6z M133.5,73.2h0.1V62.4h6v-0.1h-6.2V73.2z"/>
	</g>
	<g>
		<path d="M145.3,61.8c3.1,0,5,2.2,5,5.9c0,3.7-1.9,5.9-5,5.9c-3.1,0-5-2.2-5-5.9C140.3,64.1,142.2,61.8,145.3,61.8z M145.3,73.2
			c2.8,0,4.5-2,4.5-5.4c0-3.4-1.7-5.5-4.5-5.5s-4.5,2-4.5,5.5C140.8,71.2,142.5,73.2,145.3,73.2z"/>
		<path d="M145.3,73.9c-3.2,0-5.2-2.3-5.2-6.1c0-3.8,2-6.1,5.2-6.1c3.2,0,5.2,2.4,5.2,6.1C150.5,71.5,148.5,73.9,145.3,73.9z
			 M145.3,62c-3,0-4.8,2.1-4.8,5.7c0,3.6,1.8,5.7,4.8,5.7c3,0,4.8-2.1,4.8-5.7C150.1,64.2,148.3,62,145.3,62z M145.3,73.4
			c-2.9,0-4.7-2.1-4.7-5.6c0-3.5,1.8-5.6,4.7-5.6c2.9,0,4.7,2.2,4.7,5.6C150,71.2,148.2,73.4,145.3,73.4z M145.3,62.5
			c-2.7,0-4.3,2-4.3,5.3c0,3.3,1.6,5.2,4.3,5.2c2.7,0,4.3-2,4.3-5.2C149.6,64.5,148,62.5,145.3,62.5z"/>
	</g>
	<g>
		<path d="M39.7,84.5h8.2v11.4h-0.5V85h-7.2v10.9h-0.5V84.5z"/>
		<path d="M48.1,96.1h-0.9V85.2h-6.8v10.9h-0.9V84.3h8.6V96.1z M47.6,95.7h0.2v-11h-7.9v11H40V84.8h7.6V95.7z"/>
	</g>
	<g>
		<path d="M53.7,84.5h0.6l4.3,11.4h-0.5L56.7,92h-5.3l-1.5,3.9h-0.5L53.7,84.5z M56.5,91.5L54,85.1l-2.5,6.4H56.5z"/>
		<path d="M58.9,96.1H58l-1.5-3.9h-5L50,96.1h-1l4.5-11.8h0.9L58.9,96.1z M58.3,95.7L58.3,95.7l-4.1-11h-0.1l2.7,7h-5.5l2.7-7h-0.1
			l-4.2,11h0.1l1.5-3.9h5.6L58.3,95.7z M51.8,91.3h4.4L54,85.7L51.8,91.3z"/>
	</g>
	<g>
		<path d="M67.2,87.5c0,0.9-0.3,1.7-0.8,2.2c-0.8,0.8-1.8,0.9-3.3,0.9h-2.5v5.3H60V84.5h3.1C65.8,84.5,67.2,85.4,67.2,87.5z
			 M60.5,85v5.2h2.2c1.1,0,2,0,2.6-0.3c0.8-0.3,1.3-1.3,1.3-2.4c0-0.9-0.4-1.7-1.1-2.1C64.8,85,63.9,85,62.7,85H60.5z"/>
		<path d="M60.7,96.1h-0.9V84.3h3.3c2.9,0,4.3,1,4.3,3.2c0,1-0.3,1.8-0.9,2.4c-0.8,0.8-2.1,0.9-3.4,0.9h-2.3V96.1z M60.2,95.7h0.1
			v-5.3h2.7c1.6,0,2.5-0.1,3.1-0.8c0.5-0.5,0.8-1.3,0.8-2.1c0-1.9-1.2-2.8-3.9-2.8h-2.9V95.7z M62.7,90.3h-2.4v-5.5h2.4
			c1.2,0,2.2,0,2.9,0.4c0.8,0.4,1.2,1.2,1.2,2.2c0,1.2-0.5,2.2-1.4,2.6C64.7,90.3,63.8,90.3,62.7,90.3z M60.7,89.9h2
			c1.1,0,1.9,0,2.6-0.3c0.7-0.3,1.2-1.2,1.2-2.2c0-0.9-0.4-1.5-1-1.9c-0.6-0.4-1.5-0.4-2.7-0.4h-2V89.9z"/>
	</g>
	<g>
		<path d="M71.6,85H68v-0.5h7.7V85h-3.5v10.9h-0.5V85z"/>
		<path d="M72.3,96.1h-0.9V85.2h-3.6v-0.9h8v0.9h-3.5V96.1z M71.8,95.7h0.1V84.8h3.5v-0.1h-7.3v0.1h3.6V95.7z"/>
	</g>
	<g>
		<path d="M77.1,84.5h0.5v5.1h7.2v-5.1h0.5v11.4h-0.5V90h-7.2v5.8h-0.5V84.5z"/>
		<path d="M85.6,96.1h-0.9v-5.8h-6.8v5.8H77V84.3h0.9v5.1h6.8v-5.1h0.9V96.1z M85.1,95.7h0.1v-11h-0.1v5.1h-7.6v-5.1h-0.1v11h0.1
			v-5.8h7.6V95.7z"/>
	</g>
	<g>
		<path d="M87.8,84.5h6.9V85h-6.4v4.7h5.8v0.5h-5.8v5.2h6.5v0.5h-7.1V84.5z"/>
		<path d="M95.1,96.1h-7.5V84.3h7.3v0.9h-6.4v4.3h5.8v0.9h-5.8v4.8h6.5V96.1z M88,95.7h6.7v-0.1h-6.5V90H94v-0.1h-5.8v-5.1h6.4v-0.1
			H88V95.7z"/>
	</g>
	<g>
		<path d="M103.8,87.5c0,0.9-0.3,1.7-0.8,2.2c-0.7,0.8-1.8,0.9-3.3,0.9h-2.5v5.3h-0.5V84.5h3.1C102.5,84.5,103.8,85.4,103.8,87.5z
			 M97.2,85v5.2h2.2c1.1,0,2,0,2.6-0.3c0.8-0.3,1.3-1.3,1.3-2.4c0-0.9-0.4-1.7-1.1-2.1c-0.7-0.4-1.6-0.4-2.8-0.4H97.2z"/>
		<path d="M97.4,96.1h-0.9V84.3h3.3c2.9,0,4.3,1,4.3,3.2c0,1-0.3,1.8-0.9,2.4c-0.8,0.8-2,0.9-3.4,0.9h-2.3V96.1z M96.8,95.7H97v-5.3
			h2.7c1.6,0,2.5-0.1,3.1-0.8c0.5-0.5,0.8-1.3,0.8-2.1c0-1.9-1.2-2.8-3.9-2.8h-2.9V95.7z M99.3,90.3H97v-5.5h2.4
			c1.2,0,2.2,0,2.9,0.4c0.8,0.4,1.2,1.2,1.2,2.2c0,1.2-0.5,2.2-1.4,2.6C101.3,90.3,100.5,90.3,99.3,90.3z M97.4,89.9h2
			c1.1,0,1.9,0,2.6-0.3c0.7-0.3,1.2-1.2,1.2-2.2c0-0.9-0.4-1.5-1-1.9c-0.6-0.4-1.5-0.4-2.7-0.4h-2V89.9z"/>
	</g>
	<g>
		<path d="M107.8,84.5h0.6l4.3,11.4h-0.5l-1.5-3.9h-5.3l-1.5,3.9h-0.5L107.8,84.5z M110.6,91.5l-2.4-6.4l-2.5,6.4H110.6z"/>
		<path d="M113,96.1h-0.9l-1.5-3.9h-5l-1.5,3.9h-1l4.5-11.8h0.9L113,96.1z M112.4,95.7L112.4,95.7l-4.1-11h-0.1l2.7,7h-5.5l2.7-7
			H108l-4.2,11h0.1l1.5-3.9h5.6L112.4,95.7z M105.9,91.3h4.4l-2.2-5.7L105.9,91.3z"/>
	</g>
</g>
</svg>
