<?xml version="1.0" encoding="utf-8"?>
<!-- Generator: Adobe Illustrator 19.1.0, SVG Export Plug-In . SVG Version: 6.00 Build 0)  -->
<svg version="1.1" id="Layer_1" xmlns="http://www.w3.org/2000/svg" xmlns:xlink="http://www.w3.org/1999/xlink" x="0px" y="0px"
	 width="141px" height="43px" viewBox="14 -10 141 43" style="enable-background:new 14 -10 141 43;" xml:space="preserve">
<style type="text/css">
	.st0{fill:#FFFFFF;}
</style>
<g>
	<g>
		<path class="st0" d="M139.6,5.4h7.6c-0.1-0.5-0.4-2-1.7-3.4c-1.2-1.4-1.8-2.4-1.8-4.1c0-1.7,0.6-2.6,1.8-4.1
			c1.2-1.5,1.6-2.9,1.7-3.4h-7.6V5.4z"/>
		<path d="M150.4,5.4h4.1v-15h-4.1c-0.1,0.5-0.4,2.1-1.8,3.7c-1.2,1.4-1.7,2.3-1.7,3.8c0,1.5,0.6,2.5,1.7,3.8
			C150,3.4,150.3,4.9,150.4,5.4"/>
		<path d="M22,17.6c-1.1,0-2.1-0.2-3-0.6c-0.9-0.4-1.7-0.9-2.4-1.6c-0.7-0.7-1.2-1.5-1.6-2.4c-0.4-0.9-0.6-1.9-0.6-3v0
			c0-1.1,0.2-2,0.6-3c0.4-0.9,0.9-1.7,1.6-2.4C17.3,3.9,18.1,3.4,19,3c0.9-0.4,2-0.6,3.1-0.6c0.7,0,1.3,0.1,1.9,0.2
			c0.6,0.1,1.1,0.3,1.5,0.5c0.5,0.2,0.9,0.4,1.3,0.7c0.4,0.3,0.8,0.6,1.1,0.9L25.9,7c-0.6-0.5-1.2-0.9-1.7-1.2
			c-0.6-0.3-1.3-0.4-2-0.4c-0.6,0-1.2,0.1-1.7,0.4c-0.5,0.2-1,0.6-1.4,1c-0.4,0.4-0.7,0.9-0.9,1.5C18,8.7,17.9,9.3,17.9,10v0
			c0,0.6,0.1,1.2,0.3,1.8c0.2,0.6,0.5,1.1,0.9,1.5c0.4,0.4,0.8,0.8,1.3,1c0.5,0.2,1.1,0.4,1.7,0.4c0.8,0,1.5-0.2,2.1-0.5
			c0.6-0.3,1.2-0.7,1.7-1.3L28,15c-0.4,0.4-0.8,0.8-1.2,1.1c-0.4,0.3-0.8,0.6-1.3,0.8c-0.5,0.2-1,0.4-1.6,0.5
			C23.4,17.6,22.7,17.6,22,17.6"/>
		<path d="M36.7,14.6c0.6,0,1.2-0.1,1.8-0.4c0.5-0.2,1-0.6,1.4-1c0.4-0.4,0.7-0.9,0.9-1.5c0.2-0.6,0.3-1.1,0.3-1.8v0
			c0-0.6-0.1-1.2-0.3-1.8c-0.2-0.6-0.5-1.1-0.9-1.5c-0.4-0.4-0.9-0.8-1.4-1c-0.5-0.2-1.1-0.4-1.8-0.4c-0.7,0-1.3,0.1-1.8,0.4
			c-0.5,0.2-1,0.6-1.4,1c-0.4,0.4-0.7,0.9-0.9,1.5c-0.2,0.6-0.3,1.2-0.3,1.8v0c0,0.6,0.1,1.2,0.3,1.8c0.2,0.6,0.5,1.1,0.9,1.5
			c0.4,0.4,0.9,0.8,1.4,1C35.5,14.5,36.1,14.6,36.7,14.6 M36.7,17.6c-1.1,0-2.2-0.2-3.1-0.6c-1-0.4-1.8-0.9-2.5-1.6
			c-0.7-0.7-1.2-1.5-1.6-2.4c-0.4-0.9-0.6-1.9-0.6-3v0c0-1.1,0.2-2,0.6-3c0.4-0.9,0.9-1.7,1.6-2.4c0.7-0.7,1.5-1.2,2.5-1.6
			c1-0.4,2-0.6,3.1-0.6c1.1,0,2.2,0.2,3.1,0.6c1,0.4,1.8,0.9,2.5,1.6C43,5.3,43.5,6.1,43.9,7c0.4,0.9,0.6,1.9,0.6,3v0
			c0,1.1-0.2,2-0.6,3c-0.4,0.9-0.9,1.7-1.6,2.4c-0.7,0.7-1.5,1.2-2.5,1.6C38.9,17.4,37.8,17.6,36.7,17.6"/>
	</g>
	<polygon points="46.3,2.6 49.8,2.6 53.6,8.9 57.5,2.6 61,2.6 61,17.4 57.8,17.4 57.8,7.7 53.7,14.1 53.6,14.1 49.5,7.8 49.5,17.4 
		46.3,17.4 	"/>
	<g>
		<path d="M69.6,17.6c-2,0-3.5-0.6-4.7-1.6c-1.1-1.1-1.7-2.7-1.7-4.9V2.6h3.2V11c0,1.2,0.3,2.1,0.8,2.7c0.6,0.6,1.3,0.9,2.3,0.9
			c1,0,1.8-0.3,2.3-0.9c0.6-0.6,0.8-1.5,0.8-2.7V2.6H76v8.3c0,1.1-0.2,2.1-0.5,2.9c-0.3,0.8-0.7,1.5-1.3,2.1c-0.6,0.6-1.2,1-2,1.2
			C71.4,17.5,70.5,17.6,69.6,17.6"/>
	</g>
	<polygon points="78.2,2.6 81.2,2.6 88.1,11.7 88.1,2.6 91.3,2.6 91.3,17.4 88.5,17.4 81.4,8 81.4,17.4 78.2,17.4 	"/>
	<polygon points="93.7,2.6 104.8,2.6 104.8,5.5 96.9,5.5 96.9,8.5 103.8,8.5 103.8,11.4 96.9,11.4 96.9,14.5 104.9,14.5 104.9,17.4 
		93.7,17.4 	"/>
	<polygon points="106.7,2.6 109.9,2.6 109.9,14.5 118,14.5 118,17.4 106.7,17.4 	"/>
	<polygon points="117.4,2.6 120.6,2.6 120.6,14.5 128.6,14.5 128.6,17.4 117.4,17.4 	"/>
	<g>
		<path d="M135.5,14.6c0.6,0,1.2-0.1,1.8-0.4c0.5-0.2,1-0.6,1.4-1c0.4-0.4,0.7-0.9,0.9-1.5c0.2-0.6,0.3-1.1,0.3-1.8v0
			c0-0.6-0.1-1.2-0.3-1.8c-0.2-0.6-0.5-1.1-0.9-1.5c-0.4-0.4-0.9-0.8-1.4-1c-0.5-0.2-1.1-0.4-1.8-0.4c-0.7,0-1.3,0.1-1.8,0.4
			c-0.5,0.2-1,0.6-1.4,1c-0.4,0.4-0.7,0.9-0.9,1.5c-0.2,0.6-0.3,1.2-0.3,1.8v0c0,0.6,0.1,1.2,0.3,1.8c0.2,0.6,0.5,1.1,0.9,1.5
			c0.4,0.4,0.9,0.8,1.4,1C134.3,14.5,134.9,14.6,135.5,14.6 M135.5,17.6c-1.1,0-2.2-0.2-3.1-0.6c-0.9-0.4-1.8-0.9-2.5-1.6
			c-0.7-0.7-1.2-1.5-1.6-2.4c-0.4-0.9-0.6-1.9-0.6-3v0c0-1.1,0.2-2,0.6-3c0.4-0.9,0.9-1.7,1.6-2.4c0.7-0.7,1.5-1.2,2.5-1.6
			c1-0.4,2-0.6,3.1-0.6c1.1,0,2.2,0.2,3.1,0.6c0.9,0.4,1.8,0.9,2.5,1.6c0.7,0.7,1.2,1.5,1.6,2.4c0.4,0.9,0.6,1.9,0.6,3v0
			c0,1.1-0.2,2-0.6,3c-0.4,0.9-0.9,1.7-1.6,2.4c-0.7,0.7-1.5,1.2-2.5,1.6C137.7,17.4,136.6,17.6,135.5,17.6"/>
	</g>
	<path class="st0" d="M22.9,28.3L21.6,25l-1.3,3.2H22.9z M20.6,22.4h2l4.2,10h-2.3l-0.9-2.2h-4.2l-0.9,2.2h-2.2L20.6,22.4z"/>
	<g>
		<path class="st0" d="M31.6,32.6c-1.3,0-2.4-0.4-3.1-1.1c-0.8-0.7-1.1-1.8-1.1-3.3v-5.7h2.2v5.6c0,0.8,0.2,1.4,0.6,1.8
			c0.4,0.4,0.9,0.6,1.6,0.6c0.7,0,1.2-0.2,1.6-0.6c0.4-0.4,0.6-1,0.6-1.8v-5.7h2.2v5.6c0,0.8-0.1,1.4-0.3,2c-0.2,0.6-0.5,1-0.9,1.4
			c-0.4,0.4-0.8,0.7-1.4,0.8C32.8,32.5,32.2,32.6,31.6,32.6"/>
	</g>
	<polygon class="st0" points="39.5,24.5 36.5,24.5 36.5,22.5 44.7,22.5 44.7,24.5 41.7,24.5 41.7,32.4 39.5,32.4 	"/>
	<g>
		<path class="st0" d="M50.2,30.6c0.4,0,0.8-0.1,1.2-0.2c0.4-0.2,0.7-0.4,0.9-0.7c0.3-0.3,0.5-0.6,0.6-1c0.1-0.4,0.2-0.8,0.2-1.2v0
			c0-0.4-0.1-0.8-0.2-1.2c-0.1-0.4-0.4-0.7-0.6-1c-0.3-0.3-0.6-0.5-1-0.7c-0.4-0.2-0.8-0.2-1.2-0.2c-0.4,0-0.8,0.1-1.2,0.2
			c-0.4,0.2-0.7,0.4-0.9,0.7c-0.3,0.3-0.5,0.6-0.6,1c-0.1,0.4-0.2,0.8-0.2,1.2v0c0,0.4,0.1,0.8,0.2,1.2c0.1,0.4,0.4,0.7,0.6,1
			c0.3,0.3,0.6,0.5,0.9,0.7C49.4,30.5,49.8,30.6,50.2,30.6 M50.2,32.6c-0.8,0-1.5-0.1-2.1-0.4c-0.6-0.3-1.2-0.6-1.7-1.1
			c-0.5-0.5-0.8-1-1.1-1.6c-0.3-0.6-0.4-1.3-0.4-2v0c0-0.7,0.1-1.4,0.4-2c0.3-0.6,0.6-1.2,1.1-1.6c0.5-0.5,1-0.8,1.7-1.1
			c0.6-0.3,1.3-0.4,2.1-0.4c0.8,0,1.5,0.1,2.1,0.4c0.6,0.3,1.2,0.6,1.7,1.1c0.5,0.5,0.8,1,1.1,1.6c0.3,0.6,0.4,1.3,0.4,2v0
			c0,0.7-0.1,1.4-0.4,2c-0.3,0.6-0.6,1.2-1.1,1.6c-0.5,0.5-1,0.8-1.7,1.1C51.7,32.5,51,32.6,50.2,32.6"/>
	</g>
	<polygon class="st0" points="56.5,22.5 58.8,22.5 61.4,26.7 64,22.5 66.3,22.5 66.3,32.4 64.2,32.4 64.2,25.9 61.4,30.2 61.4,30.2 
		58.6,26 58.6,32.4 56.5,32.4 	"/>
	<path class="st0" d="M73.5,28.3L72.1,25l-1.3,3.2H73.5z M71.2,22.4h2l4.2,10h-2.3l-0.9-2.2h-4.2l-0.9,2.2h-2.2L71.2,22.4z"/>
	<polygon class="st0" points="80.3,24.5 77.3,24.5 77.3,22.5 85.5,22.5 85.5,24.5 82.5,24.5 82.5,32.4 80.3,32.4 	"/>
	<rect x="86.3" y="22.5" class="st0" width="2.2" height="9.9"/>
	<g>
		<path class="st0" d="M94.9,30.6c0.4,0,0.8-0.1,1.2-0.2c0.4-0.2,0.7-0.4,0.9-0.7c0.3-0.3,0.5-0.6,0.6-1c0.1-0.4,0.2-0.8,0.2-1.2v0
			c0-0.4-0.1-0.8-0.2-1.2c-0.1-0.4-0.4-0.7-0.6-1c-0.3-0.3-0.6-0.5-1-0.7c-0.4-0.2-0.8-0.2-1.2-0.2c-0.4,0-0.8,0.1-1.2,0.2
			c-0.4,0.2-0.7,0.4-0.9,0.7c-0.3,0.3-0.5,0.6-0.6,1c-0.1,0.4-0.2,0.8-0.2,1.2v0c0,0.4,0.1,0.8,0.2,1.2c0.1,0.4,0.4,0.7,0.6,1
			c0.3,0.3,0.6,0.5,0.9,0.7C94,30.5,94.4,30.6,94.9,30.6 M94.8,32.6c-0.8,0-1.5-0.1-2.1-0.4c-0.6-0.3-1.2-0.6-1.7-1.1
			c-0.5-0.5-0.8-1-1.1-1.6c-0.3-0.6-0.4-1.3-0.4-2v0c0-0.7,0.1-1.4,0.4-2c0.3-0.6,0.6-1.2,1.1-1.6c0.5-0.5,1-0.8,1.7-1.1
			c0.6-0.3,1.3-0.4,2.1-0.4c0.8,0,1.5,0.1,2.1,0.4c0.6,0.3,1.2,0.6,1.7,1.1c0.5,0.5,0.8,1,1.1,1.6c0.3,0.6,0.4,1.3,0.4,2v0
			c0,0.7-0.1,1.4-0.4,2c-0.3,0.6-0.6,1.2-1.1,1.6c-0.5,0.5-1,0.8-1.7,1.1C96.3,32.5,95.6,32.6,94.8,32.6"/>
	</g>
	<polygon class="st0" points="101.1,22.5 103.1,22.5 107.7,28.6 107.7,22.5 109.9,22.5 109.9,32.4 108,32.4 103.3,26.1 103.3,32.4 
		101.1,32.4 	"/>
</g>
</svg>
