<?xml version="1.0" encoding="utf-8"?>
<!-- Generator: Adobe Illustrator 19.1.0, SVG Export Plug-In . SVG Version: 6.00 Build 0)  -->
<svg version="1.1" id="Layer_1" xmlns="http://www.w3.org/2000/svg" xmlns:xlink="http://www.w3.org/1999/xlink" x="0px" y="0px"
	 width="147px" height="75px" viewBox="0 0 147 75" style="enable-background:new 0 0 147 75;" xml:space="preserve">
<g>
	<g>
		<g>
			<path d="M37,6.4c-1.7,2-3.9,2.9-7,2.9h-0.4V8.1C34,8,36.5,6.2,37,2.8h1.4v28.5H37V6.4z"/>
			<path d="M38.6,31.6h-1.9V7.1C35,8.8,32.9,9.6,30,9.6h-0.6V7.8l0.3,0c4.2-0.1,6.5-1.8,7.1-5.1l0-0.2h1.9V31.6z M37.3,31.1h0.8v-28
				h-0.9c-0.6,3.3-3.1,5.1-7.3,5.3V9H30c3,0,5-0.9,6.8-2.8l0.5-0.5V31.1z"/>
		</g>
		<g>
			<path d="M55.5,1.9c5.8,0,9.3,5.2,9.3,15.1c0,9.9-3.5,15.2-9.3,15.2c-5.8,0-9.3-5.3-9.3-15.2C46.2,7.2,49.6,1.9,55.5,1.9z
				 M55.5,30.9c5,0,7.9-4.7,7.9-13.9S60.5,3.2,55.5,3.2S47.6,8,47.6,17.1S50.5,30.9,55.5,30.9z"/>
			<path d="M55.5,32.5c-6.1,0-9.5-5.6-9.5-15.4c0-9.8,3.5-15.4,9.5-15.4c6.1,0,9.6,5.6,9.6,15.4C65,26.8,61.6,32.5,55.5,32.5z
				 M55.5,2.2c-5.8,0-9,5.3-9,14.8c0,9.6,3.2,14.9,9,14.9c5.8,0,9.1-5.4,9.1-14.9C64.5,7.6,61.2,2.2,55.5,2.2z M55.5,31.2
				c-5.3,0-8.2-5-8.2-14.1C47.3,8,50.2,3,55.5,3c5.2,0,8.1,5,8.1,14.1C63.6,26.2,60.7,31.2,55.5,31.2z M55.5,3.5
				c-4.9,0-7.6,4.8-7.6,13.6c0,8.8,2.7,13.6,7.6,13.6c5,0,7.6-4.7,7.6-13.6C63.1,8.2,60.5,3.5,55.5,3.5z"/>
		</g>
		<g>
			<path d="M77.8,1.9c5.8,0,9.3,5.2,9.3,15.1c0,9.9-3.5,15.2-9.3,15.2c-5.8,0-9.3-5.3-9.3-15.2C68.6,7.2,72,1.9,77.8,1.9z
				 M77.9,30.9c5,0,7.9-4.7,7.9-13.9S82.9,3.2,77.9,3.2c-5,0-7.9,4.7-7.9,13.8S72.9,30.9,77.9,30.9z"/>
			<path d="M77.8,32.5c-6.1,0-9.5-5.6-9.5-15.4c0-9.8,3.5-15.4,9.5-15.4c6.1,0,9.6,5.6,9.6,15.4C87.4,26.8,83.9,32.5,77.8,32.5z
				 M77.8,2.2c-5.8,0-9,5.3-9,14.8c0,9.6,3.2,14.9,9,14.9c5.8,0,9.1-5.4,9.1-14.9C86.9,7.6,83.6,2.2,77.8,2.2z M77.9,31.2
				c-5.3,0-8.2-5-8.2-14.1C69.7,8,72.6,3,77.9,3C83.1,3,86,8,86,17.1C86,26.2,83.1,31.2,77.9,31.2z M77.9,3.5
				c-4.9,0-7.6,4.8-7.6,13.6c0,8.8,2.7,13.6,7.6,13.6c5,0,7.6-4.7,7.6-13.6C85.5,8.2,82.9,3.5,77.9,3.5z"/>
		</g>
		<g>
			<path d="M96.6,1.1c3.6,0,6.4,2.9,6.4,6.5s-2.8,6.4-6.4,6.4c-3.5,0-6.4-2.9-6.4-6.4C90.1,3.9,93,1.1,96.6,1.1z M96.6,12.7
				c2.8,0,5.2-2.2,5.2-5.1c0-2.8-2.3-5.1-5.2-5.1c-2.8,0-5.1,2.2-5.1,5.1S93.8,12.7,96.6,12.7z M111.4,1.1h1.5L96,32h-1.4L111.4,1.1
				z M110.9,19.2c3.6,0,6.4,2.8,6.4,6.4c0,3.6-2.8,6.4-6.4,6.4c-3.5,0-6.5-2.9-6.5-6.4C104.5,22,107.3,19.2,110.9,19.2z M110.9,30.7
				c2.8,0,5.1-2.2,5.1-5.1c0-2.8-2.3-5.1-5.1-5.1c-2.9,0-5.2,2.2-5.2,5.1S108.1,30.7,110.9,30.7z"/>
			<path d="M110.9,32.3c-3.7,0-6.7-3-6.7-6.7c0-3.7,3-6.7,6.7-6.7c3.7,0,6.7,2.9,6.7,6.7S114.7,32.3,110.9,32.3z M110.9,19.4
				c-3.5,0-6.2,2.7-6.2,6.1c0,3.4,2.8,6.1,6.2,6.1c3.4,0,6.1-2.7,6.1-6.1S114.4,19.4,110.9,19.4z M96.2,32.3h-2l17.1-31.5h2.1
				L96.2,32.3z M95,31.7h0.8l16.5-30.4h-0.9L95,31.7z M110.9,31c-3,0-5.4-2.4-5.4-5.4c0-3,2.4-5.4,5.4-5.4c3,0,5.4,2.4,5.4,5.4
				S113.9,31,110.9,31z M110.9,20.7c-2.7,0-4.9,2.1-4.9,4.9c0,2.7,2.2,4.9,4.9,4.9c2.7,0,4.9-2.2,4.9-4.9S113.6,20.7,110.9,20.7z
				 M96.6,14.2c-3.7,0-6.7-3-6.7-6.7c0-3.8,2.9-6.7,6.7-6.7c3.7,0,6.7,2.9,6.7,6.7C103.2,11.3,100.3,14.2,96.6,14.2z M96.6,1.3
				c-3.4,0-6.1,2.7-6.1,6.2c0,3.4,2.8,6.1,6.1,6.1c3.4,0,6.1-2.7,6.1-6.1C102.7,4,100,1.3,96.6,1.3z M96.6,12.9
				c-3,0-5.4-2.4-5.4-5.4c0-3,2.4-5.4,5.4-5.4c3,0,5.5,2.4,5.5,5.4S99.6,12.9,96.6,12.9z M96.6,2.7c-2.7,0-4.9,2.1-4.9,4.9
				c0,2.7,2.2,4.9,4.9,4.9c2.7,0,4.9-2.2,4.9-4.9S99.3,2.7,96.6,2.7z"/>
		</g>
	</g>
	<g>
		<g>
			<path d="M1.2,40.2h9.9v13.6h-0.7v-13H1.8v13H1.2V40.2z"/>
			<path d="M11.3,54h-1.1V41H2v13H1V40h10.3V54z M10.6,53.6h0.3V40.4H1.4v13.2h0.2v-13h9V53.6z"/>
		</g>
		<g>
			<path d="M22.6,43.8c0,1.1-0.4,2-1,2.7c-0.9,0.9-2.1,1-3.9,1h-3v6.3H14V40.2h3.7C21,40.2,22.6,41.3,22.6,43.8z M14.6,40.8V47h2.6
				c1.3,0,2.4,0,3.2-0.4c1-0.4,1.6-1.5,1.6-2.9c0-1.1-0.5-2-1.4-2.5c-0.8-0.4-1.9-0.5-3.3-0.5H14.6z"/>
			<path d="M14.8,54h-1V40h3.9c3.4,0,5.1,1.2,5.1,3.8c0,1.1-0.4,2.1-1.1,2.8c-0.9,0.9-2.1,1.1-4.1,1.1h-2.8V54z M14.2,53.6h0.2v-6.3
				h3.2c1.9,0,3-0.1,3.8-1c0.6-0.6,1-1.5,1-2.6c0-2.3-1.4-3.4-4.7-3.4h-3.5V53.6z M17.2,47.2h-2.8v-6.6h2.8c1.5,0,2.6,0,3.4,0.5
				c1,0.5,1.5,1.4,1.5,2.6c0,1.4-0.6,2.6-1.7,3C19.6,47.2,18.6,47.2,17.2,47.2z M14.8,46.8h2.4c1.3,0,2.3,0,3.1-0.3
				c0.9-0.4,1.4-1.4,1.4-2.7c0-1.1-0.4-1.8-1.3-2.3C19.7,41,18.6,41,17.2,41h-2.4V46.8z"/>
		</g>
		<g>
			<path d="M30.3,39.9c3.7,0,6,2.7,6,7.1c0,4.4-2.3,7.1-6,7.1c-3.7,0-6-2.7-6-7.1C24.3,42.6,26.6,39.9,30.3,39.9z M30.3,53.5
				c3.3,0,5.4-2.4,5.4-6.5s-2-6.5-5.4-6.5c-3.3,0-5.3,2.4-5.3,6.5S27,53.5,30.3,53.5z"/>
			<path d="M30.3,54.3c-3.8,0-6.2-2.8-6.2-7.3c0-4.5,2.4-7.3,6.2-7.3c3.8,0,6.2,2.8,6.2,7.3C36.5,51.5,34.1,54.3,30.3,54.3z
				 M30.3,40.1c-3.6,0-5.8,2.6-5.8,6.9c0,4.3,2.2,6.9,5.8,6.9c3.6,0,5.8-2.6,5.8-6.9C36.1,42.7,33.9,40.1,30.3,40.1z M30.3,53.7
				c-3.5,0-5.5-2.5-5.5-6.7c0-4.2,2.1-6.7,5.5-6.7c3.4,0,5.6,2.6,5.6,6.7C35.9,51.2,33.7,53.7,30.3,53.7z M30.3,40.7
				c-3.2,0-5.1,2.4-5.1,6.3c0,3.9,1.9,6.3,5.1,6.3c3.2,0,5.2-2.4,5.2-6.3C35.5,43.1,33.5,40.7,30.3,40.7z"/>
		</g>
		<g>
			<path d="M47.9,53.8V41.3l-8.5,12.5h-0.6V40.2h0.6v12.5l8.5-12.5h0.7v13.6H47.9z"/>
			<path d="M48.7,54h-1V42l-8.2,12h-0.9V40h1v12.1L47.7,40h1V54z M48.1,53.6h0.2V40.4h-0.3l-8.8,13v-13h-0.2v13.2h0.3l8.8-12.9V53.6
				z"/>
		</g>
		<g>
			<path d="M54.5,46.5h0.8c2.9,0,4.2-1.3,4.2-3c0-2-1.8-3-3.8-3c-2.2,0-4,1.4-4.1,3.4h-0.6c0.1-2.2,2-4,4.7-4c2.7,0,4.4,1.3,4.4,3.6
				c0,1.5-1,3-2.8,3.2c2.1,0.3,3.4,1.7,3.4,3.5c0,2.8-2.2,3.9-4.9,3.9c-3,0-5-1.6-5.1-4.5h0.6c0.1,2.4,2,3.9,4.4,3.9
				c2.1,0,4.3-0.8,4.3-3.3c0-2-1.8-3.2-4.7-3.2h-0.7V46.5z"/>
			<path d="M55.7,54.3c-3.1,0-5.2-1.8-5.3-4.6l0-0.2h1l0,0.2c0.1,2.2,1.8,3.7,4.2,3.7c1.5,0,4.1-0.4,4.1-3.1c0-1.9-1.7-3-4.5-3h-0.9
				v-0.9h1c2.5,0,4-1,4-2.8c0-1.9-1.8-2.8-3.6-2.8c-2.1,0-3.8,1.4-3.9,3.2l0,0.2h-1l0-0.2c0.1-2.4,2.2-4.2,4.9-4.2
				c2.9,0,4.6,1.4,4.6,3.8c0,1.3-0.7,2.7-2.1,3.2c1.7,0.5,2.7,1.8,2.7,3.5C60.8,52.8,58.9,54.3,55.7,54.3z M50.8,49.9
				c0.2,2.5,2,4.1,4.9,4.1c1.4,0,4.7-0.4,4.7-3.7c0-1.8-1.3-3.1-3.2-3.3l-1.6-0.2c-0.1,0-0.3,0-0.4,0h-0.6v0.1h0.5
				c3.1,0,4.9,1.3,4.9,3.4c0,2.2-1.6,3.5-4.5,3.5c-2.5,0-4.3-1.5-4.6-3.9H50.8z M55.6,40.3c2,0,4,1,4,3.2c0,0.8-0.3,2.6-2.8,3.1
				l0.4,0c1.8-0.2,2.6-1.7,2.6-3c0-2.1-1.5-3.4-4.2-3.4c-2.4,0-4.2,1.5-4.4,3.6h0.2C51.5,41.7,53.3,40.3,55.6,40.3z"/>
		</g>
		<g>
			<path d="M62.8,40.2h3.7c1.5,0,2.7,0.1,3.5,0.6c0.9,0.5,1.5,1.6,1.5,2.8c0,1.5-0.8,2.7-2.6,3.1c2.2,0.2,3.3,1.5,3.3,3.5
				c0,1.3-0.6,2.4-1.5,3c-0.9,0.6-2.1,0.7-3.7,0.7h-4.1V40.2z M66.6,46.5c2.8,0,4.2-0.9,4.2-3c0-2.2-1.4-2.7-4.3-2.7h-3.1v5.7H66.6z
				 M66.8,53.2c1.3,0,2.3,0,3-0.3c1-0.4,1.7-1.5,1.7-2.8c0-2.2-1.5-3.1-4.7-3.1h-3.4v6.2H66.8z"/>
			<path d="M66.9,54h-4.3V40h3.9c1.6,0,2.7,0.1,3.6,0.6c1,0.6,1.6,1.6,1.6,2.9c0,1.4-0.7,2.5-2,3c1.7,0.4,2.7,1.7,2.7,3.6
				c0,1.3-0.6,2.5-1.6,3.1C69.8,53.9,68.6,54,66.9,54z M63,53.6h3.9c1.6,0,2.7-0.1,3.6-0.6c0.9-0.5,1.4-1.6,1.4-2.8
				c0-2-1.1-3.1-3.1-3.3l-1.3-0.1l1.2-0.3c1.6-0.4,2.5-1.4,2.5-2.9c0-1.1-0.5-2.1-1.4-2.6c-0.8-0.5-1.9-0.6-3.4-0.6H63V53.6z
				 M66.8,53.4h-3.6v-6.6h3.6c3.4,0,4.9,1,4.9,3.3c0,1.4-0.7,2.5-1.8,3C69.1,53.4,68.1,53.4,66.8,53.4z M63.6,53h3.2
				c1.3,0,2.2,0,3-0.3c1-0.4,1.5-1.4,1.5-2.6c0-2-1.3-2.9-4.5-2.9h-3.2V53z M66.6,46.7h-3.4v-6.1h3.3c2.7,0,4.5,0.5,4.5,2.9
				C71,45.7,69.6,46.7,66.6,46.7z M63.6,46.3h3c2.8,0,4-0.8,4-2.8c0-1.9-1.1-2.5-4.1-2.5h-2.9V46.3z"/>
		</g>
		<g>
			<path d="M79.9,39.9c3.7,0,6,2.7,6,7.1c0,4.4-2.3,7.1-6,7.1c-3.7,0-6-2.7-6-7.1C73.9,42.6,76.2,39.9,79.9,39.9z M79.9,53.5
				c3.3,0,5.4-2.4,5.4-6.5s-2-6.5-5.4-6.5c-3.3,0-5.3,2.4-5.3,6.5S76.6,53.5,79.9,53.5z"/>
			<path d="M79.9,54.3c-3.8,0-6.2-2.8-6.2-7.3c0-4.5,2.4-7.3,6.2-7.3c3.8,0,6.2,2.8,6.2,7.3C86.1,51.5,83.7,54.3,79.9,54.3z
				 M79.9,40.1c-3.6,0-5.8,2.6-5.8,6.9c0,4.3,2.2,6.9,5.8,6.9c3.6,0,5.8-2.6,5.8-6.9C85.7,42.7,83.5,40.1,79.9,40.1z M79.9,53.7
				c-3.5,0-5.5-2.5-5.5-6.7c0-4.2,2.1-6.7,5.5-6.7c3.4,0,5.6,2.6,5.6,6.7C85.5,51.2,83.3,53.7,79.9,53.7z M79.9,40.7
				c-3.2,0-5.1,2.4-5.1,6.3c0,3.9,1.9,6.3,5.1,6.3c3.2,0,5.2-2.4,5.2-6.3C85.1,43.1,83.1,40.7,79.9,40.7z"/>
		</g>
		<g>
			<path d="M87.6,53.2c1-1.3,1.5-2.8,1.5-6.8v-6.2h8.4v13h1.3v3.9h-0.6v-3.3h-11v3.3h-0.6v-3.9H87.6z M89.8,40.8v6.5
				c0,2.6-0.5,4.9-1.4,6h8.5V40.8H89.8z"/>
			<path d="M99,57.3h-1V54H87.4v3.3h-1V53h1.1c0.9-1.2,1.4-2.6,1.4-6.6V40h8.8v13H99V57.3z M98.4,56.9h0.2v-3.5h-1.3v-13h-8v6
				c0,4.2-0.5,5.6-1.5,6.9l-0.1,0.1h-0.9v3.5H87v-3.3h11.4V56.9z M97.1,53.4H88l0.3-0.3c0.8-1,1.3-3.2,1.3-5.9v-6.7h7.5V53.4z
				 M88.8,53h7.9V41H90v6.3C90,49.8,89.5,51.9,88.8,53z"/>
		</g>
		<g>
			<path d="M105.6,54.1c-3.5,0-5.6-2.6-5.6-7c0-4.5,2.2-7.1,5.8-7.1c2.8,0,4.8,1.7,5.1,4.2h-0.6c-0.4-2.3-2.1-3.7-4.6-3.7
				c-3,0-5,2.4-5,6.5c0,4.1,1.9,6.5,4.9,6.5c2.8,0,4.6-1.6,4.7-4.2h0.6C110.7,52.2,108.6,54.1,105.6,54.1z"/>
			<path d="M105.6,54.3c-3.7,0-5.8-2.7-5.8-7.2c0-4.6,2.2-7.3,6-7.3c2.9,0,5,1.8,5.3,4.4l0,0.2h-1l0-0.2c-0.4-2.2-2-3.5-4.4-3.5
				c-3,0-4.8,2.4-4.8,6.3c0,3.9,1.8,6.3,4.7,6.3c2.7,0,4.4-1.5,4.5-4l0-0.2h1l0,0.2C110.9,52.3,108.7,54.3,105.6,54.3z M105.7,40.1
				c-3.5,0-5.6,2.6-5.6,6.9c0,4.3,2,6.8,5.4,6.8c2.9,0,4.8-1.7,5-4.4h-0.2c-0.2,2.6-2.1,4.2-4.9,4.2c-3.1,0-5.1-2.6-5.1-6.7
				c0-4.1,2-6.7,5.2-6.7c2.6,0,4.3,1.3,4.7,3.7h0.2C110.2,41.6,108.3,40.1,105.7,40.1z"/>
		</g>
		<g>
			<path d="M116,40.8h-4.3v-0.6h9.2v0.6h-4.2v13H116V40.8z"/>
			<path d="M116.8,54h-1V41h-4.3v-1h9.6v1h-4.2V54z M116.2,53.6h0.2v-13h4.2v-0.2h-8.8v0.2h4.3V53.6z"/>
		</g>
		<g>
			<path d="M122.7,40.2h3.7c1.5,0,2.7,0.1,3.5,0.6c0.9,0.5,1.5,1.6,1.5,2.8c0,1.5-0.8,2.7-2.6,3.1c2.2,0.2,3.3,1.5,3.3,3.5
				c0,1.3-0.6,2.4-1.5,3c-0.9,0.6-2.1,0.7-3.7,0.7h-4.1V40.2z M126.5,46.5c2.8,0,4.2-0.9,4.2-3c0-2.2-1.4-2.7-4.3-2.7h-3.1v5.7
				H126.5z M126.7,53.2c1.3,0,2.3,0,3-0.3c1-0.4,1.7-1.5,1.7-2.8c0-2.2-1.5-3.1-4.7-3.1h-3.4v6.2H126.7z"/>
			<path d="M126.8,54h-4.3V40h3.9c1.6,0,2.7,0.1,3.6,0.6c1,0.6,1.6,1.6,1.6,2.9c0,1.4-0.7,2.5-2,3c1.7,0.4,2.7,1.7,2.7,3.6
				c0,1.3-0.6,2.5-1.6,3.1C129.7,53.9,128.5,54,126.8,54z M122.9,53.6h3.9c1.6,0,2.7-0.1,3.6-0.6c0.9-0.5,1.4-1.6,1.4-2.8
				c0-2-1.1-3.1-3.1-3.3l-1.3-0.1l1.2-0.3c1.6-0.4,2.5-1.4,2.5-2.9c0-1.1-0.5-2.1-1.4-2.6c-0.8-0.5-1.9-0.6-3.4-0.6h-3.5V53.6z
				 M126.7,53.4h-3.6v-6.6h3.6c3.4,0,4.9,1,4.9,3.3c0,1.4-0.7,2.5-1.8,3C129,53.4,128,53.4,126.7,53.4z M123.5,53h3.2
				c1.3,0,2.2,0,3-0.3c1-0.4,1.5-1.4,1.5-2.6c0-2-1.3-2.9-4.5-2.9h-3.2V53z M126.5,46.7h-3.4v-6.1h3.3c2.7,0,4.5,0.5,4.5,2.9
				C130.9,45.7,129.5,46.7,126.5,46.7z M123.5,46.3h3c2.8,0,4-0.8,4-2.8c0-1.9-1.1-2.5-4.1-2.5h-2.9V46.3z"/>
		</g>
		<g>
			<path d="M139.8,39.9c3.7,0,6,2.7,6,7.1c0,4.4-2.3,7.1-6,7.1c-3.7,0-6-2.7-6-7.1C133.8,42.6,136.1,39.9,139.8,39.9z M139.8,53.5
				c3.3,0,5.4-2.4,5.4-6.5s-2-6.5-5.4-6.5c-3.3,0-5.3,2.4-5.3,6.5S136.5,53.5,139.8,53.5z"/>
			<path d="M139.8,54.3c-3.8,0-6.2-2.8-6.2-7.3c0-4.5,2.4-7.3,6.2-7.3c3.8,0,6.2,2.8,6.2,7.3C146,51.5,143.6,54.3,139.8,54.3z
				 M139.8,40.1c-3.6,0-5.8,2.6-5.8,6.9c0,4.3,2.2,6.9,5.8,6.9c3.6,0,5.8-2.6,5.8-6.9C145.6,42.7,143.4,40.1,139.8,40.1z
				 M139.8,53.7c-3.5,0-5.5-2.5-5.5-6.7c0-4.1,2.1-6.7,5.5-6.7c3.4,0,5.6,2.6,5.6,6.7C145.3,51.2,143.2,53.7,139.8,53.7z
				 M139.8,40.7c-3.2,0-5.1,2.4-5.1,6.3c0,3.9,1.9,6.3,5.1,6.3c3.2,0,5.2-2.4,5.2-6.3C144.9,43.1,143,40.7,139.8,40.7z"/>
		</g>
	</g>
	<g>
		<g>
			<path d="M49.5,74V61.5L41,74h-0.6V60.4H41v12.5l8.5-12.5h0.7V74H49.5z"/>
			<path d="M50.4,74.2h-1v-12l-8.2,12h-0.9v-14h1v12.1l8.2-12.1h1V74.2z M49.7,73.8H50V60.6h-0.3l-8.8,13v-13h-0.2v13.2h0.3
				l8.8-12.9V73.8z"/>
		</g>
		<g>
			<path d="M56.3,61H52v-0.6h9.2V61H57v13h-0.6V61z"/>
			<path d="M57.2,74.2h-1v-13h-4.3v-1h9.6v1h-4.2V74.2z M56.5,73.8h0.2v-13H61v-0.2h-8.8v0.2h4.3V73.8z"/>
		</g>
		<g>
			<path d="M65.3,60.4H66L71.2,74h-0.6l-1.8-4.6h-6.3L60.7,74h-0.6L65.3,60.4z M68.6,68.8l-2.9-7.6l-3,7.6H68.6z"/>
			<path d="M71.5,74.2h-1l-1.8-4.6h-6.1l-1.8,4.6h-1.1l5.4-14h1L71.5,74.2z M70.7,73.8h0.2l-5-13.2h-0.2l3.2,8.4h-6.5l3.3-8.4h-0.2
				l-5.1,13.2h0.2l1.8-4.6h6.6L70.7,73.8z M63,68.6h5.3l-2.6-6.9L63,68.6z"/>
		</g>
		<g>
			<path d="M72.8,73.4c1.7,0,1.9-3.5,1.9-6.7v-6.2h8.5V74h-0.6V61h-7.3v6.5c0,2.7-0.4,6.6-2.5,6.6c-0.3,0-0.6,0-0.8-0.1v-0.7
				C72.2,73.3,72.4,73.4,72.8,73.4z"/>
			<path d="M83.4,74.2h-1v-13h-6.9v6.3c0,3.1-0.5,6.8-2.7,6.8c-0.2,0-0.4,0-0.6,0c-0.1,0-0.2,0-0.2,0l-0.2,0v-1.1l0.2,0
				c0.1,0,0.2,0,0.3,0c0.1,0,0.3,0,0.5,0c1.5,0,1.7-3.7,1.7-6.5v-6.4h8.9V74.2z M82.8,73.8H83V60.6h-8.1v6c0,3.4-0.3,6.9-2.1,6.9
				c-0.2,0-0.4,0-0.6,0c0,0,0,0,0,0v0.2c0,0,0,0,0.1,0c0.2,0,0.3,0,0.6,0c2,0,2.3-4,2.3-6.4v-6.7h7.7V73.8z"/>
		</g>
		<g>
			<path d="M95.3,74V61.5L86.8,74h-0.6V60.4h0.6v12.5l8.5-12.5H96V74H95.3z"/>
			<path d="M96.2,74.2h-1v-12l-8.2,12H86v-14h1v12.1l8.2-12.1h1V74.2z M95.5,73.8h0.2V60.6h-0.3l-8.8,13v-13h-0.2v13.2h0.3l8.8-12.9
				V73.8z"/>
		</g>
		<g>
			<path d="M106.6,60.4V74H106v-6.3h-4L98.7,74H98l3.3-6.4c-1.9-0.3-3.3-1.3-3.3-3.6c0-2.5,1.6-3.6,4.9-3.6H106.6z M103,61
				c-2.4,0-4.3,0.5-4.3,3c0,2.6,1.7,3.2,3.9,3.2h3.4V61H103z"/>
			<path d="M106.8,74.2h-1v-6.3h-3.7l-3.3,6.3h-1.2l3.4-6.4c-2.1-0.4-3.1-1.7-3.1-3.8c0-2.5,1.7-3.8,5.1-3.8h3.9V74.2z M106.2,73.8
				h0.2V60.6h-3.5c-3.2,0-4.7,1-4.7,3.4c0,2,1,3.1,3.1,3.4l0.3,0l-3.3,6.3h0.3l3.3-6.3h4.4V73.8z M106.2,67.4h-3.6
				c-1.7,0-4.1-0.4-4.1-3.4c0-2.8,2.4-3.2,4.5-3.2h3.2V67.4z M103,61.2c-2.8,0-4.1,0.8-4.1,2.8c0,2.1,1.1,3,3.7,3h3.2v-5.8H103z"/>
		</g>
	</g>
</g>
</svg>
