<?xml version="1.0" encoding="utf-8"?>
<!-- Generator: Adobe Illustrator 19.1.0, SVG Export Plug-In . SVG Version: 6.00 Build 0)  -->
<svg version="1.1" id="Layer_1" xmlns="http://www.w3.org/2000/svg" xmlns:xlink="http://www.w3.org/1999/xlink" x="0px" y="0px"
	 width="114px" height="23px" viewBox="-61 25 114 23" style="enable-background:new -61 25 114 23;" xml:space="preserve">
<g>
	<polygon points="-42.8,41.2 -50.2,41.2 -50.2,25.9 -51.4,25.9 -51.4,41.2 -58.7,41.2 -58.7,25.9 -60,25.9 -60,42.4 -41.6,42.4 
		-41.5,42.4 -41.5,25.9 -42.8,25.9 	"/>
	<path d="M-37.8,36.3c0,2.5-0.1,5.2-1.5,5.2h-0.8v1.1h1c0.5,0,1-0.2,1.3-0.6c1.1-1,1.2-3.4,1.2-5.8v-4.7h5.7v10.9h1.2v-12h-8.1V36.3
		z"/>
	<path d="M-18.7,39.7v-5.6c0-1,0-1.7-0.5-2.5c-0.7-1-1.9-1.5-3.6-1.5c-2.8,0-4.6,1.4-4.7,3.7v0.3h1.2v-0.2c0.1-1.7,1.4-2.6,3.6-2.6
		c1.3,0,2.9,0.4,2.9,2.2v1c0,0.6-0.5,0.7-2.1,0.9c-0.4,0-0.8,0-1.2,0.1c-2.9,0.4-4.8,1.2-4.8,3.7c0,2.1,1.5,3.5,3.7,3.5
		c1.8,0,3.4-0.6,4.4-1.8c0.1,0.9,0.5,1.5,1.7,1.5h0.9v-1.1h-0.7C-18.6,41.3-18.7,41.2-18.7,39.7z M-26.7,39.1c0-1.6,1.1-2.2,4.2-2.6
		l0.5-0.1c1.1-0.1,1.8-0.2,2.2-0.4v1.2c0,1.6-0.2,2.4-1.1,3.2c-0.8,0.7-1.9,1.1-3.1,1.1C-25.8,41.5-26.7,40.7-26.7,39.1z"/>
	<polygon points="-15.9,42.4 -14.7,42.4 -14.6,42.4 -14.6,31.5 -7.5,31.5 -7.5,30.4 -15.9,30.4 	"/>
	<path d="M-1.8,30.6c-1.2,0-2.8,0.5-3.9,1.8c-0.1,0.2-0.2,0.3-0.3,0.5c0.5-2.9,1.8-4.3,4.2-4.7c0.3,0,0.6-0.1,0.9-0.1
		c2.1-0.3,2.9-0.4,3.3-1.8L2.5,26H1.3v0.2c-0.1,0.6-0.6,0.7-1.8,0.8c-0.4,0-0.9,0.1-1.4,0.2c-1.9,0.3-3.3,1.1-4.1,2.4
		C-6.9,31-7.2,33-7.2,36.2c0,4.8,2.7,6.5,5.3,6.5c3.3,0,5.3-2.4,5.3-6.3C3.4,32.9,1.3,30.6-1.8,30.6z M-1.8,31.7
		c2.4,0,4,1.9,3.9,4.7c0,3.1-1.6,5.1-4.1,5.1c-2,0-4.1-1.3-4.1-5.1C-6.1,32.9-3.8,31.7-1.8,31.7z"/>
	<path d="M13.3,39.7v-5.6c0-1,0-1.7-0.5-2.5c-0.7-1-1.9-1.5-3.6-1.5c-2.8,0-4.6,1.4-4.7,3.7v0.3h1.2v-0.2c0.1-1.7,1.4-2.6,3.6-2.6
		c1.3,0,2.9,0.4,2.9,2.2v1c0,0.6-0.5,0.7-2.1,0.9c-0.6,0.1-0.7,0-1.2,0.1c-2.9,0.4-4.8,1.2-4.8,3.7c0,2.1,1.5,3.5,3.7,3.5
		c1.9,0,3.4-0.6,4.5-1.8c0.1,0.9,0.5,1.5,1.7,1.5h0.8v-1.1h-0.7C13.4,41.3,13.3,41.2,13.3,39.7z M5.3,39.1c0-1.6,1.1-2.2,4.2-2.6
		l0.5-0.1c1.1-0.1,1.8-0.2,2.2-0.4v1.2c0,1.6-0.2,2.4-1.1,3.2c-0.8,0.7-1.9,1.1-3.1,1.1C6.2,41.5,5.3,40.7,5.3,39.1z"/>
	<path d="M19.6,40.6l-3.8-10.2h-1.2l4.5,12l-1,2.4c-0.4,0.9-0.7,1.2-1.3,1.2h-1.1v1.1h1.1c1.4,0,2.1-1.1,2.8-3.1l5.1-13.6h-1.3
		L19.6,40.6z"/>
	<polygon points="31.9,40.5 27,30.4 26,30.4 26,30.6 26,42.2 26,42.4 27.2,42.4 27.2,33 31.5,42 32.5,42 36.8,33 36.8,42.4 38,42.4 
		38,30.4 36.8,30.4 	"/>
	<rect x="50.8" y="30.4" width="1.2" height="12"/>
	<path d="M44.1,35.6h-2.6v-5.2h-1.2v12H45c2.2,0,3.8-1.4,3.8-3.4C48.8,36.7,47.3,35.6,44.1,35.6z M47.6,39c0,1.4-1.1,2.3-2.9,2.3
		h-3.1v-4.6H44C46.6,36.7,47.6,37.4,47.6,39z"/>
</g>
</svg>
