<?xml version="1.0" encoding="utf-8"?>
<!-- Generator: Adobe Illustrator 19.1.0, SVG Export Plug-In . SVG Version: 6.00 Build 0)  -->
<svg version="1.1" id="Layer_1" xmlns="http://www.w3.org/2000/svg" xmlns:xlink="http://www.w3.org/1999/xlink" x="0px" y="0px"
	 width="135px" height="71px" viewBox="-51 1 135 71" style="enable-background:new -51 1 135 71;" xml:space="preserve">
<g>
	<path d="M-49.5,18.3l2-5.3h7.2l2,5.3c0,0.1,0.1,0.2,0.2,0.2h0.7c0.1,0,0.2-0.1,0.3-0.2c0,0,0-0.1,0-0.2l-6.1-16
		C-43.3,2-43.4,2-43.5,2h-0.8c-0.1,0-0.2,0-0.2,0.2l-6.2,16c-0.1,0,0,0.1,0,0.2c0,0.1,0.1,0.1,0.2,0.1h0.8
		C-49.6,18.5-49.5,18.4-49.5,18.3z M-47,11.8l3.1-8l3.1,8H-47z"/>
	<path d="M-30.3,12.2c1.5-0.6,1.8-1.8,1.8-2.6c0-2-1.4-3.1-3.9-3.1h-3.9c-0.1,0-0.2,0.1-0.2,0.2v11.6c0,0.1,0.1,0.2,0.2,0.2h4.7
		c2.3,0,3.8-1.5,3.7-3.4C-27.9,13.8-28.8,12.7-30.3,12.2z M-29,15c0,1.5-1,2.3-2.9,2.3h-3.4v-4.6h2.6C-31.3,12.7-29,13.3-29,15z
		 M-29.6,9.5c0,1.8-1.9,2.1-3.1,2.1h-2.6v-4h2.7C-30.7,7.6-29.6,8.3-29.6,9.5z"/>
	<path d="M-22.6,18.3c0,0.1,0.1,0.2,0.2,0.2h0.7c0.1,0,0.2-0.2,0.2-0.3V7.5h4.5c0.1,0,0.2-0.1,0.2-0.2V6.7c0-0.1-0.1-0.2-0.2-0.2
		h-10.1c-0.1,0-0.2,0.1-0.2,0.2v0.6c0,0.1,0.1,0.2,0.2,0.2h4.5V18.3z"/>
	<path d="M-5.6,12.4c0-3.9-2-6.3-5.3-6.3c-3.3,0-5.3,2.4-5.3,6.3c0,3.9,2,6.3,5.3,6.3C-7.6,18.7-5.5,16.3-5.6,12.4z M-10.9,7.3
		c2.6,0,4.2,1.9,4.1,5.2c0,3.3-1.5,5.2-4.1,5.2c-2.6,0-4.1-2-4.1-5.2C-15,9.2-13.5,7.3-10.9,7.3z"/>
	<path d="M-3.2,18.5h0.7c0.1,0,0.2-0.1,0.2-0.2V9.1L2,18c0,0,0.1,0.1,0.2,0.1h0.7c0.1,0,0.2,0,0.2-0.1l4.3-8.9v9.2
		c0,0.1,0.1,0.2,0.2,0.2h0.7c0.2,0,0.3-0.2,0.2-0.2V6.7c0-0.1-0.1-0.2-0.2-0.2H7.6c-0.1,0-0.2,0-0.2,0.1l-4.8,9.9l-4.9-9.9
		c0,0-0.1-0.1-0.2-0.1h-0.7c-0.1,0-0.2,0.1-0.2,0.2v11.6C-3.4,18.4-3.3,18.5-3.2,18.5z"/>
	<path d="M20.7,17.4h-0.4c-0.7,0-0.8-0.1-0.8-1.6v-5.6c0-1,0-1.7-0.5-2.5c-0.7-1-1.9-1.5-3.6-1.5c-2.8,0-4.6,1.4-4.7,3.7
		c0,0.1,0.1,0.2,0.1,0.2c0.1,0.1,0.1,0.1,0.2,0.1h0.7c0.1,0,0.2-0.1,0.2-0.2c0.1-1.7,1.4-2.6,3.6-2.6c1.3,0,2.9,0.4,2.9,2.2v1
		c0,0.5-0.4,0.7-1.5,0.8c-0.2,0-0.5,0.1-0.8,0.1c-0.3,0-0.7,0-1,0.1c-2.9,0.4-4.8,1.2-4.8,3.7c0,2.1,1.5,3.5,3.7,3.5
		c1.9,0,3.5-0.7,4.4-1.9c0.1,0.9,0.5,1.5,1.7,1.5h0.6c0.1,0,0.2-0.1,0.2-0.2v-0.6C20.9,17.5,20.8,17.4,20.7,17.4z M15.7,12.6
		l0.5-0.1c1.1-0.1,1.8-0.2,2.2-0.4v1.2c0,1.6-0.2,2.4-1.1,3.2c-0.8,0.7-1.9,1.1-3.1,1.1c-1.8,0-2.7-0.8-2.7-2.4
		C11.5,13.6,12.6,13,15.7,12.6z"/>
	<path d="M25.7,18.3c0,0.1,0.1,0.2,0.2,0.2h0.7c0.2,0,0.3-0.2,0.3-0.3V7.5h4.5c0.1,0,0.2-0.1,0.2-0.2V6.7c0-0.1-0.1-0.2-0.2-0.2
		H21.2c-0.1,0-0.2,0.1-0.2,0.2v0.6c0,0.1,0.1,0.2,0.2,0.2h4.5V18.3z"/>
	<path d="M33,18.5h0.7c0.1,0,0.2,0,0.2-0.1L41,8.6v9.7c0,0.1,0.1,0.2,0.2,0.2h0.7c0.1,0,0.3-0.2,0.2-0.3V6.6c0-0.1-0.1-0.2-0.2-0.2
		h-0.7c-0.1,0-0.2,0-0.2,0.1l-7.1,9.8V6.7c0-0.1-0.1-0.2-0.2-0.2H33c-0.1,0-0.2,0.1-0.2,0.2v11.6C32.8,18.4,32.9,18.5,33,18.5z"/>
	<path d="M45,18.4h0.7c0.1,0,0.2-0.1,0.2-0.2v-3.9l2.5-2.5l4.4,6.6c0,0.1,0.1,0.1,0.2,0.1h0.9c0.1,0,0.1,0.1,0.2,0
		c0.1-0.1,0.1-0.2,0-0.3L49.3,11l4.1-4.1c0.1-0.1,0.1-0.2,0.1-0.3c0-0.1-0.1-0.2-0.2-0.2h-0.9c-0.1,0-0.2,0.1-0.2,0.1l-6.3,6.2v-6
		c0-0.1-0.1-0.2-0.2-0.2H45c-0.1,0-0.2,0.1-0.2,0.2v11.5C44.8,18.3,44.9,18.4,45,18.4z"/>
	<path d="M60.7,11.4c-0.2,0-0.5,0.1-0.8,0.1c-0.3,0-0.7,0-1,0.1c-2.9,0.4-4.8,1.2-4.8,3.7c0,2.1,1.5,3.5,3.7,3.5
		c1.8,0,3.4-0.7,4.5-1.9c0.1,0.9,0.5,1.5,1.7,1.5h0.5c0.1,0,0.2-0.1,0.2-0.2v-0.6c0-0.1-0.1-0.2-0.2-0.2h-0.4
		c-0.7,0-0.8-0.1-0.8-1.6v-5.6c0-0.9,0-1.7-0.5-2.5c-0.7-1-1.9-1.5-3.6-1.5c-2.8,0-4.6,1.4-4.7,3.7c0,0.1,0.1,0.2,0.1,0.2
		c0.1,0.1,0.1,0.1,0.2,0.1h0.7c0.1,0,0.2-0.1,0.2-0.2c0.1-1.7,1.4-2.6,3.6-2.6c1.3,0,2.9,0.4,2.9,2.2v1
		C62.2,11.1,61.8,11.3,60.7,11.4z M58,17.6c-1.8,0-2.7-0.8-2.7-2.4c0-1.6,1.1-2.2,4.2-2.6l0.5-0.1c1.1-0.1,1.8-0.2,2.2-0.4v1.2
		c0,1.6-0.2,2.4-1.1,3.2C60.3,17.2,59.2,17.6,58,17.6z"/>
	<path d="M-38.8,45.2v-3.6c0-0.1-0.1-0.2-0.2-0.2h-1V30.7c0-0.1-0.1-0.2-0.2-0.2h-7.4c-0.1,0-0.2,0.1-0.2,0.2v5.1
		c0,2.6-0.4,4.3-1.3,5.6H-50c-0.1,0-0.2,0.1-0.2,0.2v3.6c0,0.1,0.1,0.2,0.2,0.2h0.7c0.1,0,0.2-0.1,0.2-0.2v-2.7h9.2v2.7
		c0,0.1,0.1,0.2,0.2,0.2h0.7C-38.9,45.4-38.8,45.3-38.8,45.2z M-41.1,31.5v9.8h-6.7c0.8-1.2,1.2-3.1,1.2-5.5v-4.3H-41.1z"/>
	<path d="M-28.7,30.6h-7.6c-0.1,0-0.2,0.1-0.2,0.2v5.6c0,2.5-0.1,5.2-1.5,5.2h-0.5c-0.1,0-0.2,0.1-0.2,0.2v0.6
		c0,0.1,0.1,0.2,0.2,0.2h0.6c0,0,0,0,0.1,0c0.5,0,1-0.2,1.3-0.5c1.1-1,1.2-3.4,1.2-5.8v-4.7h5.7v10.7c0,0.1,0.1,0.2,0.2,0.2h0.7
		c0.1,0,0.2-0.1,0.2-0.2V30.8C-28.5,30.7-28.6,30.6-28.7,30.6z"/>
	<path d="M-25.7,42.5l3.4-5.1h2.9v4.9c0,0.1,0.1,0.2,0.2,0.2h0.7c0.1,0,0.2-0.2,0.2-0.1V30.8c0-0.1-0.1-0.2-0.2-0.2h-4.1
		c-2.6,0-4.1,1.2-4.1,3.4c0,1.7,1.1,3,3.1,3.3l-3.3,4.9c0,0.1,0,0.2,0,0.3c0,0,0.1,0.1,0.2,0.1h0.8C-25.8,42.6-25.7,42.6-25.7,42.5z
		 M-19.5,31.5v4.6h-2.4c-2.4,0-3.7-0.8-3.7-2.3c0-2,1.8-2.3,2.9-2.3H-19.5z"/>
	<path d="M-9.8,30.5c-0.1,0-0.2,0.1-0.2,0.2v11.6c0,0.1,0.1,0.2,0.2,0.2h0.7c0.2,0,0.3-0.2,0.3-0.3V31.5h6.9c0.1,0,0.2-0.1,0.2-0.2
		v-0.6c0-0.1-0.1-0.2-0.2-0.2H-9.8z"/>
	<path d="M8.7,41.4H8.3c-0.7,0-0.8-0.1-0.8-1.6v-5.6c0-1,0-1.7-0.5-2.5c-0.7-1-1.9-1.5-3.6-1.5c-2.8,0-4.6,1.4-4.7,3.7
		c0,0.1,0.1,0.2,0.1,0.2c0.1,0.1,0.1,0.1,0.2,0.1h0.6c0.1,0,0.2-0.1,0.2-0.2c0.1-1.7,1.4-2.6,3.6-2.6c1.3,0,2.9,0.4,2.9,2.2v1
		c0,0.5-0.4,0.7-1.5,0.8c-0.2,0-0.5,0.1-0.8,0.1c-0.3,0-0.7,0-1,0.1c-2.9,0.4-4.8,1.2-4.8,3.7c0,2.1,1.5,3.5,3.7,3.5
		c1.8,0,3.4-0.7,4.5-1.9c0.1,0.9,0.5,1.5,1.7,1.5h0.6c0.1,0,0.2-0.1,0.2-0.2v-0.6C8.9,41.5,8.8,41.4,8.7,41.4z M3.6,36.6l0.5-0.1
		c1.1-0.1,1.8-0.2,2.2-0.4v1.2c0,1.6-0.2,2.4-1.1,3.2c-0.8,0.7-1.9,1.1-3.1,1.1c-1.8,0-2.7-0.8-2.7-2.4C-0.6,37.6,0.5,37,3.6,36.6z"
		/>
	<path d="M15.5,30.2c-1.8,0-3.2,0.7-4.1,2.1v-1.6c0-0.1-0.1-0.2-0.2-0.2h-0.7c-0.1,0-0.2,0.1-0.2,0.2v16.1c0,0.1,0.1,0.2,0.2,0.2
		h0.7c0.1,0,0.2-0.1,0.2-0.1v-6.1c0.9,1.3,2.3,2,4.1,2c3.3,0,5.3-2.4,5.3-6.3S18.8,30.2,15.5,30.2z M15.6,31.3c2.5,0,4.1,2,4.1,5.2
		c0,3.3-1.5,5.2-4.1,5.2c-2.6,0-4.1-2-4.1-5.2S13.1,31.3,15.6,31.3z"/>
	<path d="M44.5,35l4-4.1c0-0.1,0-0.2,0-0.3c0-0.1-0.1-0.2-0.2-0.2h-0.9c-0.1,0-0.2,0-0.2,0.1l-5.8,6.1v-5.9c0-0.1-0.1-0.2-0.2-0.2
		h-0.7c-0.1,0-0.2,0.1-0.2,0.2v5.9l-5.8-6.1c-0.1-0.1-0.1-0.1-0.2-0.1h-0.9c-0.1,0-0.2,0.1-0.2,0.2c-0.1,0.1-0.1,0.2,0,0.3l4,4.1
		l-4.4,6.6v0c0-0.1-0.1-0.2-0.2-0.2h-0.4c-0.7,0-0.8-0.1-0.8-1.6v-5.6c0-1,0-1.7-0.5-2.5c-0.7-1-1.9-1.5-3.6-1.5
		c-2.8,0-4.6,1.4-4.7,3.7c0,0.1,0.1,0.2,0.1,0.2c0.1,0.1,0.1,0.1,0.2,0.1h0.7c0.1,0,0.2-0.1,0.2-0.2c0.1-1.7,1.4-2.6,3.6-2.6
		c1.3,0,2.9,0.4,2.9,2.2v1c0,0.4-0.2,0.6-0.9,0.7c-0.4,0.1-0.9,0.1-1.5,0.2c-0.3,0-0.6,0-0.9,0.1c-2.9,0.4-4.8,1.2-4.8,3.7
		c0,2.1,1.5,3.5,3.7,3.5c1.8,0,3.4-0.7,4.4-1.9c0.1,0.9,0.5,1.5,1.7,1.5h0.5v0c0,0,0.1,0.1,0.2,0.1h0.8c0.1,0,0.2,0,0.2-0.1l4.3-6.5
		l2.3,2.3v4.1c0,0.1,0.1,0.2,0.2,0.2h0.7c0.1,0,0.2-0.1,0.2-0.2v-4.1l2.2-2.3l4.3,6.5c0,0.1,0.1,0.1,0.2,0.1h0.8
		c0.1,0,0.2-0.1,0.3-0.1c0.1-0.1,0.1-0.2,0-0.3L44.5,35z M27.6,36.6l0.5-0.1c1.1-0.1,1.8-0.2,2.2-0.4v1.2c0,1.6-0.2,2.4-1.1,3.2
		c-0.8,0.7-1.9,1.1-3.1,1.1c-1.8,0-2.7-0.8-2.7-2.4C23.4,37.6,24.5,37,27.6,36.6z"/>
	<path d="M58.8,30.5h-0.7c-0.1,0-0.2,0.1-0.2,0.2v5h-6.7v-5c0-0.1-0.1-0.2-0.2-0.2h-0.7c-0.1,0-0.2,0.1-0.2,0.2v11.6
		c0,0.1,0.1,0.2,0.2,0.2H51c0.1,0,0.2-0.1,0.2-0.2v-5.4h6.7v5.4c0,0.1,0.1,0.2,0.2,0.2h0.7c0.1,0,0.2-0.2,0.2-0.2V30.7
		C59,30.6,58.9,30.5,58.8,30.5z"/>
	<path d="M73,30.7c0-0.1-0.1-0.2-0.2-0.2h-0.7c-0.1,0-0.2,0.1-0.2,0.2v11.6c0,0.1,0.1,0.2,0.2,0.2h0.7c0.2,0,0.3-0.2,0.2-0.2V30.7z"
		/>
	<path d="M65.1,35.6h-2.6v-4.9c0-0.1-0.1-0.2-0.2-0.2h-0.7c-0.1,0-0.2,0.1-0.2,0.2v11.6c0,0.1,0.1,0.2,0.2,0.2H66
		c2.3,0,3.8-1.5,3.8-3.5C69.8,36.7,68.3,35.6,65.1,35.6z M68.7,39c0,1.4-1.1,2.3-2.9,2.3h-3.1v-4.6h2.4C67.7,36.7,68.7,37.4,68.7,39
		z"/>
	<path d="M83.7,42.1l-4.2-5.8l3.9-5.4c0-0.1,0-0.2,0-0.3c0,0-0.1-0.1-0.2-0.1h-0.8c-0.1,0-0.2,0-0.2,0.1l-3.4,4.7l-3.4-4.7
		c0-0.1-0.1-0.1-0.2-0.1h-0.8c-0.1,0-0.2,0-0.2,0.1c-0.1,0.1-0.1,0.2,0,0.3l3.9,5.4L74,42.1c0,0.1,0,0.3,0,0.3s0.1,0.1,0.2,0.1H75
		c0.1,0,0.2,0,0.2-0.1l3.6-5.1l3.7,5.1c0,0.1,0.1,0.1,0.2,0.1h0.8c0.1,0,0.2-0.1,0.2-0.1C83.8,42.3,83.8,42.2,83.7,42.1z"/>
	<path d="M-43,60.2c1.5-0.6,1.8-1.8,1.8-2.6c0-2-1.4-3.1-3.9-3.1H-49c-0.1,0-0.2,0.1-0.2,0.2v11.6c0,0.1,0.1,0.2,0.2,0.2h4.7
		c2.2,0,3.8-1.5,3.7-3.4C-40.6,61.8-41.5,60.7-43,60.2z M-41.8,63c0,1.5-1,2.3-2.9,2.3h-3.4v-4.6h2.6C-44.1,60.7-41.8,61.3-41.8,63z
		 M-48.1,55.6h2.7c1.9,0,3,0.7,3,1.9c0,1.8-1.9,2.1-3.1,2.1h-2.6V55.6z"/>
	<path d="M-34,54.1c-3.3,0-5.3,2.4-5.3,6.3c0,3.9,2,6.3,5.3,6.3s5.3-2.4,5.3-6.3C-28.7,56.5-30.7,54.1-34,54.1z M-34,65.7
		c-2.6,0-4.1-2-4.1-5.2c0-3.3,1.5-5.2,4.1-5.2s4.1,1.9,4.1,5.2S-31.4,65.7-34,65.7z"/>
	<path d="M-21.4,54.2c-1.8,0-3.2,0.7-4.1,2.1v-1.6c0-0.1-0.1-0.2-0.2-0.2h-0.7c-0.1,0-0.2,0.1-0.2,0.2v16.1c0,0.1,0.1,0.2,0.2,0.2
		h0.7c0.2,0,0.3-0.1,0.2-0.1v-6.1c0.9,1.3,2.3,2,4.1,2c3.3,0,5.3-2.4,5.3-6.3S-18.1,54.2-21.4,54.2z M-21.3,65.7
		c-2.6,0-4.1-2-4.1-5.2s1.6-5.2,4.1-5.2s4.1,2,4.1,5.2C-17.2,63.8-18.7,65.7-21.3,65.7z"/>
	<path d="M-9.2,54.1c-3.3,0-5.3,2.4-5.3,6.3c0,3.9,2,6.3,5.3,6.3s5.4-2.4,5.3-6.3C-3.9,56.5-5.9,54.1-9.2,54.1z M-9.2,65.7
		c-2.6,0-4.1-2-4.1-5.2c0-3.3,1.5-5.2,4.1-5.2c2.6,0,4.2,1.9,4.1,5.2C-5.1,63.8-6.6,65.7-9.2,65.7z"/>
	<path d="M7.2,54.5H-3c-0.1,0-0.2,0.1-0.2,0.2v0.6c0,0.1,0.1,0.2,0.2,0.2h4.6v10.8c0,0.1,0.1,0.2,0.2,0.2h0.7c0.1,0,0.2-0.2,0.2-0.3
		V55.5h4.5c0.1,0,0.2-0.1,0.2-0.2v-0.6C7.4,54.6,7.3,54.5,7.2,54.5z"/>
</g>
</svg>
